<svg width="156" height="212" viewBox="0 0 156 212" fill="none" xmlns="http://www.w3.org/2000/svg">
<path d="M126.416 197.619C119.609 193.413 114.403 189.808 108.997 186.603C105.793 184.8 102.189 182.797 98.5849 188.405C108.596 196.217 117.606 204.63 128.619 210.639C133.224 213.243 136.228 212.041 139.431 207.634C140.633 206.032 141.433 204.229 142.234 202.627C146.439 193.613 150.644 184.6 154.648 175.386C156.05 172.381 157.251 168.976 153.447 166.973C150.043 165.171 147.04 166.973 145.038 169.778C142.835 172.982 141.233 176.387 139.431 179.793C138.23 182.196 137.028 184.8 134.626 186.803C134.626 185.601 134.626 184.399 134.626 183.198C134.626 169.778 131.422 164.97 119.008 159.763C108.997 155.757 98.7852 153.754 87.9729 154.755C85.37 154.955 82.767 155.156 80.3643 155.356C69.7523 155.757 66.1482 151.55 68.9513 141.335C70.3529 136.127 72.9559 131.12 74.9582 126.112C81.3654 111.09 78.362 102.076 63.9457 94.0642C53.1334 88.0552 41.5203 84.4498 29.1062 83.6486C25.3019 83.4483 21.2973 83.248 17.6933 82.4468C11.6865 81.0447 10.0846 78.0402 12.8878 72.6321C15.691 66.8234 19.4953 61.6156 23.0994 56.2075C25.5021 52.4018 28.5055 48.9967 30.708 44.9907C35.113 36.7784 35.7137 28.1656 29.9071 20.3539C25.5021 14.5452 20.4964 8.93675 15.2905 3.72896C11.8867 0.323853 7.28145 -1.47879 1.07442 1.5257C2.67623 3.3284 4.07783 4.73048 5.47942 6.33289C10.6853 11.9413 15.8912 17.5497 20.6967 23.5587C25.3019 29.3674 24.501 35.5767 20.4964 41.3854C16.8924 46.3929 12.8878 50.9997 9.48396 56.0072C6.48055 60.6141 3.27692 65.221 1.47488 70.2285C-2.72988 81.0447 2.27579 90.4588 13.6887 93.0627C18.8946 94.2645 24.501 94.6651 29.9071 94.8654C40.7193 95.4663 50.7307 98.8714 59.9411 104.079C67.5498 108.486 68.5509 111.891 65.3473 119.903C62.7443 126.513 59.5407 132.922 57.9389 139.733C56.7375 144.139 57.138 149.347 58.3393 153.954C60.3416 161.966 66.3484 166.172 74.5577 166.372C78.9627 166.372 83.5679 166.172 87.9729 165.371C98.1845 163.769 107.795 166.372 117.006 169.978C121.411 171.78 124.214 174.585 124.214 179.993C124.214 185.401 125.415 190.609 126.416 197.619Z" fill="#646464"/>
</svg>
