<svg width="100" height="106" viewBox="0 0 100 106" fill="none" xmlns="http://www.w3.org/2000/svg">
<path d="M52.3799 50.8065C41.8338 54.3219 42.8382 65.3701 35.8074 77.4228C26.2657 94.9996 32.2921 106.048 41.8338 105.546C51.3755 105.043 55.393 92.9908 64.9347 89.9776C73.9742 86.9645 84.5203 93.9952 92.5554 88.9732C100.591 83.9513 99.0839 71.3965 81.0049 62.8592C68.9523 56.8328 62.9259 47.7933 52.3799 50.8065Z" fill="#001922"/>
<path d="M24.2569 51.31C32.7942 57.3364 36.3095 66.878 32.292 72.4022C28.2744 77.9263 18.2305 77.4241 9.69324 71.3978C1.15593 65.3715 -2.35943 55.8298 1.65813 50.3057C5.67568 44.7815 15.7196 45.2837 24.2569 51.31Z" fill="#001922"/>
<path d="M75.4809 34.738C72.4677 44.7819 74.9787 54.3236 81.005 56.3324C87.5336 58.3412 95.0665 51.8126 98.5818 42.2709C101.595 32.2271 99.084 22.6854 93.0577 20.6766C86.5292 18.1657 78.494 24.6941 75.4809 34.738Z" fill="#001922"/>
<path d="M40.3267 23.6874C45.3486 33.2291 44.8464 44.2773 38.3179 47.2905C32.2915 50.8059 22.7498 45.2818 17.7279 35.7401C12.706 26.1984 13.2082 15.15 19.7367 12.1369C26.2652 8.62152 35.3047 14.1457 40.3267 23.6874Z" fill="#001922"/>
<path d="M45.8508 21.6791C47.3574 32.7274 54.3881 40.7625 61.4188 39.7581C68.4495 38.7537 72.9693 29.2121 71.4627 18.1638C69.9561 7.11551 62.9254 -0.919627 55.8947 0.0847619C48.864 1.08915 44.3442 11.1331 45.8508 21.6791Z" fill="#001922"/>
</svg>
