<svg width="1732" height="74" viewBox="0 0 1732 74" fill="none" xmlns="http://www.w3.org/2000/svg">
<path d="M1731.62 0H0V21.549H1731.62V0Z" fill="#141414"/>
<path d="M1731.62 0H0V6.54171H1731.62V0Z" fill="#141414"/>
<path d="M32.3235 21.5464L0 53.8699V51.1763L29.6299 21.5464H32.3235Z" fill="#646464"/>
<path d="M29.6299 16.5449L0 46.1747V28.8586L12.3137 16.5449H29.6299Z" fill="#646464"/>
<path d="M29.6299 16.5449V21.5473L0 51.1772V46.1747L29.6299 16.5449Z" fill="#646464"/>
<path d="M0 38.0938C1.15441 36.9394 2.30882 36.1699 3.07843 35.0154C4.61764 33.4762 6.54166 31.937 8.08087 30.7826C11.1593 28.089 14.6225 25.3954 17.3162 23.4713C22.7034 19.2385 26.5514 16.5449 26.5514 16.5449C26.5514 16.5449 23.0882 19.6233 17.701 23.8562C15.0073 26.165 11.9289 28.4738 8.46568 31.1674C6.92646 32.7066 5.00245 33.8611 3.46323 35.4003C2.30882 36.5547 1.15441 37.709 0 38.4787V38.0938H0Z" fill="#646464"/>
<path d="M0 31.9371C2.30882 29.2434 4.61764 26.9345 6.54166 24.6257C8.85048 21.9321 11.1593 20.0081 12.3137 18.8536C13.8529 17.3144 14.6225 16.5449 14.6225 16.5449C14.6225 16.5449 13.8529 17.3145 12.3137 18.4689C11.5441 19.2385 10.7745 20.0081 9.62009 20.7777C8.46568 21.5473 7.31127 22.7018 6.15686 24.241C4.23284 26.165 2.30882 28.4738 0 31.1674V31.9371Z" fill="#646464"/>
<path d="M29.6299 16.5454L0 46.1752V44.2512L27.7059 16.5454H29.6299Z" fill="#646464"/>
<path d="M26.5525 73.4949H23.8589L75.8074 21.5464H78.501L26.5525 73.4949Z" fill="#646464"/>
<path d="M75.8076 16.5449H58.8762L6.54297 68.4934H23.8591L75.8076 16.5449Z" fill="#646464"/>
<path d="M75.8074 21.5473V16.5449L23.8589 68.4934V73.4958L75.8074 21.5473Z" fill="#646464"/>
<path d="M21.5498 68.4934C21.5498 68.4934 22.3194 67.3389 23.089 65.7997C24.2434 64.2605 25.3978 61.5669 27.7067 58.8733C28.8611 57.3341 30.0155 56.1796 31.1699 54.2556C32.3243 52.7164 33.8635 51.1771 35.0179 49.6379C36.5571 48.0987 37.7116 46.1747 39.6356 44.6355C41.1748 43.0963 42.714 41.1723 44.638 39.6331C46.1772 38.0939 48.1012 36.5547 49.6405 35.0154C51.1797 33.4762 53.1037 31.937 54.6429 30.7826C57.7213 28.089 61.1846 25.3954 63.8782 23.4713C69.2654 19.2385 73.1135 16.5449 73.1135 16.5449C73.1135 16.5449 69.6502 19.2385 64.263 23.8562C61.5694 26.165 58.4909 28.4738 55.0277 31.1674C53.4885 32.7066 51.5645 33.8611 50.0253 35.4003C48.486 36.9395 46.562 38.4786 45.0228 40.0178C43.4836 41.5571 41.9444 43.0963 40.0204 44.6355C38.4812 46.1747 36.9419 47.7139 35.4027 49.6379C33.8635 51.1771 32.7091 52.7164 31.1699 54.2556C30.0155 55.7948 28.8611 57.3341 27.7067 58.4885C25.3978 61.1821 24.2434 63.8757 23.089 65.4149C22.3194 67.3389 21.5498 68.4934 21.5498 68.4934Z" fill="#646464"/>
<path d="M60.8005 16.5449C60.8005 16.5449 60.0309 17.3144 58.4917 18.8536C56.9525 20.3929 54.6437 21.9321 52.7196 24.6257C50.4108 27.3193 47.7172 30.013 45.0236 33.4763C42.33 36.5547 39.2515 40.4026 36.1731 43.8659C34.6339 45.7899 33.0947 47.3292 31.5555 49.2532C30.0162 51.1772 28.477 52.7164 26.9378 54.2556C25.3986 55.7948 24.2442 57.3341 22.705 58.4885C21.1658 59.6429 19.6266 61.1821 18.4721 61.9517C17.3177 63.1061 15.7785 63.8758 14.6241 64.6454C13.4697 65.415 12.3153 66.1846 11.5457 66.5694C10.0065 67.7238 8.85205 68.1086 8.85205 68.1086C8.85205 68.1086 9.62166 67.339 11.5457 66.1846C12.3153 65.4149 13.4697 65.0301 14.6241 64.2605C15.7785 63.4909 16.9329 62.7212 18.4721 61.182C19.6266 60.0276 21.1658 58.8732 22.705 57.334C24.2442 56.1796 25.3986 54.6405 26.9378 53.1013C28.477 51.562 30.0162 50.0228 31.5555 48.0987C33.0947 46.5595 34.6339 44.6356 36.1731 43.0963C39.2515 39.6331 41.9452 36.1698 45.0236 32.7066C47.7172 29.2434 50.4108 26.165 52.7196 23.8562C53.8741 22.7018 55.0285 21.5474 56.1829 20.393C57.3373 19.6233 58.1069 18.4689 58.8765 18.0841C60.0309 17.3145 60.8005 16.5449 60.8005 16.5449Z" fill="#646464"/>
<path d="M23.8588 68.4939H21.9348L73.8833 16.5454H75.8073L23.8588 68.4939Z" fill="#646464"/>
<path d="M23.8589 68.4941H6.54272V73.4965H23.8589V68.4941Z" fill="#646464"/>
<path d="M73.1131 73.4949H70.0347L121.983 21.5464H125.062L73.1131 73.4949Z" fill="#646464"/>
<path d="M121.983 16.5449H105.052L52.7188 68.4934H70.0349L121.983 16.5449Z" fill="#646464"/>
<path d="M121.983 21.5473V16.5449L70.0347 68.4934V73.4958L121.983 21.5473Z" fill="#646464"/>
<path d="M67.7256 68.4934C67.7256 68.4934 68.4952 67.3389 69.2648 65.7997C70.4192 64.2605 71.5736 61.5669 73.8824 58.8733C75.0369 57.3341 76.1913 56.1796 77.3457 54.2556C78.5001 52.7164 80.0393 51.1771 81.1937 49.6379C82.7329 48.0987 83.8873 46.1747 85.8113 44.6355C87.3506 43.0963 88.8898 41.1723 90.8138 39.6331C92.353 38.0939 94.277 36.5547 95.8162 35.0154C97.3554 33.4762 99.2795 31.937 100.819 30.7826C103.897 28.089 107.36 25.3954 110.054 23.4713C115.441 19.2385 119.289 16.5449 119.289 16.5449C119.289 16.5449 115.826 19.2385 110.439 23.8562C107.745 26.165 104.667 28.4738 101.203 31.1674C99.6643 32.7066 97.7403 33.8611 96.201 35.4003C94.6618 36.9395 92.7378 38.4786 91.1986 40.0178C89.6594 41.5571 88.1202 43.0963 86.1961 44.6355C84.6569 46.1747 83.1177 47.7139 81.5785 49.6379C80.0393 51.1771 78.8849 52.7164 77.3457 54.2556C76.1913 55.7948 75.0369 57.3341 73.8824 58.4885C71.5736 61.1821 70.4192 63.8757 69.2648 65.4149C68.4952 67.3389 67.7256 68.4934 67.7256 68.4934Z" fill="#646464"/>
<path d="M106.976 16.5449C106.976 16.5449 106.207 17.3144 104.667 18.8536C103.128 20.3929 100.819 21.9321 98.8954 24.6257C96.5866 27.3193 93.893 30.013 91.1994 33.4763C88.5057 36.5547 85.4273 40.4026 82.3489 43.8659C80.8097 45.7899 79.2705 47.3292 77.7312 49.2532C76.192 51.1772 74.6528 52.7164 73.1136 54.2556C71.5744 55.7948 70.42 57.3341 68.8808 58.4885C67.3415 59.6429 65.8023 61.1821 64.6479 61.9517C63.4935 63.1061 61.9543 63.8758 60.7999 64.6454C59.6455 65.415 58.4911 66.1846 57.7215 66.5694C56.1822 67.7238 55.0278 68.1086 55.0278 68.1086C55.0278 68.1086 55.7974 67.339 57.7215 66.1846C58.4911 65.4149 59.6455 65.0301 60.7999 64.2605C61.9543 63.4909 63.1087 62.7212 64.6479 61.182C65.8023 60.0276 67.3415 58.8732 68.8808 57.334C70.42 56.1796 71.5744 54.6405 73.1136 53.1013C74.6528 51.562 76.192 50.0228 77.7312 48.0987C79.2705 46.5595 80.8097 44.6356 82.3489 43.0963C85.4273 39.6331 88.1209 36.1698 91.1994 32.7066C93.893 29.2434 96.5866 26.165 98.8954 23.8562C100.05 22.7018 101.204 21.5474 102.359 20.393C103.513 19.6233 104.283 18.4689 105.052 18.0841C106.207 17.3145 106.976 16.5449 106.976 16.5449Z" fill="#646464"/>
<path d="M70.0349 68.4939H68.1108L120.059 16.5454H121.983L70.0349 68.4939Z" fill="#646464"/>
<path d="M70.0352 68.4941H52.719V73.4965H70.0352V68.4941Z" fill="#646464"/>
<path d="M119.287 73.4949H116.209L168.542 21.5464H171.236L119.287 73.4949Z" fill="#646464"/>
<path d="M168.543 16.5449H151.227L99.2781 68.4934H116.209L168.543 16.5449Z" fill="#646464"/>
<path d="M168.542 21.5473V16.5449L116.209 68.4934V73.4958L168.542 21.5473Z" fill="#646464"/>
<path d="M113.9 68.4934C113.9 68.4934 114.67 67.3389 115.439 65.7997C116.594 64.2605 117.748 61.5669 120.057 58.8733C121.211 57.3341 122.366 56.1796 123.52 54.2556C124.674 52.7164 126.214 51.1771 127.368 49.6379C128.907 48.0987 130.062 46.1747 131.986 44.6355C133.525 43.0963 135.064 41.1723 136.988 39.6331C138.527 38.0939 140.451 36.5547 141.991 35.0154C143.53 33.4762 145.454 31.937 146.993 30.7826C150.071 28.089 153.535 25.3954 156.228 23.4713C161.616 19.2385 165.464 16.5449 165.464 16.5449C165.464 16.5449 162 19.2385 156.613 23.8562C153.919 26.165 150.841 28.4738 147.378 31.1674C145.839 32.7066 143.915 33.8611 142.375 35.4003C140.836 36.9395 138.912 38.4786 137.373 40.0178C135.834 41.5571 134.294 43.0963 132.37 44.6355C130.831 46.1747 129.292 47.7139 127.753 49.6379C126.214 51.1771 125.059 52.7164 123.52 54.2556C122.366 55.7948 121.211 57.3341 120.057 58.4885C117.748 61.1821 116.594 63.8757 115.439 65.4149C114.67 67.3389 113.9 68.4934 113.9 68.4934Z" fill="#646464"/>
<path d="M153.536 16.5449C153.536 16.5449 152.766 17.3144 151.227 18.8536C149.688 20.3929 147.379 21.9321 145.455 24.6257C143.146 27.3193 140.452 30.013 137.759 33.4763C135.065 36.5547 131.987 40.4026 128.908 43.8659C127.369 45.7899 125.83 47.3292 124.291 49.2532C122.751 51.1772 121.212 52.7164 119.673 54.2556C118.134 55.7948 116.979 57.3341 115.44 58.4885C113.901 59.6429 112.362 61.1821 111.207 61.9517C110.053 63.1061 108.514 63.8758 107.359 64.6454C106.205 65.415 105.05 66.1846 104.281 66.5694C102.742 67.7238 101.587 68.1086 101.587 68.1086C101.587 68.1086 102.357 67.339 104.281 66.1846C105.05 65.4149 106.205 65.0301 107.359 64.2605C108.514 63.4909 109.668 62.7212 111.207 61.182C112.362 60.0276 113.901 58.8732 115.44 57.334C116.979 56.1796 118.134 54.6405 119.673 53.1013C121.212 51.562 122.751 50.0228 124.291 48.0987C125.83 46.5595 127.369 44.6356 128.908 43.0963C131.987 39.6331 134.68 36.1698 137.759 32.7066C140.452 29.2434 143.146 26.165 145.455 23.8562C146.609 22.7018 147.764 21.5474 148.918 20.393C150.072 19.6233 150.842 18.4689 151.612 18.0841C152.381 17.3145 153.536 16.5449 153.536 16.5449Z" fill="#646464"/>
<path d="M116.209 68.4939H114.285L166.618 16.5454H168.542L116.209 68.4939Z" fill="#646464"/>
<path d="M116.595 68.4941H99.2786V73.4965H116.595V68.4941Z" fill="#646464"/>
<path d="M165.465 73.4949H162.771L214.72 21.5464H217.414L165.465 73.4949Z" fill="#646464"/>
<path d="M214.72 16.5449H197.404L145.456 68.4934H162.772L214.72 16.5449Z" fill="#646464"/>
<path d="M214.72 21.5473V16.5449L162.771 68.4934V73.4958L214.72 21.5473Z" fill="#646464"/>
<path d="M160.077 68.4934C160.077 68.4934 160.847 67.3389 161.617 65.7997C162.771 64.2605 163.925 61.5669 166.234 58.8733C167.389 57.3341 168.543 56.1796 169.697 54.2556C170.852 52.7164 172.391 51.1771 173.546 49.6379C175.085 48.0987 176.239 46.1747 178.163 44.6355C179.702 43.0963 181.242 41.1723 183.166 39.6331C184.705 38.0939 186.629 36.5547 188.168 35.0154C189.707 33.4762 191.631 31.937 193.171 30.7826C196.249 28.089 199.712 25.3954 202.406 23.4713C207.793 19.2385 211.641 16.5449 211.641 16.5449C211.641 16.5449 208.178 19.2385 202.791 23.8562C200.097 26.165 197.019 28.4738 193.555 31.1674C192.016 32.7066 190.092 33.8611 188.553 35.4003C187.014 36.9395 185.09 38.4786 183.55 40.0178C182.011 41.5571 180.472 43.0963 178.548 44.6355C177.009 46.1747 175.47 47.7139 173.93 49.6379C172.391 51.1771 171.237 52.7164 169.697 54.2556C168.543 55.7948 167.389 57.3341 166.234 58.4885C163.925 61.1821 162.771 63.8757 161.617 65.4149C160.847 67.3389 160.462 68.4934 160.077 68.4934Z" fill="#646464"/>
<path d="M199.713 16.5449C199.713 16.5449 198.944 17.3144 197.404 18.8536C195.865 20.3929 193.556 21.9321 191.632 24.6257C189.323 27.3193 186.63 30.013 183.936 33.4763C181.243 36.5547 178.164 40.4026 175.086 43.8659C173.546 45.7899 172.007 47.3292 170.468 49.2532C168.929 51.1772 167.39 52.7164 165.85 54.2556C164.311 55.7948 163.157 57.3341 161.618 58.4885C160.078 59.6429 158.539 61.1821 157.385 61.9517C156.23 63.1061 154.691 63.8758 153.537 64.6454C152.382 65.415 151.228 66.1846 150.458 66.5694C148.919 67.7238 147.765 68.1086 147.765 68.1086C147.765 68.1086 148.534 67.339 150.458 66.1846C151.228 65.4149 152.382 65.0301 153.537 64.2605C154.691 63.4909 155.846 62.7212 157.385 61.182C158.539 60.0276 160.078 58.8732 161.618 57.334C163.157 56.1796 164.311 54.6405 165.85 53.1013C167.39 51.562 168.929 50.0228 170.468 48.0987C172.007 46.5595 173.546 44.6356 175.086 43.0963C178.164 39.6331 180.858 36.1698 183.936 32.7066C186.63 29.2434 189.323 26.165 191.632 23.8562C192.787 22.7018 193.941 21.5474 195.095 20.393C196.25 19.6233 197.019 18.4689 197.789 18.0841C198.944 17.3145 199.713 16.5449 199.713 16.5449Z" fill="#646464"/>
<path d="M162.771 68.4939H160.847L212.796 16.5454H214.72L162.771 68.4939Z" fill="#646464"/>
<path d="M162.771 68.4941H145.455V73.4965H162.771V68.4941Z" fill="#646464"/>
<path d="M211.641 73.4949H208.947L260.896 21.5464H263.589L211.641 73.4949Z" fill="#646464"/>
<path d="M260.896 16.5449H243.58L191.631 68.4934H208.948L260.896 16.5449Z" fill="#646464"/>
<path d="M260.896 21.5473V16.5449L208.947 68.4934V73.4958L260.896 21.5473Z" fill="#646464"/>
<path d="M206.638 68.4934C206.638 68.4934 207.408 67.3389 208.177 65.7997C209.332 64.2605 210.486 61.5669 212.795 58.8733C213.949 57.3341 215.104 56.1796 216.258 54.2556C217.413 52.7164 218.952 51.1771 220.106 49.6379C221.646 48.0987 222.8 46.1747 224.724 44.6355C226.263 43.0963 227.802 41.1723 229.726 39.6331C231.266 38.0939 233.19 36.5547 234.729 35.0154C236.268 33.4762 238.192 31.937 239.731 30.7826C242.81 28.089 246.273 25.3954 248.967 23.4713C254.354 19.2385 258.202 16.5449 258.202 16.5449C258.202 16.5449 254.739 19.2385 249.351 23.8562C246.658 26.165 243.579 28.4738 240.116 31.1674C238.577 32.7066 236.653 33.8611 235.114 35.4003C233.574 36.9395 231.65 38.4786 230.111 40.0178C228.572 41.5571 227.033 43.0963 225.109 44.6355C223.57 46.1747 222.03 47.7139 220.491 49.6379C218.952 51.1771 217.797 52.7164 216.258 54.2556C215.104 55.7948 213.949 57.3341 212.795 58.4885C210.486 61.1821 209.332 63.8757 208.177 65.4149C207.023 67.3389 206.638 68.4934 206.638 68.4934Z" fill="#646464"/>
<path d="M245.889 16.5449C245.889 16.5449 245.119 17.3144 243.58 18.8536C242.041 20.3929 239.732 21.9321 237.808 24.6257C235.499 27.3193 232.806 30.013 230.112 33.4763C227.418 36.5547 224.34 40.4026 221.261 43.8659C219.722 45.7899 218.183 47.3292 216.644 49.2532C215.105 51.1772 213.565 52.7164 212.026 54.2556C210.487 55.7948 209.333 57.3341 207.793 58.4885C206.254 59.6429 204.715 61.1821 203.561 61.9517C202.406 63.1061 200.867 63.8758 199.712 64.6454C198.558 65.415 197.404 66.1846 196.634 66.5694C195.095 67.7238 193.94 68.1086 193.94 68.1086C193.94 68.1086 194.71 67.339 196.634 66.1846C197.404 65.4149 198.558 65.0301 199.712 64.2605C200.867 63.4909 202.021 62.7212 203.561 61.182C204.715 60.0276 206.254 58.8732 207.793 57.334C209.333 56.1796 210.487 54.6405 212.026 53.1013C213.565 51.562 215.105 50.0228 216.644 48.0987C218.183 46.5595 219.722 44.6356 221.261 43.0963C224.34 39.6331 227.034 36.1698 230.112 32.7066C232.806 29.2434 235.499 26.165 237.808 23.8562C238.962 22.7018 240.117 21.5474 241.271 20.393C242.426 19.6233 243.195 18.4689 243.965 18.0841C245.119 17.3145 245.889 16.5449 245.889 16.5449Z" fill="#646464"/>
<path d="M208.947 68.4939H207.023L258.972 16.5454H260.896L208.947 68.4939Z" fill="#646464"/>
<path d="M208.948 68.4941H191.632V73.4965H208.948V68.4941Z" fill="#646464"/>
<path d="M257.818 73.4949H255.124L307.072 21.5464H309.766L257.818 73.4949Z" fill="#646464"/>
<path d="M307.072 16.5449H290.141L237.807 68.4934H255.124L307.072 16.5449Z" fill="#646464"/>
<path d="M307.072 21.5473V16.5449L255.124 68.4934V73.4958L307.072 21.5473Z" fill="#646464"/>
<path d="M252.814 68.4934C252.814 68.4934 253.584 67.3389 254.353 65.7997C255.508 64.2605 256.662 61.5669 258.971 58.8733C260.125 57.3341 261.28 56.1796 262.434 54.2556C263.589 52.7164 265.128 51.1771 266.282 49.6379C267.822 48.0987 268.976 46.1747 270.9 44.6355C272.439 43.0963 273.978 41.1723 275.902 39.6331C277.442 38.0939 279.366 36.5547 280.905 35.0154C282.444 33.4762 284.368 31.937 285.907 30.7826C288.986 28.089 292.449 25.3954 295.143 23.4713C300.53 19.2385 304.378 16.5449 304.378 16.5449C304.378 16.5449 300.915 19.2385 295.527 23.8562C292.834 26.165 289.755 28.4738 286.292 31.1674C284.753 32.7066 282.829 33.8611 281.29 35.4003C279.75 36.9395 277.826 38.4786 276.287 40.0178C274.748 41.5571 273.209 43.0963 271.285 44.6355C269.746 46.1747 268.206 47.7139 266.667 49.6379C265.128 51.1771 263.974 52.7164 262.434 54.2556C261.28 55.7948 260.125 57.3341 258.971 58.4885C256.662 61.1821 255.508 63.8757 254.353 65.4149C253.584 67.3389 252.814 68.4934 252.814 68.4934Z" fill="#646464"/>
<path d="M292.066 16.5449C292.066 16.5449 291.296 17.3144 289.757 18.8536C288.218 20.3929 285.909 21.9321 283.985 24.6257C281.676 27.3193 278.982 30.013 276.289 33.4763C273.595 36.5547 270.517 40.4026 267.438 43.8659C265.899 45.7899 264.36 47.3292 262.821 49.2532C261.281 51.1772 259.742 52.7164 258.203 54.2556C256.664 55.7948 255.509 57.3341 253.97 58.4885C252.431 59.6429 250.892 61.1821 249.737 61.9517C248.583 63.1061 247.044 63.8758 245.889 64.6454C244.735 65.415 243.58 66.1846 242.811 66.5694C241.272 67.7238 240.117 68.1086 240.117 68.1086C240.117 68.1086 240.887 67.339 242.811 66.1846C243.58 65.4149 244.735 65.0301 245.889 64.2605C247.044 63.4909 248.198 62.7212 249.737 61.182C250.892 60.0276 252.431 58.8732 253.97 57.334C255.509 56.1796 256.664 54.6405 258.203 53.1013C259.742 51.562 261.281 50.0228 262.821 48.0987C264.36 46.5595 265.899 44.6356 267.438 43.0963C270.517 39.6331 273.21 36.1698 276.289 32.7066C278.982 29.2434 281.676 26.165 283.985 23.8562C285.139 22.7018 286.294 21.5474 287.448 20.393C288.602 19.6233 289.372 18.4689 290.142 18.0841C291.296 17.3145 292.066 16.5449 292.066 16.5449Z" fill="#646464"/>
<path d="M255.124 68.4939H253.2L305.149 16.5454H307.073L255.124 68.4939Z" fill="#646464"/>
<path d="M255.124 68.4941H237.807V73.4965H255.124V68.4941Z" fill="#646464"/>
<path d="M304.378 73.4949H301.3L353.249 21.5464H356.327L304.378 73.4949Z" fill="#646464"/>
<path d="M353.248 16.5449H336.317L283.983 68.4934H301.3L353.248 16.5449Z" fill="#646464"/>
<path d="M353.249 21.5473V16.5449L301.3 68.4934V73.4958L353.249 21.5473Z" fill="#646464"/>
<path d="M298.99 68.4934C298.99 68.4934 299.76 67.3389 300.529 65.7997C301.684 64.2605 302.838 61.5669 305.147 58.8733C306.302 57.3341 307.456 56.1796 308.61 54.2556C309.765 52.7164 311.304 51.1771 312.458 49.6379C313.998 48.0987 315.152 46.1747 317.076 44.6355C318.615 43.0963 320.154 41.1723 322.078 39.6331C323.618 38.0939 325.542 36.5547 327.081 35.0154C328.62 33.4762 330.544 31.937 332.083 30.7826C335.162 28.089 338.625 25.3954 341.319 23.4713C346.706 19.2385 350.554 16.5449 350.554 16.5449C350.554 16.5449 347.091 19.2385 341.703 23.8562C339.01 26.165 335.931 28.4738 332.468 31.1674C330.929 32.7066 329.005 33.8611 327.466 35.4003C325.926 36.9395 324.002 38.4786 322.463 40.0178C320.924 41.5571 319.385 43.0963 317.461 44.6355C315.922 46.1747 314.382 47.7139 312.843 49.6379C311.304 51.1771 310.15 52.7164 308.61 54.2556C307.456 55.7948 306.302 57.3341 305.147 58.4885C302.838 61.1821 301.684 63.8757 300.529 65.4149C299.76 67.3389 298.99 68.4934 298.99 68.4934Z" fill="#646464"/>
<path d="M338.241 16.5449C338.241 16.5449 337.471 17.3144 335.932 18.8536C334.393 20.3929 332.084 21.9321 330.16 24.6257C327.851 27.3193 325.158 30.013 322.464 33.4763C319.77 36.5547 316.692 40.4026 313.614 43.8659C312.074 45.7899 310.535 47.3292 308.996 49.2532C307.457 51.1772 305.917 52.7164 304.378 54.2556C302.839 55.7948 301.685 57.3341 300.145 58.4885C298.606 59.6429 297.067 61.1821 295.913 61.9517C294.758 63.1061 293.219 63.8758 292.065 64.6454C290.91 65.415 289.756 66.1846 288.986 66.5694C287.447 67.7238 286.292 68.1086 286.292 68.1086C286.292 68.1086 287.062 67.339 288.986 66.1846C289.756 65.4149 290.91 65.0301 292.065 64.2605C293.219 63.4909 294.373 62.7212 295.913 61.182C297.067 60.0276 298.606 58.8732 300.145 57.334C301.685 56.1796 302.839 54.6405 304.378 53.1013C305.917 51.562 307.457 50.0228 308.996 48.0987C310.535 46.5595 312.074 44.6356 313.614 43.0963C316.692 39.6331 319.386 36.1698 322.464 32.7066C325.158 29.2434 327.851 26.165 330.16 23.8562C331.314 22.7018 332.469 21.5474 333.623 20.393C334.778 19.6233 335.547 18.4689 336.317 18.0841C337.471 17.3145 338.241 16.5449 338.241 16.5449Z" fill="#646464"/>
<path d="M301.3 68.4939H299.375L351.324 16.5454H353.248L301.3 68.4939Z" fill="#646464"/>
<path d="M301.3 68.4941H283.984V73.4965H301.3V68.4941Z" fill="#646464"/>
<path d="M350.554 73.4949H347.476L399.809 21.5464H402.503L350.554 73.4949Z" fill="#646464"/>
<path d="M399.81 16.5449H382.494L330.545 68.4934H347.477L399.81 16.5449Z" fill="#646464"/>
<path d="M399.809 21.5473V16.5449L347.476 68.4934V73.4958L399.809 21.5473Z" fill="#646464"/>
<path d="M345.167 68.4934C345.167 68.4934 345.937 67.3389 346.706 65.7997C347.861 64.2605 349.015 61.5669 351.324 58.8733C352.479 57.3341 353.633 56.1796 354.787 54.2556C355.942 52.7164 357.481 51.1771 358.635 49.6379C360.175 48.0987 361.329 46.1747 363.253 44.6355C364.792 43.0963 366.331 41.1723 368.255 39.6331C369.795 38.0939 371.719 36.5547 373.258 35.0154C374.797 33.4762 376.721 31.937 378.26 30.7826C381.339 28.089 384.802 25.3954 387.496 23.4713C392.883 19.2385 396.731 16.5449 396.731 16.5449C396.731 16.5449 393.268 19.2385 387.88 23.8562C385.187 26.165 382.108 28.4738 378.645 31.1674C377.106 32.7066 375.182 33.8611 373.643 35.4003C372.103 36.9395 370.179 38.4786 368.64 40.0178C367.101 41.5571 365.562 43.0963 363.638 44.6355C362.099 46.1747 360.559 47.7139 359.02 49.6379C357.481 51.1771 356.327 52.7164 354.787 54.2556C353.633 55.7948 352.479 57.3341 351.324 58.4885C349.015 61.1821 347.861 63.8757 346.706 65.4149C345.937 67.3389 345.167 68.4934 345.167 68.4934Z" fill="#646464"/>
<path d="M384.803 16.5449C384.803 16.5449 384.033 17.3144 382.494 18.8536C380.955 20.3929 378.646 21.9321 376.722 24.6257C374.413 27.3193 371.72 30.013 369.026 33.4763C366.332 36.5547 363.254 40.4026 360.176 43.8659C358.636 45.7899 357.097 47.3292 355.558 49.2532C354.019 51.1772 352.479 52.7164 350.94 54.2556C349.401 55.7948 348.247 57.3341 346.707 58.4885C345.168 59.6429 343.629 61.1821 342.475 61.9517C341.32 63.1061 339.781 63.8758 338.627 64.6454C337.472 65.415 336.318 66.1846 335.548 66.5694C334.009 67.7238 332.854 68.1086 332.854 68.1086C332.854 68.1086 333.624 67.339 335.548 66.1846C336.318 65.4149 337.472 65.0301 338.627 64.2605C339.781 63.4909 340.935 62.7212 342.475 61.182C343.629 60.0276 345.168 58.8732 346.707 57.334C348.247 56.1796 349.401 54.6405 350.94 53.1013C352.479 51.562 354.019 50.0228 355.558 48.0987C357.097 46.5595 358.636 44.6356 360.176 43.0963C363.254 39.6331 365.948 36.1698 369.026 32.7066C371.72 29.2434 374.413 26.165 376.722 23.8562C377.877 22.7018 379.031 21.5474 380.185 20.393C381.34 19.6233 382.109 18.4689 382.879 18.0841C383.649 17.3145 384.803 16.5449 384.803 16.5449Z" fill="#646464"/>
<path d="M347.477 68.4939H345.552L397.886 16.5454H399.81L347.477 68.4939Z" fill="#646464"/>
<path d="M347.862 68.4941H330.546V73.4965H347.862V68.4941Z" fill="#646464"/>
<path d="M396.733 73.4949H394.039L445.988 21.5464H448.681L396.733 73.4949Z" fill="#646464"/>
<path d="M445.988 16.5449H428.672L376.723 68.4934H394.039L445.988 16.5449Z" fill="#646464"/>
<path d="M445.988 21.5473V16.5449L394.039 68.4934V73.4958L445.988 21.5473Z" fill="#646464"/>
<path d="M391.345 68.4934C391.345 68.4934 392.115 67.3389 392.884 65.7997C394.039 64.2605 395.193 61.5669 397.502 58.8733C398.656 57.3341 399.811 56.1796 400.965 54.2556C402.119 52.7164 403.659 51.1771 404.813 49.6379C406.352 48.0987 407.892 46.1747 409.431 44.6355C410.97 43.0963 412.509 41.1723 414.433 39.6331C415.972 38.0939 417.896 36.5547 419.436 35.0154C420.975 33.4762 422.899 31.937 424.438 30.7826C427.517 28.089 430.98 25.3954 433.673 23.4713C439.061 19.2385 442.909 16.5449 442.909 16.5449C442.909 16.5449 439.445 19.2385 434.058 23.8562C431.365 26.165 428.286 28.4738 424.823 31.1674C423.284 32.7066 421.36 33.8611 419.82 35.4003C418.281 36.9395 416.357 38.4786 414.818 40.0178C413.279 41.5571 411.74 43.0963 409.816 44.6355C408.276 46.1747 406.737 47.7139 405.198 49.6379C403.659 51.1771 402.504 52.7164 400.965 54.2556C399.811 55.7948 398.656 57.3341 397.502 58.4885C395.193 61.1821 394.039 63.8757 392.884 65.4149C392.115 67.3389 391.73 68.4934 391.345 68.4934Z" fill="#646464"/>
<path d="M430.981 16.5449C430.981 16.5449 430.211 17.3144 428.672 18.8536C427.133 20.3929 424.824 21.9321 422.9 24.6257C420.591 27.3193 417.897 30.013 415.204 33.4763C412.51 36.5547 409.432 40.4026 406.353 43.8659C404.814 45.7899 403.275 47.3292 401.736 49.2532C400.196 51.1772 398.657 52.7164 397.118 54.2556C395.579 55.7948 394.424 57.3341 392.885 58.4885C391.346 59.6429 389.807 61.1821 388.652 61.9517C387.498 63.1061 385.959 63.8758 384.804 64.6454C383.65 65.415 382.495 66.1846 381.726 66.5694C380.187 67.7238 379.032 68.1086 379.032 68.1086C379.032 68.1086 379.802 67.339 381.726 66.1846C382.495 65.4149 383.65 65.0301 384.804 64.2605C385.959 63.4909 387.113 62.7212 388.652 61.182C389.807 60.0276 391.346 58.8732 392.885 57.334C394.424 56.1796 395.579 54.6405 397.118 53.1013C398.657 51.562 400.196 50.0228 401.736 48.0987C403.275 46.5595 404.814 44.6356 406.353 43.0963C409.432 39.6331 412.125 36.1698 415.204 32.7066C417.897 29.2434 420.591 26.165 422.9 23.8562C424.054 22.7018 425.209 21.5474 426.363 20.393C427.517 19.6233 428.287 18.4689 429.057 18.0841C430.211 17.3145 430.981 16.5449 430.981 16.5449Z" fill="#646464"/>
<path d="M394.039 68.4939H392.115L444.063 16.5454H445.987L394.039 68.4939Z" fill="#646464"/>
<path d="M394.039 68.4941H376.723V73.4965H394.039V68.4941Z" fill="#646464"/>
<path d="M442.908 73.4949H440.215L492.163 21.5464H494.857L442.908 73.4949Z" fill="#646464"/>
<path d="M492.164 16.5449H474.847L422.899 68.4934H440.215L492.164 16.5449Z" fill="#646464"/>
<path d="M492.163 21.5473V16.5449L440.215 68.4934V73.4958L492.163 21.5473Z" fill="#646464"/>
<path d="M437.906 68.4934C437.906 68.4934 438.675 67.3389 439.445 65.7997C440.599 64.2605 441.754 61.5669 444.063 58.8733C445.217 57.3341 446.371 56.1796 447.526 54.2556C448.68 52.7164 450.219 51.1771 451.374 49.6379C452.913 48.0987 454.067 46.1747 455.992 44.6355C457.531 43.0963 459.07 41.1723 460.994 39.6331C462.533 38.0939 464.457 36.5547 465.996 35.0154C467.536 33.4762 469.46 31.937 470.999 30.7826C474.077 28.089 477.541 25.3954 480.234 23.4713C485.621 19.2385 489.469 16.5449 489.469 16.5449C489.469 16.5449 486.006 19.2385 480.619 23.8562C477.925 26.165 474.847 28.4738 471.384 31.1674C469.844 32.7066 467.92 33.8611 466.381 35.4003C464.842 36.9395 462.918 38.4786 461.379 40.0178C459.84 41.5571 458.3 43.0963 456.376 44.6355C454.837 46.1747 453.298 47.7139 451.759 49.6379C450.219 51.1771 449.065 52.7164 447.526 54.2556C446.371 55.7948 445.217 57.3341 444.063 58.4885C441.754 61.1821 440.599 63.8757 439.445 65.4149C438.291 67.3389 437.906 68.4934 437.906 68.4934Z" fill="#646464"/>
<path d="M477.156 16.5449C477.156 16.5449 476.387 17.3144 474.848 18.8536C473.308 20.3929 471 21.9321 469.076 24.6257C466.767 27.3193 464.073 30.013 461.38 33.4763C458.686 36.5547 455.607 40.4026 452.529 43.8659C450.99 45.7899 449.451 47.3292 447.911 49.2532C446.372 51.1772 444.833 52.7164 443.294 54.2556C441.755 55.7948 440.6 57.3341 439.061 58.4885C437.522 59.6429 435.983 61.1821 434.828 61.9517C433.674 63.1061 432.134 63.8758 430.98 64.6454C429.826 65.415 428.671 66.1846 427.902 66.5694C426.362 67.7238 425.208 68.1086 425.208 68.1086C425.208 68.1086 425.978 67.339 427.902 66.1846C428.671 65.4149 429.826 65.0301 430.98 64.2605C432.134 63.4909 433.289 62.7212 434.828 61.182C435.983 60.0276 437.522 58.8732 439.061 57.334C440.6 56.1796 441.755 54.6405 443.294 53.1013C444.833 51.562 446.372 50.0228 447.911 48.0987C449.451 46.5595 450.99 44.6356 452.529 43.0963C455.607 39.6331 458.301 36.1698 461.38 32.7066C464.073 29.2434 466.767 26.165 469.076 23.8562C470.23 22.7018 471.384 21.5474 472.539 20.393C473.693 19.6233 474.463 18.4689 475.232 18.0841C476.387 17.3145 477.156 16.5449 477.156 16.5449Z" fill="#646464"/>
<path d="M440.215 68.4939H438.291L490.239 16.5454H492.163L440.215 68.4939Z" fill="#646464"/>
<path d="M440.215 68.4941H422.899V73.4965H440.215V68.4941Z" fill="#646464"/>
<path d="M489.085 73.4949H486.391L538.34 21.5464H541.033L489.085 73.4949Z" fill="#646464"/>
<path d="M538.339 16.5449H521.408L469.075 68.4934H486.391L538.339 16.5449Z" fill="#646464"/>
<path d="M538.34 21.5473V16.5449L486.391 68.4934V73.4958L538.34 21.5473Z" fill="#646464"/>
<path d="M484.082 68.4934C484.082 68.4934 484.852 67.3389 485.621 65.7997C486.776 64.2605 487.93 61.5669 490.239 58.8733C491.394 57.3341 492.548 56.1796 493.702 54.2556C494.857 52.7164 496.396 51.1771 497.55 49.6379C499.09 48.0987 500.244 46.1747 502.168 44.6355C503.707 43.0963 505.246 41.1723 507.17 39.6331C508.71 38.0939 510.634 36.5547 512.173 35.0154C513.712 33.4762 515.636 31.937 517.175 30.7826C520.254 28.089 523.717 25.3954 526.411 23.4713C531.798 19.2385 535.646 16.5449 535.646 16.5449C535.646 16.5449 532.183 19.2385 526.795 23.8562C524.102 26.165 521.023 28.4738 517.56 31.1674C516.021 32.7066 514.097 33.8611 512.558 35.4003C511.018 36.9395 509.094 38.4786 507.555 40.0178C506.016 41.5571 504.477 43.0963 502.553 44.6355C501.014 46.1747 499.474 47.7139 497.935 49.6379C496.396 51.1771 495.242 52.7164 493.702 54.2556C492.548 55.7948 491.394 57.3341 490.239 58.4885C487.93 61.1821 486.776 63.8757 485.621 65.4149C484.852 67.3389 484.082 68.4934 484.082 68.4934Z" fill="#646464"/>
<path d="M523.333 16.5449C523.333 16.5449 522.563 17.3144 521.024 18.8536C519.485 20.3929 517.176 21.9321 515.252 24.6257C512.943 27.3193 510.25 30.013 507.556 33.4763C504.862 36.5547 501.784 40.4026 498.706 43.8659C497.166 45.7899 495.627 47.3292 494.088 49.2532C492.549 51.1772 491.009 52.7164 489.47 54.2556C487.931 55.7948 486.777 57.3341 485.237 58.4885C483.698 59.6429 482.159 61.1821 481.005 61.9517C479.85 63.1061 478.311 63.8758 477.157 64.6454C476.002 65.415 474.848 66.1846 474.078 66.5694C472.539 67.7238 471.385 68.1086 471.385 68.1086C471.385 68.1086 472.154 67.339 474.078 66.1846C474.848 65.4149 476.002 65.0301 477.157 64.2605C478.311 63.4909 479.465 62.7212 481.005 61.182C482.159 60.0276 483.698 58.8732 485.237 57.334C486.777 56.1796 487.931 54.6405 489.47 53.1013C491.009 51.562 492.549 50.0228 494.088 48.0987C495.627 46.5595 497.166 44.6356 498.706 43.0963C501.784 39.6331 504.478 36.1698 507.556 32.7066C510.25 29.2434 512.943 26.165 515.252 23.8562C516.407 22.7018 517.561 21.5474 518.715 20.393C519.87 19.6233 520.639 18.4689 521.409 18.0841C522.563 17.3145 523.333 16.5449 523.333 16.5449Z" fill="#646464"/>
<path d="M486.391 68.4939H484.467L536.416 16.5454H538.34L486.391 68.4939Z" fill="#646464"/>
<path d="M486.391 68.4941H469.075V73.4965H486.391V68.4941Z" fill="#646464"/>
<path d="M535.646 73.4949H532.568L584.516 21.5464H587.595L535.646 73.4949Z" fill="#646464"/>
<path d="M584.516 16.5449H567.584L515.251 68.4934H532.567L584.516 16.5449Z" fill="#646464"/>
<path d="M584.516 21.5473V16.5449L532.568 68.4934V73.4958L584.516 21.5473Z" fill="#646464"/>
<path d="M530.258 68.4934C530.258 68.4934 531.027 67.3389 531.797 65.7997C532.951 64.2605 534.106 61.5669 536.415 58.8733C537.569 57.3341 538.723 56.1796 539.878 54.2556C541.032 52.7164 542.572 51.1771 543.726 49.6379C545.265 48.0987 546.804 46.1747 548.344 44.6355C549.883 43.0963 551.422 41.1723 553.346 39.6331C554.885 38.0939 556.809 36.5547 558.348 35.0154C559.888 33.4762 561.812 31.937 563.351 30.7826C566.429 28.089 569.893 25.3954 572.586 23.4713C577.973 19.2385 581.821 16.5449 581.821 16.5449C581.821 16.5449 578.358 19.2385 572.971 23.8562C570.277 26.165 567.199 28.4738 563.736 31.1674C562.196 32.7066 560.272 33.8611 558.733 35.4003C557.194 36.9395 555.27 38.4786 553.731 40.0178C552.192 41.5571 550.652 43.0963 548.728 44.6355C547.189 46.1747 545.65 47.7139 544.111 49.6379C542.571 51.1771 541.417 52.7164 539.878 54.2556C538.723 55.7948 537.569 57.3341 536.415 58.4885C534.106 61.1821 532.951 63.8757 531.797 65.4149C531.027 67.3389 530.258 68.4934 530.258 68.4934Z" fill="#646464"/>
<path d="M569.509 16.5449C569.509 16.5449 568.74 17.3144 567.2 18.8536C565.661 20.3929 563.352 21.9321 561.428 24.6257C559.12 27.3193 556.426 30.013 553.732 33.4763C551.039 36.5547 547.96 40.4026 544.882 43.8659C543.343 45.7899 541.803 47.3292 540.264 49.2532C538.725 51.1772 537.186 52.7164 535.647 54.2556C534.107 55.7948 532.953 57.3341 531.414 58.4885C529.875 59.6429 528.335 61.1821 527.181 61.9517C526.026 63.1061 524.487 63.8758 523.333 64.6454C522.178 65.415 521.024 66.1846 520.254 66.5694C518.715 67.7238 517.561 68.1086 517.561 68.1086C517.561 68.1086 518.33 67.339 520.254 66.1846C521.024 65.4149 522.178 65.0301 523.333 64.2605C524.487 63.4909 525.642 62.7212 527.181 61.182C528.335 60.0276 529.875 58.8732 531.414 57.334C532.953 56.1796 534.107 54.6405 535.647 53.1013C537.186 51.562 538.725 50.0228 540.264 48.0987C541.803 46.5595 543.343 44.6356 544.882 43.0963C547.96 39.6331 550.654 36.1698 553.732 32.7066C556.426 29.2434 559.12 26.165 561.428 23.8562C562.583 22.7018 563.737 21.5474 564.892 20.393C566.046 19.6233 566.816 18.4689 567.585 18.0841C568.74 17.3145 569.509 16.5449 569.509 16.5449Z" fill="#646464"/>
<path d="M532.568 68.4939H530.644L582.592 16.5454H584.516L532.568 68.4939Z" fill="#646464"/>
<path d="M532.567 68.4941H515.251V73.4965H532.567V68.4941Z" fill="#646464"/>
<path d="M581.822 73.4949H578.744L631.077 21.5464H633.771L581.822 73.4949Z" fill="#646464"/>
<path d="M631.078 16.5449H613.761L561.813 68.4934H578.744L631.078 16.5449Z" fill="#646464"/>
<path d="M631.077 21.5473V16.5449L578.744 68.4934V73.4958L631.077 21.5473Z" fill="#646464"/>
<path d="M576.435 68.4934C576.435 68.4934 577.204 67.3389 577.974 65.7997C579.128 64.2605 580.283 61.5669 582.592 58.8733C583.746 57.3341 584.9 56.1796 586.055 54.2556C587.209 52.7164 588.749 51.1771 589.903 49.6379C591.442 48.0987 592.597 46.1747 594.521 44.6355C596.06 43.0963 597.599 41.1723 599.523 39.6331C601.062 38.0939 602.986 36.5547 604.525 35.0154C606.065 33.4762 607.989 31.937 609.528 30.7826C612.606 28.089 616.07 25.3954 618.763 23.4713C624.15 19.2385 627.998 16.5449 627.998 16.5449C627.998 16.5449 624.535 19.2385 619.148 23.8562C616.454 26.165 613.376 28.4738 609.913 31.1674C608.373 32.7066 606.449 33.8611 604.91 35.4003C603.371 36.9395 601.447 38.4786 599.908 40.0178C598.369 41.5571 596.829 43.0963 594.905 44.6355C593.366 46.1747 591.827 47.7139 590.288 49.6379C588.748 51.1771 587.594 52.7164 586.055 54.2556C584.9 55.7948 583.746 57.3341 582.592 58.4885C580.283 61.1821 579.128 63.8757 577.974 65.4149C577.204 67.3389 576.435 68.4934 576.435 68.4934Z" fill="#646464"/>
<path d="M616.071 16.5449C616.071 16.5449 615.301 17.3144 613.762 18.8536C612.222 20.3929 609.914 21.9321 607.99 24.6257C605.681 27.3193 602.987 30.013 600.294 33.4763C597.6 36.5547 594.522 40.4026 591.443 43.8659C589.904 45.7899 588.365 47.3292 586.825 49.2532C585.286 51.1772 583.747 52.7164 582.208 54.2556C580.669 55.7948 579.514 57.3341 577.975 58.4885C576.436 59.6429 574.897 61.1821 573.742 61.9517C572.588 63.1061 571.049 63.8758 569.894 64.6454C568.74 65.415 567.585 66.1846 566.816 66.5694C565.276 67.7238 564.122 68.1086 564.122 68.1086C564.122 68.1086 564.892 67.339 566.816 66.1846C567.585 65.4149 568.74 65.0301 569.894 64.2605C571.049 63.4909 572.203 62.7212 573.742 61.182C574.897 60.0276 576.436 58.8732 577.975 57.334C579.514 56.1796 580.669 54.6405 582.208 53.1013C583.747 51.562 585.286 50.0228 586.825 48.0987C588.365 46.5595 589.904 44.6356 591.443 43.0963C594.522 39.6331 597.215 36.1698 600.294 32.7066C602.987 29.2434 605.681 26.165 607.99 23.8562C609.144 22.7018 610.298 21.5474 611.453 20.393C612.607 19.6233 613.377 18.4689 614.147 18.0841C614.916 17.3145 616.071 16.5449 616.071 16.5449Z" fill="#646464"/>
<path d="M578.744 68.4939H576.82L629.153 16.5454H631.077L578.744 68.4939Z" fill="#646464"/>
<path d="M579.129 68.4941H561.813V73.4965H579.129V68.4941Z" fill="#646464"/>
<path d="M627.999 73.4949H625.305L677.253 21.5464H679.947L627.999 73.4949Z" fill="#646464"/>
<path d="M677.254 16.5449H659.937L607.989 68.4934H625.305L677.254 16.5449Z" fill="#646464"/>
<path d="M677.253 21.5473V16.5449L625.305 68.4934V73.4958L677.253 21.5473Z" fill="#646464"/>
<path d="M622.611 68.4934C622.611 68.4934 623.38 67.3389 624.15 65.7997C625.304 64.2605 626.459 61.5669 628.768 58.8733C629.922 57.3341 631.077 56.1796 632.231 54.2556C633.385 52.7164 634.925 51.1771 636.079 49.6379C637.618 48.0987 638.773 46.1747 640.697 44.6355C642.236 43.0963 643.775 41.1723 645.699 39.6331C647.238 38.0939 649.162 36.5547 650.702 35.0154C652.241 33.4762 654.165 31.937 655.704 30.7826C658.782 28.089 662.246 25.3954 664.939 23.4713C670.326 19.2385 674.174 16.5449 674.174 16.5449C674.174 16.5449 670.711 19.2385 665.324 23.8562C662.63 26.165 659.552 28.4738 656.089 31.1674C654.55 32.7066 652.625 33.8611 651.086 35.4003C649.547 36.9395 647.623 38.4786 646.084 40.0178C644.545 41.5571 643.005 43.0963 641.081 44.6355C639.542 46.1747 638.003 47.7139 636.464 49.6379C634.925 51.1771 633.77 52.7164 632.231 54.2556C631.077 55.7948 629.922 57.3341 628.768 58.4885C626.459 61.1821 625.304 63.8757 624.15 65.4149C623.38 67.3389 622.996 68.4934 622.611 68.4934Z" fill="#646464"/>
<path d="M662.247 16.5449C662.247 16.5449 661.477 17.3144 659.938 18.8536C658.399 20.3929 656.09 21.9321 654.166 24.6257C651.857 27.3193 649.163 30.013 646.47 33.4763C643.776 36.5547 640.698 40.4026 637.619 43.8659C636.08 45.7899 634.541 47.3292 633.001 49.2532C631.462 51.1772 629.923 52.7164 628.384 54.2556C626.845 55.7948 625.69 57.3341 624.151 58.4885C622.612 59.6429 621.073 61.1821 619.918 61.9517C618.764 63.1061 617.225 63.8758 616.07 64.6454C614.916 65.415 613.761 66.1846 612.992 66.5694C611.452 67.7238 610.298 68.1086 610.298 68.1086C610.298 68.1086 611.068 67.339 612.992 66.1846C613.761 65.4149 614.916 65.0301 616.07 64.2605C617.225 63.4909 618.379 62.7212 619.918 61.182C621.073 60.0276 622.612 58.8732 624.151 57.334C625.69 56.1796 626.845 54.6405 628.384 53.1013C629.923 51.562 631.462 50.0228 633.001 48.0987C634.541 46.5595 636.08 44.6356 637.619 43.0963C640.698 39.6331 643.391 36.1698 646.47 32.7066C649.163 29.2434 651.857 26.165 654.166 23.8562C655.32 22.7018 656.474 21.5474 657.629 20.393C658.783 19.6233 659.553 18.4689 660.323 18.0841C661.092 17.3145 662.247 16.5449 662.247 16.5449Z" fill="#646464"/>
<path d="M625.305 68.4939H623.381L675.33 16.5454H677.254L625.305 68.4939Z" fill="#646464"/>
<path d="M625.306 68.4941H607.99V73.4965H625.306V68.4941Z" fill="#646464"/>
<path d="M674.176 73.4949H671.482L723.431 21.5464H726.124L674.176 73.4949Z" fill="#646464"/>
<path d="M723.431 16.5449H706.115L654.166 68.4934H671.482L723.431 16.5449Z" fill="#646464"/>
<path d="M723.431 21.5473V16.5449L671.482 68.4934V73.4958L723.431 21.5473Z" fill="#646464"/>
<path d="M669.173 68.4934C669.173 68.4934 669.943 67.3389 670.712 65.7997C671.867 64.2605 673.021 61.5669 675.33 58.8733C676.484 57.3341 677.639 56.1796 678.793 54.2556C679.948 52.7164 681.487 51.1771 682.641 49.6379C684.18 48.0987 685.335 46.1747 687.259 44.6355C688.798 43.0963 690.337 41.1723 692.261 39.6331C693.801 38.0939 695.725 36.5547 697.264 35.0154C698.803 33.4762 700.727 31.937 702.266 30.7826C705.345 28.089 708.808 25.3954 711.501 23.4713C716.889 19.2385 720.737 16.5449 720.737 16.5449C720.737 16.5449 717.274 19.2385 711.886 23.8562C709.193 26.165 706.114 28.4738 702.651 31.1674C701.112 32.7066 699.188 33.8611 697.649 35.4003C696.109 36.9395 694.185 38.4786 692.646 40.0178C691.107 41.5571 689.568 43.0963 687.644 44.6355C686.104 46.1747 684.565 47.7139 683.026 49.6379C681.487 51.1771 680.332 52.7164 678.793 54.2556C677.639 55.7948 676.484 57.3341 675.33 58.4885C673.021 61.1821 671.867 63.8757 670.712 65.4149C669.558 67.3389 669.173 68.4934 669.173 68.4934Z" fill="#646464"/>
<path d="M708.424 16.5449C708.424 16.5449 707.654 17.3144 706.115 18.8536C704.576 20.3929 702.267 21.9321 700.343 24.6257C698.034 27.3193 695.34 30.013 692.647 33.4763C689.953 36.5547 686.875 40.4026 683.796 43.8659C682.257 45.7899 680.718 47.3292 679.179 49.2532C677.64 51.1772 676.1 52.7164 674.561 54.2556C673.022 55.7948 671.867 57.3341 670.328 58.4885C668.789 59.6429 667.25 61.1821 666.095 61.9517C664.941 63.1061 663.402 63.8758 662.247 64.6454C661.093 65.415 659.939 66.1846 659.169 66.5694C657.63 67.7238 656.475 68.1086 656.475 68.1086C656.475 68.1086 657.245 67.339 659.169 66.1846C659.939 65.4149 661.093 65.0301 662.247 64.2605C663.402 63.4909 664.556 62.7212 666.095 61.182C667.25 60.0276 668.789 58.8732 670.328 57.334C671.867 56.1796 673.022 54.6405 674.561 53.1013C676.1 51.562 677.64 50.0228 679.179 48.0987C680.718 46.5595 682.257 44.6356 683.796 43.0963C686.875 39.6331 689.568 36.1698 692.647 32.7066C695.34 29.2434 698.034 26.165 700.343 23.8562C701.497 22.7018 702.652 21.5474 703.806 20.393C704.961 19.6233 705.73 18.4689 706.5 18.0841C707.654 17.3145 708.424 16.5449 708.424 16.5449Z" fill="#646464"/>
<path d="M671.482 68.4939H669.558L721.507 16.5454H723.431L671.482 68.4939Z" fill="#646464"/>
<path d="M671.482 68.4941H654.166V73.4965H671.482V68.4941Z" fill="#646464"/>
<path d="M720.352 73.4949H717.658L769.607 21.5464H772.3L720.352 73.4949Z" fill="#646464"/>
<path d="M769.607 16.5449H752.676L700.342 68.4934H717.658L769.607 16.5449Z" fill="#646464"/>
<path d="M769.607 21.5473V16.5449L717.658 68.4934V73.4958L769.607 21.5473Z" fill="#646464"/>
<path d="M715.349 68.4934C715.349 68.4934 716.119 67.3389 716.888 65.7997C718.043 64.2605 719.197 61.5669 721.506 58.8733C722.66 57.3341 723.815 56.1796 724.969 54.2556C726.124 52.7164 727.663 51.1771 728.817 49.6379C730.356 48.0987 731.511 46.1747 733.435 44.6355C734.974 43.0963 736.513 41.1723 738.437 39.6331C739.977 38.0939 741.901 36.5547 743.44 35.0154C744.979 33.4762 746.903 31.937 748.442 30.7826C751.521 28.089 754.984 25.3954 757.678 23.4713C763.065 19.2385 766.913 16.5449 766.913 16.5449C766.913 16.5449 763.45 19.2385 758.062 23.8562C755.369 26.165 752.29 28.4738 748.827 31.1674C747.288 32.7066 745.364 33.8611 743.825 35.4003C742.285 36.9395 740.361 38.4786 738.822 40.0178C737.283 41.5571 735.744 43.0963 733.82 44.6355C732.28 46.1747 730.741 47.7139 729.202 49.6379C727.663 51.1771 726.508 52.7164 724.969 54.2556C723.815 55.7948 722.66 57.3341 721.506 58.4885C719.197 61.1821 718.043 63.8757 716.888 65.4149C716.119 67.3389 715.349 68.4934 715.349 68.4934Z" fill="#646464"/>
<path d="M754.6 16.5449C754.6 16.5449 753.83 17.3144 752.291 18.8536C750.752 20.3929 748.443 21.9321 746.519 24.6257C744.21 27.3193 741.516 30.013 738.823 33.4763C736.129 36.5547 733.051 40.4026 729.972 43.8659C728.433 45.7899 726.894 47.3292 725.355 49.2532C723.816 51.1772 722.276 52.7164 720.737 54.2556C719.198 55.7948 718.043 57.3341 716.504 58.4885C714.965 59.6429 713.426 61.1821 712.271 61.9517C711.117 63.1061 709.578 63.8758 708.423 64.6454C707.269 65.415 706.115 66.1846 705.345 66.5694C703.806 67.7238 702.651 68.1086 702.651 68.1086C702.651 68.1086 703.421 67.339 705.345 66.1846C706.115 65.4149 707.269 65.0301 708.423 64.2605C709.578 63.4909 710.732 62.7212 712.271 61.182C713.426 60.0276 714.965 58.8732 716.504 57.334C718.043 56.1796 719.198 54.6405 720.737 53.1013C722.276 51.562 723.816 50.0228 725.355 48.0987C726.894 46.5595 728.433 44.6356 729.972 43.0963C733.051 39.6331 735.744 36.1698 738.823 32.7066C741.516 29.2434 744.21 26.165 746.519 23.8562C747.673 22.7018 748.828 21.5474 749.982 20.393C751.137 19.6233 751.906 18.4689 752.676 18.0841C753.83 17.3145 754.6 16.5449 754.6 16.5449Z" fill="#646464"/>
<path d="M717.658 68.4939H715.734L767.683 16.5454H769.607L717.658 68.4939Z" fill="#646464"/>
<path d="M717.659 68.4941H700.343V73.4965H717.659V68.4941Z" fill="#646464"/>
<path d="M766.913 73.4949H763.835L815.783 21.5464H818.477L766.913 73.4949Z" fill="#646464"/>
<path d="M815.783 16.5449H798.852L746.518 68.4934H763.834L815.783 16.5449Z" fill="#646464"/>
<path d="M815.783 21.5473V16.5449L763.835 68.4934V73.4958L815.783 21.5473Z" fill="#646464"/>
<path d="M761.525 68.4934C761.525 68.4934 762.295 67.3389 763.064 65.7997C764.219 64.2605 765.373 61.5669 767.682 58.8733C768.836 57.3341 769.991 56.1796 771.145 54.2556C772.3 52.7164 773.839 51.1771 774.993 49.6379C776.532 48.0987 777.687 46.1747 779.611 44.6355C781.15 43.0963 782.689 41.1723 784.613 39.6331C786.153 38.0939 788.077 36.5547 789.616 35.0154C791.155 33.4762 793.079 31.937 794.618 30.7826C797.697 28.089 801.16 25.3954 803.854 23.4713C809.241 19.2385 813.089 16.5449 813.089 16.5449C813.089 16.5449 809.626 19.2385 804.238 23.8562C801.545 26.165 798.466 28.4738 795.003 31.1674C793.464 32.7066 791.54 33.8611 790.001 35.4003C788.461 36.9395 786.537 38.4786 784.998 40.0178C783.459 41.5571 781.92 43.0963 779.996 44.6355C778.457 46.1747 776.917 47.7139 775.378 49.6379C773.839 51.1771 772.684 52.7164 771.145 54.2556C769.991 55.7948 768.836 57.3341 767.682 58.4885C765.373 61.1821 764.219 63.8757 763.064 65.4149C762.295 67.3389 761.525 68.4934 761.525 68.4934Z" fill="#646464"/>
<path d="M800.777 16.5449C800.777 16.5449 800.007 17.3144 798.468 18.8536C796.929 20.3929 794.62 21.9321 792.696 24.6257C790.387 27.3193 787.693 30.013 785 33.4763C782.306 36.5547 779.228 40.4026 776.149 43.8659C774.61 45.7899 773.071 47.3292 771.532 49.2532C769.992 51.1772 768.453 52.7164 766.914 54.2556C765.375 55.7948 764.22 57.3341 762.681 58.4885C761.142 59.6429 759.603 61.1821 758.448 61.9517C757.294 63.1061 755.755 63.8758 754.6 64.6454C753.446 65.415 752.291 66.1846 751.522 66.5694C749.983 67.7238 748.828 68.1086 748.828 68.1086C748.828 68.1086 749.598 67.339 751.522 66.1846C752.291 65.4149 753.446 65.0301 754.6 64.2605C755.755 63.4909 756.909 62.7212 758.448 61.182C759.603 60.0276 761.142 58.8732 762.681 57.334C764.22 56.1796 765.375 54.6405 766.914 53.1013C768.453 51.562 769.992 50.0228 771.532 48.0987C773.071 46.5595 774.61 44.6356 776.149 43.0963C779.228 39.6331 781.921 36.1698 785 32.7066C787.693 29.2434 790.387 26.165 792.696 23.8562C793.85 22.7018 795.004 21.5474 796.159 20.393C797.313 19.6233 798.083 18.4689 798.853 18.0841C800.007 17.3145 800.777 16.5449 800.777 16.5449Z" fill="#646464"/>
<path d="M763.835 68.4939H761.911L813.86 16.5454H815.784L763.835 68.4939Z" fill="#646464"/>
<path d="M763.834 68.4941H746.518V73.4965H763.834V68.4941Z" fill="#646464"/>
<path d="M813.09 73.4949H810.012L862.345 21.5464H865.039L813.09 73.4949Z" fill="#646464"/>
<path d="M862.345 16.5449H845.029L793.08 68.4934H810.012L862.345 16.5449Z" fill="#646464"/>
<path d="M862.345 21.5473V16.5449L810.012 68.4934V73.4958L862.345 21.5473Z" fill="#646464"/>
<path d="M807.702 68.4934C807.702 68.4934 808.472 67.3389 809.241 65.7997C810.396 64.2605 811.55 61.5669 813.859 58.8733C815.013 57.3341 816.168 56.1796 817.322 54.2556C818.477 52.7164 820.016 51.1771 821.17 49.6379C822.709 48.0987 823.864 46.1747 825.788 44.6355C827.327 43.0963 828.866 41.1723 830.79 39.6331C832.33 38.0939 834.254 36.5547 835.793 35.0154C837.332 33.4762 839.256 31.937 840.795 30.7826C843.874 28.089 847.337 25.3954 850.031 23.4713C855.418 19.2385 859.266 16.5449 859.266 16.5449C859.266 16.5449 855.803 19.2385 850.415 23.8562C847.722 26.165 844.643 28.4738 841.18 31.1674C839.641 32.7066 837.717 33.8611 836.178 35.4003C834.638 36.9395 832.714 38.4786 831.175 40.0178C829.636 41.5571 828.097 43.0963 826.173 44.6355C824.634 46.1747 823.094 47.7139 821.555 49.6379C820.016 51.1771 818.861 52.7164 817.322 54.2556C816.168 55.7948 815.013 57.3341 813.859 58.4885C811.55 61.1821 810.396 63.8757 809.241 65.4149C808.472 67.3389 807.702 68.4934 807.702 68.4934Z" fill="#646464"/>
<path d="M847.339 16.5449C847.339 16.5449 846.569 17.3144 845.03 18.8536C843.491 20.3929 841.182 21.9321 839.258 24.6257C836.949 27.3193 834.255 30.013 831.562 33.4763C828.868 36.5547 825.79 40.4026 822.711 43.8659C821.172 45.7899 819.633 47.3292 818.094 49.2532C816.554 51.1772 815.015 52.7164 813.476 54.2556C811.937 55.7948 810.782 57.3341 809.243 58.4885C807.704 59.6429 806.165 61.1821 805.01 61.9517C803.856 63.1061 802.317 63.8758 801.162 64.6454C800.008 65.415 798.853 66.1846 798.084 66.5694C796.545 67.7238 795.39 68.1086 795.39 68.1086C795.39 68.1086 796.16 67.339 798.084 66.1846C798.853 65.4149 800.008 65.0301 801.162 64.2605C802.317 63.4909 803.471 62.7212 805.01 61.182C806.165 60.0276 807.704 58.8732 809.243 57.334C810.782 56.1796 811.937 54.6405 813.476 53.1013C815.015 51.562 816.554 50.0228 818.094 48.0987C819.633 46.5595 821.172 44.6356 822.711 43.0963C825.79 39.6331 828.483 36.1698 831.562 32.7066C834.255 29.2434 836.949 26.165 839.258 23.8562C840.412 22.7018 841.567 21.5474 842.721 20.393C843.875 19.6233 844.645 18.4689 845.415 18.0841C846.184 17.3145 847.339 16.5449 847.339 16.5449Z" fill="#646464"/>
<path d="M810.011 68.4939H808.087L860.42 16.5454H862.344L810.011 68.4939Z" fill="#646464"/>
<path d="M810.396 68.4941H793.08V73.4965H810.396V68.4941Z" fill="#646464"/>
<path d="M859.267 73.4949H856.573L908.521 21.5464H911.215L859.267 73.4949Z" fill="#646464"/>
<path d="M908.521 16.5449H891.205L839.256 68.4934H856.573L908.521 16.5449Z" fill="#646464"/>
<path d="M908.521 21.5473V16.5449L856.573 68.4934V73.4958L908.521 21.5473Z" fill="#646464"/>
<path d="M853.878 68.4934C853.878 68.4934 854.648 67.3389 855.417 65.7997C856.572 64.2605 857.726 61.5669 860.035 58.8733C861.189 57.3341 862.344 56.1796 863.498 54.2556C864.653 52.7164 866.192 51.1771 867.346 49.6379C868.886 48.0987 870.425 46.1747 871.964 44.6355C873.503 43.0963 875.042 41.1723 876.966 39.6331C878.506 38.0939 880.43 36.5547 881.969 35.0154C883.508 33.4762 885.432 31.937 886.971 30.7826C890.05 28.089 893.513 25.3954 896.207 23.4713C901.594 19.2385 905.442 16.5449 905.442 16.5449C905.442 16.5449 901.979 19.2385 896.591 23.8562C893.898 26.165 890.819 28.4738 887.356 31.1674C885.817 32.7066 883.893 33.8611 882.354 35.4003C880.814 36.9395 878.89 38.4786 877.351 40.0178C875.812 41.5571 874.273 43.0963 872.349 44.6355C870.81 46.1747 869.27 47.7139 867.731 49.6379C866.192 51.1771 865.037 52.7164 863.498 54.2556C862.344 55.7948 861.189 57.3341 860.035 58.4885C857.726 61.1821 856.572 63.8757 855.417 65.4149C854.648 67.3389 854.263 68.4934 853.878 68.4934Z" fill="#646464"/>
<path d="M893.514 16.5449C893.514 16.5449 892.744 17.3144 891.205 18.8536C889.666 20.3929 887.357 21.9321 885.433 24.6257C883.124 27.3193 880.431 30.013 877.737 33.4763C875.043 36.5547 871.965 40.4026 868.887 43.8659C867.347 45.7899 865.808 47.3292 864.269 49.2532C862.73 51.1772 861.19 52.7164 859.651 54.2556C858.112 55.7948 856.958 57.3341 855.418 58.4885C853.879 59.6429 852.34 61.1821 851.186 61.9517C850.031 63.1061 848.492 63.8758 847.337 64.6454C846.183 65.415 845.029 66.1846 844.259 66.5694C842.72 67.7238 841.565 68.1086 841.565 68.1086C841.565 68.1086 842.335 67.339 844.259 66.1846C845.029 65.4149 846.183 65.0301 847.337 64.2605C848.492 63.4909 849.646 62.7212 851.186 61.182C852.34 60.0276 853.879 58.8732 855.418 57.334C856.958 56.1796 858.112 54.6405 859.651 53.1013C861.19 51.562 862.73 50.0228 864.269 48.0987C865.808 46.5595 867.347 44.6356 868.887 43.0963C871.965 39.6331 874.659 36.1698 877.737 32.7066C880.431 29.2434 883.124 26.165 885.433 23.8562C886.587 22.7018 887.742 21.5474 888.896 20.393C890.051 19.6233 890.82 18.4689 891.59 18.0841C892.359 17.3145 893.514 16.5449 893.514 16.5449Z" fill="#646464"/>
<path d="M856.572 68.4939H854.648L906.597 16.5454H908.521L856.572 68.4939Z" fill="#646464"/>
<path d="M856.573 68.4941H839.257V73.4965H856.573V68.4941Z" fill="#646464"/>
<path d="M905.443 73.4949H902.75L954.698 21.5464H957.392L905.443 73.4949Z" fill="#646464"/>
<path d="M954.698 16.5449H937.382L885.434 68.4934H902.75L954.698 16.5449Z" fill="#646464"/>
<path d="M954.698 21.5473V16.5449L902.75 68.4934V73.4958L954.698 21.5473Z" fill="#646464"/>
<path d="M900.441 68.4934C900.441 68.4934 901.21 67.3389 901.98 65.7997C903.134 64.2605 904.289 61.5669 906.598 58.8733C907.752 57.3341 908.906 56.1796 910.061 54.2556C911.215 52.7164 912.754 51.1771 913.909 49.6379C915.448 48.0987 916.987 46.1747 918.526 44.6355C920.066 43.0963 921.605 41.1723 923.529 39.6331C925.068 38.0939 926.992 36.5547 928.531 35.0154C930.071 33.4762 931.995 31.937 933.534 30.7826C936.612 28.089 940.075 25.3954 942.769 23.4713C948.156 19.2385 952.004 16.5449 952.004 16.5449C952.004 16.5449 948.541 19.2385 943.154 23.8562C940.46 26.165 937.382 28.4738 933.919 31.1674C932.379 32.7066 930.455 33.8611 928.916 35.4003C927.377 36.9395 925.453 38.4786 923.914 40.0178C922.374 41.5571 920.835 43.0963 918.911 44.6355C917.372 46.1747 915.833 47.7139 914.294 49.6379C912.754 51.1771 911.6 52.7164 910.061 54.2556C908.906 55.7948 907.752 57.3341 906.598 58.4885C904.289 61.1821 903.134 63.8757 901.98 65.4149C900.825 67.3389 900.441 68.4934 900.441 68.4934Z" fill="#646464"/>
<path d="M939.691 16.5449C939.691 16.5449 938.922 17.3144 937.383 18.8536C935.843 20.3929 933.535 21.9321 931.611 24.6257C929.302 27.3193 926.608 30.013 923.914 33.4763C921.221 36.5547 918.142 40.4026 915.064 43.8659C913.525 45.7899 911.986 47.3292 910.446 49.2532C908.907 51.1772 907.368 52.7164 905.829 54.2556C904.289 55.7948 903.135 57.3341 901.596 58.4885C900.057 59.6429 898.517 61.1821 897.363 61.9517C896.209 63.1061 894.669 63.8758 893.515 64.6454C892.361 65.415 891.206 66.1846 890.437 66.5694C888.897 67.7238 887.743 68.1086 887.743 68.1086C887.743 68.1086 888.513 67.339 890.437 66.1846C891.206 65.4149 892.361 65.0301 893.515 64.2605C894.669 63.4909 895.824 62.7212 897.363 61.182C898.517 60.0276 900.057 58.8732 901.596 57.334C903.135 56.1796 904.289 54.6405 905.829 53.1013C907.368 51.562 908.907 50.0228 910.446 48.0987C911.986 46.5595 913.525 44.6356 915.064 43.0963C918.142 39.6331 920.836 36.1698 923.914 32.7066C926.608 29.2434 929.302 26.165 931.611 23.8562C932.765 22.7018 933.919 21.5474 935.074 20.393C936.228 19.6233 936.998 18.4689 937.767 18.0841C938.922 17.3145 939.691 16.5449 939.691 16.5449Z" fill="#646464"/>
<path d="M902.75 68.4939H900.826L952.774 16.5454H954.698L902.75 68.4939Z" fill="#646464"/>
<path d="M902.75 68.4941H885.434V73.4965H902.75V68.4941Z" fill="#646464"/>
<path d="M951.619 73.4949H948.926L1000.87 21.5464H1003.57L951.619 73.4949Z" fill="#646464"/>
<path d="M1000.87 16.5449H983.943L931.61 68.4934H948.926L1000.87 16.5449Z" fill="#646464"/>
<path d="M1000.87 21.5473V16.5449L948.926 68.4934V73.4958L1000.87 21.5473Z" fill="#646464"/>
<path d="M946.617 68.4934C946.617 68.4934 947.386 67.3389 948.156 65.7997C949.31 64.2605 950.465 61.5669 952.774 58.8733C953.928 57.3341 955.082 56.1796 956.237 54.2556C957.391 52.7164 958.93 51.1771 960.085 49.6379C961.624 48.0987 962.778 46.1747 964.702 44.6355C966.242 43.0963 967.781 41.1723 969.705 39.6331C971.244 38.0939 973.168 36.5547 974.707 35.0154C976.247 33.4762 978.171 31.937 979.71 30.7826C982.788 28.089 986.251 25.3954 988.945 23.4713C994.332 19.2385 998.18 16.5449 998.18 16.5449C998.18 16.5449 994.717 19.2385 989.33 23.8562C986.636 26.165 983.558 28.4738 980.095 31.1674C978.555 32.7066 976.631 33.8611 975.092 35.4003C973.553 36.9395 971.629 38.4786 970.09 40.0178C968.551 41.5571 967.011 43.0963 965.087 44.6355C963.548 46.1747 962.009 47.7139 960.47 49.6379C958.93 51.1771 957.776 52.7164 956.237 54.2556C955.082 55.7948 953.928 57.3341 952.774 58.4885C950.465 61.1821 949.31 63.8757 948.156 65.4149C947.001 67.3389 946.617 68.4934 946.617 68.4934Z" fill="#646464"/>
<path d="M985.867 16.5449C985.867 16.5449 985.098 17.3144 983.559 18.8536C982.019 20.3929 979.711 21.9321 977.787 24.6257C975.478 27.3193 972.784 30.013 970.091 33.4763C967.397 36.5547 964.318 40.4026 961.24 43.8659C959.701 45.7899 958.162 47.3292 956.622 49.2532C955.083 51.1772 953.544 52.7164 952.005 54.2556C950.465 55.7948 949.311 57.3341 947.772 58.4885C946.233 59.6429 944.693 61.1821 943.539 61.9517C942.385 63.1061 940.845 63.8758 939.691 64.6454C938.537 65.415 937.382 66.1846 936.613 66.5694C935.073 67.7238 933.919 68.1086 933.919 68.1086C933.919 68.1086 934.689 67.339 936.613 66.1846C937.382 65.4149 938.537 65.0301 939.691 64.2605C940.845 63.4909 942 62.7212 943.539 61.182C944.693 60.0276 946.233 58.8732 947.772 57.334C949.311 56.1796 950.465 54.6405 952.005 53.1013C953.544 51.562 955.083 50.0228 956.622 48.0987C958.162 46.5595 959.701 44.6356 961.24 43.0963C964.318 39.6331 967.012 36.1698 970.091 32.7066C972.784 29.2434 975.478 26.165 977.787 23.8562C978.941 22.7018 980.095 21.5474 981.25 20.393C982.404 19.6233 983.174 18.4689 983.943 18.0841C985.098 17.3145 985.867 16.5449 985.867 16.5449Z" fill="#646464"/>
<path d="M948.926 68.4939H947.002L998.95 16.5454H1000.87L948.926 68.4939Z" fill="#646464"/>
<path d="M948.926 68.4941H931.61V73.4965H948.926V68.4941Z" fill="#646464"/>
<path d="M998.181 73.4949H995.102L1047.05 21.5464H1049.74L998.181 73.4949Z" fill="#646464"/>
<path d="M1047.05 16.5449H1030.12L977.786 68.4934H995.102L1047.05 16.5449Z" fill="#646464"/>
<path d="M1047.05 21.5473V16.5449L995.102 68.4934V73.4958L1047.05 21.5473Z" fill="#646464"/>
<path d="M992.793 68.4934C992.793 68.4934 993.563 67.3389 994.332 65.7997C995.487 64.2605 996.641 61.5669 998.95 58.8733C1000.1 57.3341 1001.26 56.1796 1002.41 54.2556C1003.57 52.7164 1005.11 51.1771 1006.26 49.6379C1007.8 48.0987 1008.96 46.1747 1010.88 44.6355C1012.42 43.0963 1013.96 41.1723 1015.88 39.6331C1017.42 38.0939 1019.34 36.5547 1020.88 35.0154C1022.42 33.4762 1024.35 31.937 1025.89 30.7826C1028.96 28.089 1032.43 25.3954 1035.12 23.4713C1040.51 19.2385 1044.36 16.5449 1044.36 16.5449C1044.36 16.5449 1040.89 19.2385 1035.51 23.8562C1032.81 26.165 1029.73 28.4738 1026.27 31.1674C1024.73 32.7066 1022.81 33.8611 1021.27 35.4003C1019.73 36.9395 1017.81 38.4786 1016.27 40.0178C1014.73 41.5571 1013.19 43.0963 1011.26 44.6355C1009.72 46.1747 1008.19 47.7139 1006.65 49.6379C1005.11 51.1771 1003.95 52.7164 1002.41 54.2556C1001.26 55.7948 1000.1 57.3341 998.95 58.4885C996.641 61.1821 995.487 63.8757 994.332 65.4149C993.563 67.3389 992.793 68.4934 992.793 68.4934Z" fill="#646464"/>
<path d="M1032.04 16.5449C1032.04 16.5449 1031.27 17.3144 1029.74 18.8536C1028.2 20.3929 1025.89 21.9321 1023.96 24.6257C1021.65 27.3193 1018.96 30.013 1016.27 33.4763C1013.57 36.5547 1010.49 40.4026 1007.42 43.8659C1005.88 45.7899 1004.34 47.3292 1002.8 49.2532C1001.26 51.1772 999.72 52.7164 998.181 54.2556C996.642 55.7948 995.488 57.3341 993.948 58.4885C992.409 59.6429 990.87 61.1821 989.716 61.9517C988.561 63.1061 987.022 63.8758 985.868 64.6454C984.713 65.415 983.559 66.1846 982.789 66.5694C981.25 67.7238 980.095 68.1086 980.095 68.1086C980.095 68.1086 980.865 67.339 982.789 66.1846C983.559 65.4149 984.713 65.0301 985.868 64.2605C987.022 63.4909 988.176 62.7212 989.716 61.182C990.87 60.0276 992.409 58.8732 993.948 57.334C995.488 56.1796 996.642 54.6405 998.181 53.1013C999.72 51.562 1001.26 50.0228 1002.8 48.0987C1004.34 46.5595 1005.88 44.6356 1007.42 43.0963C1010.49 39.6331 1013.19 36.1698 1016.27 32.7066C1018.96 29.2434 1021.65 26.165 1023.96 23.8562C1025.12 22.7018 1026.27 21.5474 1027.43 20.393C1028.58 19.6233 1029.35 18.4689 1030.12 18.0841C1031.27 17.3145 1032.04 16.5449 1032.04 16.5449Z" fill="#646464"/>
<path d="M995.102 68.4939H993.178L1045.13 16.5454H1047.05L995.102 68.4939Z" fill="#646464"/>
<path d="M995.102 68.4941H977.786V73.4965H995.102V68.4941Z" fill="#646464"/>
<path d="M1044.36 73.4949H1041.28L1093.61 21.5464H1096.31L1044.36 73.4949Z" fill="#646464"/>
<path d="M1093.61 16.5449H1076.3L1024.35 68.4934H1041.28L1093.61 16.5449Z" fill="#646464"/>
<path d="M1093.61 21.5473V16.5449L1041.28 68.4934V73.4958L1093.61 21.5473Z" fill="#646464"/>
<path d="M1038.97 68.4934C1038.97 68.4934 1039.74 67.3389 1040.51 65.7997C1041.66 64.2605 1042.82 61.5669 1045.13 58.8733C1046.28 57.3341 1047.44 56.1796 1048.59 54.2556C1049.74 52.7164 1051.28 51.1771 1052.44 49.6379C1053.98 48.0987 1055.13 46.1747 1057.06 44.6355C1058.59 43.0963 1060.13 41.1723 1062.06 39.6331C1063.6 38.0939 1065.52 36.5547 1067.06 35.0154C1068.6 33.4762 1070.52 31.937 1072.06 30.7826C1075.14 28.089 1078.6 25.3954 1081.3 23.4713C1086.69 19.2385 1090.53 16.5449 1090.53 16.5449C1090.53 16.5449 1087.07 19.2385 1081.68 23.8562C1078.99 26.165 1075.91 28.4738 1072.45 31.1674C1070.91 32.7066 1068.98 33.8611 1067.44 35.4003C1065.91 36.9395 1063.98 38.4786 1062.44 40.0178C1060.9 41.5571 1059.36 43.0963 1057.44 44.6355C1055.9 46.1747 1054.36 47.7139 1052.82 49.6379C1051.28 51.1771 1050.13 52.7164 1048.59 54.2556C1047.44 55.7948 1046.28 57.3341 1045.13 58.4885C1042.82 61.1821 1041.66 63.8757 1040.51 65.4149C1039.74 67.3389 1038.97 68.4934 1038.97 68.4934Z" fill="#646464"/>
<path d="M1078.61 16.5449C1078.61 16.5449 1077.84 17.3144 1076.3 18.8536C1074.76 20.3929 1072.45 21.9321 1070.53 24.6257C1068.22 27.3193 1065.52 30.013 1062.83 33.4763C1060.14 36.5547 1057.06 40.4026 1053.98 43.8659C1052.44 45.7899 1050.9 47.3292 1049.36 49.2532C1047.82 51.1772 1046.28 52.7164 1044.74 54.2556C1043.2 55.7948 1042.05 57.3341 1040.51 58.4885C1038.97 59.6429 1037.43 61.1821 1036.28 61.9517C1035.12 63.1061 1033.58 63.8758 1032.43 64.6454C1031.28 65.415 1030.12 66.1846 1029.35 66.5694C1027.81 67.7238 1026.66 68.1086 1026.66 68.1086C1026.66 68.1086 1027.43 67.339 1029.35 66.1846C1030.12 65.4149 1031.28 65.0301 1032.43 64.2605C1033.58 63.4909 1034.74 62.7212 1036.28 61.182C1037.43 60.0276 1038.97 58.8732 1040.51 57.334C1042.05 56.1796 1043.2 54.6405 1044.74 53.1013C1046.28 51.562 1047.82 50.0228 1049.36 48.0987C1050.9 46.5595 1052.44 44.6356 1053.98 43.0963C1057.06 39.6331 1059.75 36.1698 1062.83 32.7066C1065.52 29.2434 1068.22 26.165 1070.53 23.8562C1071.68 22.7018 1072.83 21.5474 1073.99 20.393C1075.14 19.6233 1075.91 18.4689 1076.68 18.0841C1077.45 17.3145 1078.61 16.5449 1078.61 16.5449Z" fill="#646464"/>
<path d="M1041.28 68.4939H1039.35L1091.69 16.5454H1093.61L1041.28 68.4939Z" fill="#646464"/>
<path d="M1041.66 68.4941H1024.35V73.4965H1041.66V68.4941Z" fill="#646464"/>
<path d="M1090.53 73.4949H1087.84L1139.79 21.5464H1142.48L1090.53 73.4949Z" fill="#646464"/>
<path d="M1139.79 16.5449H1122.47L1070.52 68.4934H1087.46L1139.79 16.5449Z" fill="#646464"/>
<path d="M1139.79 21.5473V16.5449L1087.46 68.4934V73.4958L1139.79 21.5473Z" fill="#646464"/>
<path d="M1085.15 68.4934C1085.15 68.4934 1085.92 67.3389 1086.68 65.7997C1087.84 64.2605 1088.99 61.5669 1091.3 58.8733C1092.46 57.3341 1093.61 56.1796 1094.77 54.2556C1095.92 52.7164 1097.46 51.1771 1098.61 49.6379C1100.15 48.0987 1101.31 46.1747 1103.23 44.6355C1104.77 43.0963 1106.31 41.1723 1108.23 39.6331C1109.77 38.0939 1111.7 36.5547 1113.24 35.0154C1114.78 33.4762 1116.7 31.937 1118.24 30.7826C1121.32 28.089 1124.78 25.3954 1127.47 23.4713C1132.86 19.2385 1136.71 16.5449 1136.71 16.5449C1136.71 16.5449 1133.25 19.2385 1127.86 23.8562C1125.17 26.165 1122.09 28.4738 1118.62 31.1674C1117.08 32.7066 1115.16 33.8611 1113.62 35.4003C1112.08 36.9395 1110.16 38.4786 1108.62 40.0178C1107.08 41.5571 1105.54 43.0963 1103.62 44.6355C1102.08 46.1747 1100.54 47.7139 1099 49.6379C1097.46 51.1771 1096.31 52.7164 1094.77 54.2556C1093.61 55.7948 1092.46 57.3341 1091.3 58.4885C1088.99 61.1821 1087.84 63.8757 1086.68 65.4149C1085.92 67.3389 1085.53 68.4934 1085.15 68.4934Z" fill="#646464"/>
<path d="M1124.78 16.5449C1124.78 16.5449 1124.01 17.3144 1122.47 18.8536C1120.93 20.3929 1118.63 21.9321 1116.7 24.6257C1114.39 27.3193 1111.7 30.013 1109.01 33.4763C1106.31 36.5547 1103.23 40.4026 1100.15 43.8659C1098.62 45.7899 1097.08 47.3292 1095.54 49.2532C1094 51.1772 1092.46 52.7164 1090.92 54.2556C1089.38 55.7948 1088.23 57.3341 1086.69 58.4885C1085.15 59.6429 1083.61 61.1821 1082.45 61.9517C1081.3 63.1061 1079.76 63.8758 1078.61 64.6454C1077.45 65.415 1076.3 66.1846 1075.53 66.5694C1073.99 67.7238 1072.83 68.1086 1072.83 68.1086C1072.83 68.1086 1073.6 67.339 1075.53 66.1846C1076.3 65.4149 1077.45 65.0301 1078.61 64.2605C1079.76 63.4909 1080.91 62.7212 1082.45 61.182C1083.61 60.0276 1085.15 58.8732 1086.69 57.334C1088.23 56.1796 1089.38 54.6405 1090.92 53.1013C1092.46 51.562 1094 50.0228 1095.54 48.0987C1097.08 46.5595 1098.62 44.6356 1100.15 43.0963C1103.23 39.6331 1105.93 36.1698 1109.01 32.7066C1111.7 29.2434 1114.39 26.165 1116.7 23.8562C1117.86 22.7018 1119.01 21.5474 1120.16 20.393C1121.32 19.6233 1122.09 18.4689 1122.86 18.0841C1123.63 17.3145 1124.78 16.5449 1124.78 16.5449Z" fill="#646464"/>
<path d="M1087.84 68.4939H1085.92L1137.86 16.5454H1139.79L1087.84 68.4939Z" fill="#646464"/>
<path d="M1087.84 68.4941H1070.52V73.4965H1087.84V68.4941Z" fill="#646464"/>
<path d="M1136.71 73.4949H1134.02L1185.96 21.5464H1188.66L1136.71 73.4949Z" fill="#646464"/>
<path d="M1185.96 16.5449H1168.65L1116.7 68.4934H1134.02L1185.96 16.5449Z" fill="#646464"/>
<path d="M1185.96 21.5473V16.5449L1134.02 68.4934V73.4958L1185.96 21.5473Z" fill="#646464"/>
<path d="M1131.71 68.4934C1131.71 68.4934 1132.48 67.3389 1133.25 65.7997C1134.4 64.2605 1135.56 61.5669 1137.86 58.8733C1139.02 57.3341 1140.17 56.1796 1141.33 54.2556C1142.48 52.7164 1144.02 51.1771 1145.18 49.6379C1146.71 48.0987 1148.25 46.1747 1149.79 44.6355C1151.33 43.0963 1152.87 41.1723 1154.8 39.6331C1156.33 38.0939 1158.26 36.5547 1159.8 35.0154C1161.34 33.4762 1163.26 31.937 1164.8 30.7826C1167.88 28.089 1171.34 25.3954 1174.04 23.4713C1179.42 19.2385 1183.27 16.5449 1183.27 16.5449C1183.27 16.5449 1179.81 19.2385 1174.42 23.8562C1171.73 26.165 1168.65 28.4738 1165.18 31.1674C1163.65 32.7066 1161.72 33.8611 1160.18 35.4003C1158.64 36.9395 1156.72 38.4786 1155.18 40.0178C1153.64 41.5571 1152.1 43.0963 1150.18 44.6355C1148.64 46.1747 1147.1 47.7139 1145.56 49.6379C1144.02 51.1771 1142.87 52.7164 1141.33 54.2556C1140.17 55.7948 1139.02 57.3341 1137.86 58.4885C1135.56 61.1821 1134.4 63.8757 1133.25 65.4149C1132.09 67.3389 1131.71 68.4934 1131.71 68.4934Z" fill="#646464"/>
<path d="M1170.96 16.5449C1170.96 16.5449 1170.19 17.3144 1168.65 18.8536C1167.11 20.3929 1164.8 21.9321 1162.88 24.6257C1160.57 27.3193 1157.87 30.013 1155.18 33.4763C1152.49 36.5547 1149.41 40.4026 1146.33 43.8659C1144.79 45.7899 1143.25 47.3292 1141.71 49.2532C1140.17 51.1772 1138.63 52.7164 1137.1 54.2556C1135.56 55.7948 1134.4 57.3341 1132.86 58.4885C1131.32 59.6429 1129.78 61.1821 1128.63 61.9517C1127.47 63.1061 1125.94 63.8758 1124.78 64.6454C1123.63 65.415 1122.47 66.1846 1121.7 66.5694C1120.16 67.7238 1119.01 68.1086 1119.01 68.1086C1119.01 68.1086 1119.78 67.339 1121.7 66.1846C1122.47 65.4149 1123.63 65.0301 1124.78 64.2605C1125.94 63.4909 1127.09 62.7212 1128.63 61.182C1129.78 60.0276 1131.32 58.8732 1132.86 57.334C1134.4 56.1796 1135.56 54.6405 1137.1 53.1013C1138.63 51.562 1140.17 50.0228 1141.71 48.0987C1143.25 46.5595 1144.79 44.6356 1146.33 43.0963C1149.41 39.6331 1152.1 36.1698 1155.18 32.7066C1157.87 29.2434 1160.57 26.165 1162.88 23.8562C1164.03 22.7018 1165.19 21.5474 1166.34 20.393C1167.49 19.6233 1168.26 18.4689 1169.03 18.0841C1170.19 17.3145 1170.96 16.5449 1170.96 16.5449Z" fill="#646464"/>
<path d="M1134.02 68.4939H1132.09L1184.04 16.5454H1185.96L1134.02 68.4939Z" fill="#646464"/>
<path d="M1134.02 68.4941H1116.7V73.4965H1134.02V68.4941Z" fill="#646464"/>
<path d="M1182.89 73.4949H1180.19L1232.14 21.5464H1234.84L1182.89 73.4949Z" fill="#646464"/>
<path d="M1232.14 16.5449H1215.21L1162.88 68.4934H1180.19L1232.14 16.5449Z" fill="#646464"/>
<path d="M1232.14 21.5473V16.5449L1180.19 68.4934V73.4958L1232.14 21.5473Z" fill="#646464"/>
<path d="M1177.88 68.4934C1177.88 68.4934 1178.65 67.3389 1179.42 65.7997C1180.58 64.2605 1181.73 61.5669 1184.04 58.8733C1185.2 57.3341 1186.35 56.1796 1187.5 54.2556C1188.66 52.7164 1190.2 51.1771 1191.35 49.6379C1192.89 48.0987 1194.05 46.1747 1195.97 44.6355C1197.51 43.0963 1199.05 41.1723 1200.97 39.6331C1202.51 38.0939 1204.44 36.5547 1205.97 35.0154C1207.51 33.4762 1209.44 31.937 1210.98 30.7826C1214.06 28.089 1217.52 25.3954 1220.21 23.4713C1225.6 19.2385 1229.45 16.5449 1229.45 16.5449C1229.45 16.5449 1225.98 19.2385 1220.6 23.8562C1217.9 26.165 1214.83 28.4738 1211.36 31.1674C1209.82 32.7066 1207.9 33.8611 1206.36 35.4003C1204.82 36.9395 1202.9 38.4786 1201.36 40.0178C1199.82 41.5571 1198.28 43.0963 1196.35 44.6355C1194.82 46.1747 1193.28 47.7139 1191.74 49.6379C1190.2 51.1771 1189.04 52.7164 1187.5 54.2556C1186.35 55.7948 1185.2 57.3341 1184.04 58.4885C1181.73 61.1821 1180.58 63.8757 1179.42 65.4149C1178.27 67.3389 1177.88 68.4934 1177.88 68.4934Z" fill="#646464"/>
<path d="M1217.13 16.5449C1217.13 16.5449 1216.37 17.3144 1214.83 18.8536C1213.29 20.3929 1210.98 21.9321 1209.05 24.6257C1206.75 27.3193 1204.05 30.013 1201.36 33.4763C1198.66 36.5547 1195.59 40.4026 1192.51 43.8659C1190.97 45.7899 1189.43 47.3292 1187.89 49.2532C1186.35 51.1772 1184.81 52.7164 1183.27 54.2556C1181.73 55.7948 1180.58 57.3341 1179.04 58.4885C1177.5 59.6429 1175.96 61.1821 1174.81 61.9517C1173.65 63.1061 1172.11 63.8758 1170.96 64.6454C1169.8 65.415 1168.65 66.1846 1167.88 66.5694C1166.34 67.7238 1165.19 68.1086 1165.19 68.1086C1165.19 68.1086 1165.96 67.339 1167.88 66.1846C1168.65 65.4149 1169.8 65.0301 1170.96 64.2605C1172.11 63.4909 1173.27 62.7212 1174.81 61.182C1175.96 60.0276 1177.5 58.8732 1179.04 57.334C1180.58 56.1796 1181.73 54.6405 1183.27 53.1013C1184.81 51.562 1186.35 50.0228 1187.89 48.0987C1189.43 46.5595 1190.97 44.6356 1192.51 43.0963C1195.59 39.6331 1198.28 36.1698 1201.36 32.7066C1204.05 29.2434 1206.75 26.165 1209.05 23.8562C1210.21 22.7018 1211.36 21.5474 1212.52 20.393C1213.67 19.6233 1214.44 18.4689 1215.21 18.0841C1216.37 17.3145 1217.13 16.5449 1217.13 16.5449Z" fill="#646464"/>
<path d="M1180.19 68.4939H1178.27L1230.22 16.5454H1232.14L1180.19 68.4939Z" fill="#646464"/>
<path d="M1180.19 68.4941H1162.88V73.4965H1180.19V68.4941Z" fill="#646464"/>
<path d="M1229.45 73.4949H1226.37L1278.32 21.5464H1281.01L1229.45 73.4949Z" fill="#646464"/>
<path d="M1278.32 16.5449H1261.39L1209.05 68.4934H1226.37L1278.32 16.5449Z" fill="#646464"/>
<path d="M1278.32 21.5473V16.5449L1226.37 68.4934V73.4958L1278.32 21.5473Z" fill="#646464"/>
<path d="M1224.06 68.4934C1224.06 68.4934 1224.83 67.3389 1225.6 65.7997C1226.75 64.2605 1227.91 61.5669 1230.22 58.8733C1231.37 57.3341 1232.53 56.1796 1233.68 54.2556C1234.83 52.7164 1236.37 51.1771 1237.53 49.6379C1239.07 48.0987 1240.22 46.1747 1242.15 44.6355C1243.68 43.0963 1245.22 41.1723 1247.15 39.6331C1248.69 38.0939 1250.61 36.5547 1252.15 35.0154C1253.69 33.4762 1255.61 31.937 1257.15 30.7826C1260.23 28.089 1263.69 25.3954 1266.39 23.4713C1271.78 19.2385 1275.62 16.5449 1275.62 16.5449C1275.62 16.5449 1272.16 19.2385 1266.77 23.8562C1264.08 26.165 1261 28.4738 1257.54 31.1674C1256 32.7066 1254.07 33.8611 1252.54 35.4003C1251 36.9395 1249.07 38.4786 1247.53 40.0178C1245.99 41.5571 1244.45 43.0963 1242.53 44.6355C1240.99 46.1747 1239.45 47.7139 1237.91 49.6379C1236.37 51.1771 1235.22 52.7164 1233.68 54.2556C1232.53 55.7948 1231.37 57.3341 1230.22 58.4885C1227.91 61.1821 1226.75 63.8757 1225.6 65.4149C1224.83 67.3389 1224.06 68.4934 1224.06 68.4934Z" fill="#646464"/>
<path d="M1263.31 16.5449C1263.31 16.5449 1262.54 17.3144 1261 18.8536C1259.46 20.3929 1257.15 21.9321 1255.23 24.6257C1252.92 27.3193 1250.23 30.013 1247.53 33.4763C1244.84 36.5547 1241.76 40.4026 1238.68 43.8659C1237.14 45.7899 1235.61 47.3292 1234.07 49.2532C1232.53 51.1772 1230.99 52.7164 1229.45 54.2556C1227.91 55.7948 1226.75 57.3341 1225.22 58.4885C1223.68 59.6429 1222.14 61.1821 1220.98 61.9517C1219.83 63.1061 1218.29 63.8758 1217.13 64.6454C1215.98 65.415 1214.83 66.1846 1214.06 66.5694C1212.52 67.7238 1211.36 68.1086 1211.36 68.1086C1211.36 68.1086 1212.13 67.339 1214.06 66.1846C1214.83 65.4149 1215.98 65.0301 1217.13 64.2605C1218.29 63.4909 1219.44 62.7212 1220.98 61.182C1222.14 60.0276 1223.68 58.8732 1225.22 57.334C1226.75 56.1796 1227.91 54.6405 1229.45 53.1013C1230.99 51.562 1232.53 50.0228 1234.07 48.0987C1235.61 46.5595 1237.14 44.6356 1238.68 43.0963C1241.76 39.6331 1244.46 36.1698 1247.53 32.7066C1250.23 29.2434 1252.92 26.165 1255.23 23.8562C1256.38 22.7018 1257.54 21.5474 1258.69 20.393C1259.85 19.6233 1260.62 18.4689 1261.39 18.0841C1262.54 17.3145 1263.31 16.5449 1263.31 16.5449Z" fill="#646464"/>
<path d="M1226.37 68.4939H1224.45L1276.39 16.5454H1278.32L1226.37 68.4939Z" fill="#646464"/>
<path d="M1226.37 68.4941H1209.05V73.4965H1226.37V68.4941Z" fill="#646464"/>
<path d="M1275.62 73.4949H1272.54L1324.88 21.5464H1327.57L1275.62 73.4949Z" fill="#646464"/>
<path d="M1324.88 16.5449H1307.56L1255.61 68.4934H1272.54L1324.88 16.5449Z" fill="#646464"/>
<path d="M1324.88 21.5473V16.5449L1272.54 68.4934V73.4958L1324.88 21.5473Z" fill="#646464"/>
<path d="M1270.23 68.4934C1270.23 68.4934 1271 67.3389 1271.77 65.7997C1272.93 64.2605 1274.08 61.5669 1276.39 58.8733C1277.55 57.3341 1278.7 56.1796 1279.85 54.2556C1281.01 52.7164 1282.55 51.1771 1283.7 49.6379C1285.24 48.0987 1286.4 46.1747 1288.32 44.6355C1289.86 43.0963 1291.4 41.1723 1293.32 39.6331C1294.86 38.0939 1296.79 36.5547 1298.32 35.0154C1299.86 33.4762 1301.79 31.937 1303.33 30.7826C1306.41 28.089 1309.87 25.3954 1312.56 23.4713C1317.95 19.2385 1321.8 16.5449 1321.8 16.5449C1321.8 16.5449 1318.33 19.2385 1312.95 23.8562C1310.25 26.165 1307.18 28.4738 1303.71 31.1674C1302.17 32.7066 1300.25 33.8611 1298.71 35.4003C1297.17 36.9395 1295.25 38.4786 1293.71 40.0178C1292.17 41.5571 1290.63 43.0963 1288.7 44.6355C1287.17 46.1747 1285.63 47.7139 1284.09 49.6379C1282.55 51.1771 1281.39 52.7164 1279.85 54.2556C1278.7 55.7948 1277.55 57.3341 1276.39 58.4885C1274.08 61.1821 1272.93 63.8757 1271.77 65.4149C1271 67.3389 1270.23 68.4934 1270.23 68.4934Z" fill="#646464"/>
<path d="M1309.87 16.5449C1309.87 16.5449 1309.1 17.3144 1307.56 18.8536C1306.02 20.3929 1303.71 21.9321 1301.79 24.6257C1299.48 27.3193 1296.79 30.013 1294.09 33.4763C1291.4 36.5547 1288.32 40.4026 1285.24 43.8659C1283.7 45.7899 1282.16 47.3292 1280.62 49.2532C1279.09 51.1772 1277.55 52.7164 1276.01 54.2556C1274.47 55.7948 1273.31 57.3341 1271.77 58.4885C1270.24 59.6429 1268.7 61.1821 1267.54 61.9517C1266.39 63.1061 1264.85 63.8758 1263.69 64.6454C1262.54 65.415 1261.38 66.1846 1260.62 66.5694C1259.08 67.7238 1257.92 68.1086 1257.92 68.1086C1257.92 68.1086 1258.69 67.339 1260.62 66.1846C1261.38 65.4149 1262.54 65.0301 1263.69 64.2605C1264.85 63.4909 1266 62.7212 1267.54 61.182C1268.7 60.0276 1270.24 58.8732 1271.77 57.334C1273.31 56.1796 1274.47 54.6405 1276.01 53.1013C1277.55 51.562 1279.09 50.0228 1280.62 48.0987C1282.16 46.5595 1283.7 44.6356 1285.24 43.0963C1288.32 39.6331 1291.01 36.1698 1294.09 32.7066C1296.79 29.2434 1299.48 26.165 1301.79 23.8562C1302.94 22.7018 1304.1 21.5474 1305.25 20.393C1306.41 19.6233 1307.18 18.4689 1307.95 18.0841C1308.72 17.3145 1309.87 16.5449 1309.87 16.5449Z" fill="#646464"/>
<path d="M1272.54 68.4939H1270.62L1322.95 16.5454H1324.88L1272.54 68.4939Z" fill="#646464"/>
<path d="M1272.93 68.4941H1255.61V73.4965H1272.93V68.4941Z" fill="#646464"/>
<path d="M1321.8 73.4949H1319.11L1371.05 21.5464H1373.75L1321.8 73.4949Z" fill="#646464"/>
<path d="M1371.05 16.5449H1353.74L1301.79 68.4934H1318.72L1371.05 16.5449Z" fill="#646464"/>
<path d="M1371.05 21.5473V16.5449L1318.72 68.4934V73.4958L1371.05 21.5473Z" fill="#646464"/>
<path d="M1316.41 68.4934C1316.41 68.4934 1317.18 67.3389 1317.95 65.7997C1319.11 64.2605 1320.26 61.5669 1322.57 58.8733C1323.72 57.3341 1324.88 56.1796 1326.03 54.2556C1327.19 52.7164 1328.73 51.1771 1329.88 49.6379C1331.42 48.0987 1332.57 46.1747 1334.5 44.6355C1336.04 43.0963 1337.58 41.1723 1339.5 39.6331C1341.04 38.0939 1342.96 36.5547 1344.5 35.0154C1346.04 33.4762 1347.97 31.937 1349.5 30.7826C1352.58 28.089 1356.05 25.3954 1358.74 23.4713C1364.13 19.2385 1367.98 16.5449 1367.98 16.5449C1367.98 16.5449 1364.51 19.2385 1359.13 23.8562C1356.43 26.165 1353.35 28.4738 1349.89 31.1674C1348.35 32.7066 1346.43 33.8611 1344.89 35.4003C1343.35 36.9395 1341.42 38.4786 1339.88 40.0178C1338.35 41.5571 1336.81 43.0963 1334.88 44.6355C1333.34 46.1747 1331.8 47.7139 1330.26 49.6379C1328.73 51.1771 1327.57 52.7164 1326.03 54.2556C1324.88 55.7948 1323.72 57.3341 1322.57 58.4885C1320.26 61.1821 1319.11 63.8757 1317.95 65.4149C1317.18 67.3389 1316.8 68.4934 1316.41 68.4934Z" fill="#646464"/>
<path d="M1356.05 16.5449C1356.05 16.5449 1355.28 17.3144 1353.74 18.8536C1352.2 20.3929 1349.89 21.9321 1347.97 24.6257C1345.66 27.3193 1342.96 30.013 1340.27 33.4763C1337.58 36.5547 1334.5 40.4026 1331.42 43.8659C1329.88 45.7899 1328.34 47.3292 1326.8 49.2532C1325.26 51.1772 1323.72 52.7164 1322.18 54.2556C1320.65 55.7948 1319.49 57.3341 1317.95 58.4885C1316.41 59.6429 1314.87 61.1821 1313.72 61.9517C1312.56 63.1061 1311.03 63.8758 1309.87 64.6454C1308.72 65.415 1307.56 66.1846 1306.79 66.5694C1305.25 67.7238 1304.1 68.1086 1304.1 68.1086C1304.1 68.1086 1304.87 67.339 1306.79 66.1846C1307.56 65.4149 1308.72 65.0301 1309.87 64.2605C1311.03 63.4909 1312.18 62.7212 1313.72 61.182C1314.87 60.0276 1316.41 58.8732 1317.95 57.334C1319.49 56.1796 1320.65 54.6405 1322.18 53.1013C1323.72 51.562 1325.26 50.0228 1326.8 48.0987C1328.34 46.5595 1329.88 44.6356 1331.42 43.0963C1334.5 39.6331 1337.19 36.1698 1340.27 32.7066C1342.96 29.2434 1345.66 26.165 1347.97 23.8562C1349.12 22.7018 1350.28 21.5474 1351.43 20.393C1352.58 19.6233 1353.35 18.4689 1354.12 18.0841C1354.89 17.3145 1356.05 16.5449 1356.05 16.5449Z" fill="#646464"/>
<path d="M1319.11 68.4939H1317.18L1369.13 16.5454H1371.05L1319.11 68.4939Z" fill="#646464"/>
<path d="M1319.11 68.4941H1301.79V73.4965H1319.11V68.4941Z" fill="#646464"/>
<path d="M1367.98 73.4949H1365.28L1417.23 21.5464H1419.92L1367.98 73.4949Z" fill="#646464"/>
<path d="M1417.23 16.5449H1399.91L1347.97 68.4934H1365.28L1417.23 16.5449Z" fill="#646464"/>
<path d="M1417.23 21.5473V16.5449L1365.28 68.4934V73.4958L1417.23 21.5473Z" fill="#646464"/>
<path d="M1362.97 68.4934C1362.97 68.4934 1363.74 67.3389 1364.51 65.7997C1365.67 64.2605 1366.82 61.5669 1369.13 58.8733C1370.28 57.3341 1371.44 56.1796 1372.59 54.2556C1373.75 52.7164 1375.29 51.1771 1376.44 49.6379C1377.98 48.0987 1379.52 46.1747 1381.06 44.6355C1382.6 43.0963 1384.14 41.1723 1386.06 39.6331C1387.6 38.0939 1389.52 36.5547 1391.06 35.0154C1392.6 33.4762 1394.53 31.937 1396.07 30.7826C1399.14 28.089 1402.61 25.3954 1405.3 23.4713C1410.69 19.2385 1414.54 16.5449 1414.54 16.5449C1414.54 16.5449 1411.07 19.2385 1405.69 23.8562C1402.99 26.165 1399.91 28.4738 1396.45 31.1674C1394.91 32.7066 1392.99 33.8611 1391.45 35.4003C1389.91 36.9395 1387.98 38.4786 1386.45 40.0178C1384.91 41.5571 1383.37 43.0963 1381.44 44.6355C1379.9 46.1747 1378.36 47.7139 1376.83 49.6379C1375.29 51.1771 1374.13 52.7164 1372.59 54.2556C1371.44 55.7948 1370.28 57.3341 1369.13 58.4885C1366.82 61.1821 1365.67 63.8757 1364.51 65.4149C1363.36 67.3389 1362.97 68.4934 1362.97 68.4934Z" fill="#646464"/>
<path d="M1402.22 16.5449C1402.22 16.5449 1401.45 17.3144 1399.91 18.8536C1398.38 20.3929 1396.07 21.9321 1394.14 24.6257C1391.83 27.3193 1389.14 30.013 1386.45 33.4763C1383.75 36.5547 1380.67 40.4026 1377.6 43.8659C1376.06 45.7899 1374.52 47.3292 1372.98 49.2532C1371.44 51.1772 1369.9 52.7164 1368.36 54.2556C1366.82 55.7948 1365.67 57.3341 1364.13 58.4885C1362.59 59.6429 1361.05 61.1821 1359.89 61.9517C1358.74 63.1061 1357.2 63.8758 1356.05 64.6454C1354.89 65.415 1353.74 66.1846 1352.97 66.5694C1351.43 67.7238 1350.27 68.1086 1350.27 68.1086C1350.27 68.1086 1351.04 67.339 1352.97 66.1846C1353.74 65.4149 1354.89 65.0301 1356.05 64.2605C1357.2 63.4909 1358.36 62.7212 1359.89 61.182C1361.05 60.0276 1362.59 58.8732 1364.13 57.334C1365.67 56.1796 1366.82 54.6405 1368.36 53.1013C1369.9 51.562 1371.44 50.0228 1372.98 48.0987C1374.52 46.5595 1376.06 44.6356 1377.6 43.0963C1380.67 39.6331 1383.37 36.1698 1386.45 32.7066C1389.14 29.2434 1391.83 26.165 1394.14 23.8562C1395.3 22.7018 1396.45 21.5474 1397.61 20.393C1398.76 19.6233 1399.53 18.4689 1400.3 18.0841C1401.45 17.3145 1402.22 16.5449 1402.22 16.5449Z" fill="#646464"/>
<path d="M1365.28 68.4939H1363.36L1415.31 16.5454H1417.23L1365.28 68.4939Z" fill="#646464"/>
<path d="M1365.28 68.4941H1347.97V73.4965H1365.28V68.4941Z" fill="#646464"/>
<path d="M1414.15 73.4949H1411.46L1463.41 21.5464H1466.1L1414.15 73.4949Z" fill="#646464"/>
<path d="M1463.41 16.5449H1446.48L1394.14 68.4934H1411.46L1463.41 16.5449Z" fill="#646464"/>
<path d="M1463.41 21.5473V16.5449L1411.46 68.4934V73.4958L1463.41 21.5473Z" fill="#646464"/>
<path d="M1409.15 68.4934C1409.15 68.4934 1409.92 67.3389 1410.69 65.7997C1411.84 64.2605 1413 61.5669 1415.31 58.8733C1416.46 57.3341 1417.61 56.1796 1418.77 54.2556C1419.92 52.7164 1421.46 51.1771 1422.62 49.6379C1424.16 48.0987 1425.31 46.1747 1427.23 44.6355C1428.77 43.0963 1430.31 41.1723 1432.24 39.6331C1433.78 38.0939 1435.7 36.5547 1437.24 35.0154C1438.78 33.4762 1440.7 31.937 1442.24 30.7826C1445.32 28.089 1448.78 25.3954 1451.48 23.4713C1456.86 19.2385 1460.71 16.5449 1460.71 16.5449C1460.71 16.5449 1457.25 19.2385 1451.86 23.8562C1449.17 26.165 1446.09 28.4738 1442.63 31.1674C1441.09 32.7066 1439.16 33.8611 1437.62 35.4003C1436.09 36.9395 1434.16 38.4786 1432.62 40.0178C1431.08 41.5571 1429.54 43.0963 1427.62 44.6355C1426.08 46.1747 1424.54 47.7139 1423 49.6379C1421.46 51.1771 1420.31 52.7164 1418.77 54.2556C1417.61 55.7948 1416.46 57.3341 1415.31 58.4885C1413 61.1821 1411.84 63.8757 1410.69 65.4149C1409.53 67.3389 1409.15 68.4934 1409.15 68.4934Z" fill="#646464"/>
<path d="M1448.4 16.5449C1448.4 16.5449 1447.63 17.3144 1446.09 18.8536C1444.55 20.3929 1442.24 21.9321 1440.32 24.6257C1438.01 27.3193 1435.32 30.013 1432.62 33.4763C1429.93 36.5547 1426.85 40.4026 1423.77 43.8659C1422.23 45.7899 1420.69 47.3292 1419.16 49.2532C1417.62 51.1772 1416.08 52.7164 1414.54 54.2556C1413 55.7948 1411.84 57.3341 1410.3 58.4885C1408.77 59.6429 1407.23 61.1821 1406.07 61.9517C1404.92 63.1061 1403.38 63.8758 1402.22 64.6454C1401.07 65.415 1399.91 66.1846 1399.15 66.5694C1397.61 67.7238 1396.45 68.1086 1396.45 68.1086C1396.45 68.1086 1397.22 67.339 1399.15 66.1846C1399.91 65.4149 1401.07 65.0301 1402.22 64.2605C1403.38 63.4909 1404.53 62.7212 1406.07 61.182C1407.23 60.0276 1408.77 58.8732 1410.3 57.334C1411.84 56.1796 1413 54.6405 1414.54 53.1013C1416.08 51.562 1417.62 50.0228 1419.16 48.0987C1420.69 46.5595 1422.23 44.6356 1423.77 43.0963C1426.85 39.6331 1429.54 36.1698 1432.62 32.7066C1435.32 29.2434 1438.01 26.165 1440.32 23.8562C1441.47 22.7018 1442.63 21.5474 1443.78 20.393C1444.94 19.6233 1445.71 18.4689 1446.48 18.0841C1447.63 17.3145 1448.4 16.5449 1448.4 16.5449Z" fill="#646464"/>
<path d="M1411.46 68.4939H1409.53L1461.48 16.5454H1463.41L1411.46 68.4939Z" fill="#646464"/>
<path d="M1411.46 68.4941H1394.14V73.4965H1411.46V68.4941Z" fill="#646464"/>
<path d="M1460.71 73.4949H1457.63L1509.58 21.5464H1512.28L1460.71 73.4949Z" fill="#646464"/>
<path d="M1509.58 16.5449H1492.65L1440.32 68.4934H1457.63L1509.58 16.5449Z" fill="#646464"/>
<path d="M1509.58 21.5473V16.5449L1457.63 68.4934V73.4958L1509.58 21.5473Z" fill="#646464"/>
<path d="M1455.33 68.4934C1455.33 68.4934 1456.09 67.3389 1456.86 65.7997C1458.02 64.2605 1459.17 61.5669 1461.48 58.8733C1462.64 57.3341 1463.79 56.1796 1464.95 54.2556C1466.1 52.7164 1467.64 51.1771 1468.79 49.6379C1470.33 48.0987 1471.49 46.1747 1473.41 44.6355C1474.95 43.0963 1476.49 41.1723 1478.41 39.6331C1479.95 38.0939 1481.88 36.5547 1483.42 35.0154C1484.96 33.4762 1486.88 31.937 1488.42 30.7826C1491.5 28.089 1494.96 25.3954 1497.65 23.4713C1503.04 19.2385 1506.89 16.5449 1506.89 16.5449C1506.89 16.5449 1503.43 19.2385 1498.04 23.8562C1495.34 26.165 1492.27 28.4738 1488.8 31.1674C1487.26 32.7066 1485.34 33.8611 1483.8 35.4003C1482.26 36.9395 1480.34 38.4786 1478.8 40.0178C1477.26 41.5571 1475.72 43.0963 1473.8 44.6355C1472.26 46.1747 1470.72 47.7139 1469.18 49.6379C1467.64 51.1771 1466.48 52.7164 1464.95 54.2556C1463.79 55.7948 1462.64 57.3341 1461.48 58.4885C1459.17 61.1821 1458.02 63.8757 1456.86 65.4149C1456.09 67.3389 1455.33 68.4934 1455.33 68.4934Z" fill="#646464"/>
<path d="M1494.58 16.5449C1494.58 16.5449 1493.81 17.3144 1492.27 18.8536C1490.73 20.3929 1488.42 21.9321 1486.49 24.6257C1484.19 27.3193 1481.49 30.013 1478.8 33.4763C1476.11 36.5547 1473.03 40.4026 1469.95 43.8659C1468.41 45.7899 1466.87 47.3292 1465.33 49.2532C1463.79 51.1772 1462.25 52.7164 1460.71 54.2556C1459.17 55.7948 1458.02 57.3341 1456.48 58.4885C1454.94 59.6429 1453.4 61.1821 1452.25 61.9517C1451.09 63.1061 1449.55 63.8758 1448.4 64.6454C1447.24 65.415 1446.09 66.1846 1445.32 66.5694C1443.78 67.7238 1442.63 68.1086 1442.63 68.1086C1442.63 68.1086 1443.4 67.339 1445.32 66.1846C1446.09 65.4149 1447.24 65.0301 1448.4 64.2605C1449.55 63.4909 1450.71 62.7212 1452.25 61.182C1453.4 60.0276 1454.94 58.8732 1456.48 57.334C1458.02 56.1796 1459.17 54.6405 1460.71 53.1013C1462.25 51.562 1463.79 50.0228 1465.33 48.0987C1466.87 46.5595 1468.41 44.6356 1469.95 43.0963C1473.03 39.6331 1475.72 36.1698 1478.8 32.7066C1481.49 29.2434 1484.19 26.165 1486.49 23.8562C1487.65 22.7018 1488.8 21.5474 1489.96 20.393C1491.11 19.6233 1491.88 18.4689 1492.65 18.0841C1493.81 17.3145 1494.58 16.5449 1494.58 16.5449Z" fill="#646464"/>
<path d="M1457.63 68.4939H1455.71L1507.66 16.5454H1509.58L1457.63 68.4939Z" fill="#646464"/>
<path d="M1457.64 68.4941H1440.32V73.4965H1457.64V68.4941Z" fill="#646464"/>
<path d="M1506.89 73.4949H1503.81L1556.14 21.5464H1558.84L1506.89 73.4949Z" fill="#646464"/>
<path d="M1556.14 16.5449H1538.83L1486.88 68.4934H1503.81L1556.14 16.5449Z" fill="#646464"/>
<path d="M1556.14 21.5473V16.5449L1503.81 68.4934V73.4958L1556.14 21.5473Z" fill="#646464"/>
<path d="M1501.5 68.4934C1501.5 68.4934 1502.27 67.3389 1503.04 65.7997C1504.2 64.2605 1505.35 61.5669 1507.66 58.8733C1508.81 57.3341 1509.97 56.1796 1511.12 54.2556C1512.28 52.7164 1513.82 51.1771 1514.97 49.6379C1516.51 48.0987 1517.66 46.1747 1519.59 44.6355C1521.13 43.0963 1522.67 41.1723 1524.59 39.6331C1526.13 38.0939 1528.05 36.5547 1529.59 35.0154C1531.13 33.4762 1533.06 31.937 1534.59 30.7826C1537.67 28.089 1541.14 25.3954 1543.83 23.4713C1549.22 19.2385 1553.07 16.5449 1553.07 16.5449C1553.07 16.5449 1549.6 19.2385 1544.21 23.8562C1541.52 26.165 1538.44 28.4738 1534.98 31.1674C1533.44 32.7066 1531.52 33.8611 1529.98 35.4003C1528.44 36.9395 1526.51 38.4786 1524.97 40.0178C1523.44 41.5571 1521.9 43.0963 1519.97 44.6355C1518.43 46.1747 1516.89 47.7139 1515.35 49.6379C1513.82 51.1771 1512.66 52.7164 1511.12 54.2556C1509.97 55.7948 1508.81 57.3341 1507.66 58.4885C1505.35 61.1821 1504.2 63.8757 1503.04 65.4149C1502.27 67.3389 1501.5 68.4934 1501.5 68.4934Z" fill="#646464"/>
<path d="M1541.14 16.5449C1541.14 16.5449 1540.37 17.3144 1538.83 18.8536C1537.29 20.3929 1534.98 21.9321 1533.06 24.6257C1530.75 27.3193 1528.05 30.013 1525.36 33.4763C1522.67 36.5547 1519.59 40.4026 1516.51 43.8659C1514.97 45.7899 1513.43 47.3292 1511.89 49.2532C1510.35 51.1772 1508.81 52.7164 1507.27 54.2556C1505.74 55.7948 1504.58 57.3341 1503.04 58.4885C1501.5 59.6429 1499.96 61.1821 1498.81 61.9517C1497.65 63.1061 1496.12 63.8758 1494.96 64.6454C1493.81 65.415 1492.65 66.1846 1491.88 66.5694C1490.34 67.7238 1489.19 68.1086 1489.19 68.1086C1489.19 68.1086 1489.96 67.339 1491.88 66.1846C1492.65 65.4149 1493.81 65.0301 1494.96 64.2605C1496.12 63.4909 1497.27 62.7212 1498.81 61.182C1499.96 60.0276 1501.5 58.8732 1503.04 57.334C1504.58 56.1796 1505.74 54.6405 1507.27 53.1013C1508.81 51.562 1510.35 50.0228 1511.89 48.0987C1513.43 46.5595 1514.97 44.6356 1516.51 43.0963C1519.59 39.6331 1522.28 36.1698 1525.36 32.7066C1528.05 29.2434 1530.75 26.165 1533.06 23.8562C1534.21 22.7018 1535.37 21.5474 1536.52 20.393C1537.67 19.6233 1538.44 18.4689 1539.21 18.0841C1539.98 17.3145 1541.14 16.5449 1541.14 16.5449Z" fill="#646464"/>
<path d="M1503.81 68.4939H1501.89L1554.22 16.5454H1556.14L1503.81 68.4939Z" fill="#646464"/>
<path d="M1504.2 68.4941H1486.88V73.4965H1504.2V68.4941Z" fill="#646464"/>
<path d="M1553.07 73.4949H1550.37L1602.32 21.5464H1605.02L1553.07 73.4949Z" fill="#646464"/>
<path d="M1602.32 16.5449H1585.01L1533.06 68.4934H1549.99L1602.32 16.5449Z" fill="#646464"/>
<path d="M1602.32 21.5473V16.5449L1549.99 68.4934V73.4958L1602.32 21.5473Z" fill="#646464"/>
<path d="M1547.68 68.4934C1547.68 68.4934 1548.45 67.3389 1549.22 65.7997C1550.37 64.2605 1551.53 61.5669 1553.84 58.8733C1554.99 57.3341 1556.14 56.1796 1557.3 54.2556C1558.45 52.7164 1559.99 51.1771 1561.15 49.6379C1562.69 48.0987 1563.84 46.1747 1565.76 44.6355C1567.3 43.0963 1568.84 41.1723 1570.77 39.6331C1572.31 38.0939 1574.23 36.5547 1575.77 35.0154C1577.31 33.4762 1579.23 31.937 1580.77 30.7826C1583.85 28.089 1587.31 25.3954 1590.01 23.4713C1595.39 19.2385 1599.24 16.5449 1599.24 16.5449C1599.24 16.5449 1595.78 19.2385 1590.39 23.8562C1587.7 26.165 1584.62 28.4738 1581.16 31.1674C1579.62 32.7066 1577.69 33.8611 1576.15 35.4003C1574.62 36.9395 1572.69 38.4786 1571.15 40.0178C1569.61 41.5571 1568.07 43.0963 1566.15 44.6355C1564.61 46.1747 1563.07 47.7139 1561.53 49.6379C1559.99 51.1771 1558.84 52.7164 1557.3 54.2556C1556.14 55.7948 1554.99 57.3341 1553.84 58.4885C1551.53 61.1821 1550.37 63.8757 1549.22 65.4149C1548.45 67.3389 1548.06 68.4934 1547.68 68.4934Z" fill="#646464"/>
<path d="M1587.31 16.5449C1587.31 16.5449 1586.55 17.3144 1585.01 18.8536C1583.47 20.3929 1581.16 21.9321 1579.23 24.6257C1576.92 27.3193 1574.23 30.013 1571.54 33.4763C1568.84 36.5547 1565.77 40.4026 1562.69 43.8659C1561.15 45.7899 1559.61 47.3292 1558.07 49.2532C1556.53 51.1772 1554.99 52.7164 1553.45 54.2556C1551.91 55.7948 1550.76 57.3341 1549.22 58.4885C1547.68 59.6429 1546.14 61.1821 1544.99 61.9517C1543.83 63.1061 1542.29 63.8758 1541.14 64.6454C1539.98 65.415 1538.83 66.1846 1538.06 66.5694C1536.52 67.7238 1535.37 68.1086 1535.37 68.1086C1535.37 68.1086 1536.14 67.339 1538.06 66.1846C1538.83 65.4149 1539.98 65.0301 1541.14 64.2605C1542.29 63.4909 1543.45 62.7212 1544.99 61.182C1546.14 60.0276 1547.68 58.8732 1549.22 57.334C1550.76 56.1796 1551.91 54.6405 1553.45 53.1013C1554.99 51.562 1556.53 50.0228 1558.07 48.0987C1559.61 46.5595 1561.15 44.6356 1562.69 43.0963C1565.77 39.6331 1568.46 36.1698 1571.54 32.7066C1574.23 29.2434 1576.92 26.165 1579.23 23.8562C1580.39 22.7018 1581.54 21.5474 1582.7 20.393C1583.85 19.6233 1584.62 18.4689 1585.39 18.0841C1586.16 17.3145 1587.31 16.5449 1587.31 16.5449Z" fill="#646464"/>
<path d="M1549.99 68.4939H1548.06L1600.4 16.5454H1602.32L1549.99 68.4939Z" fill="#646464"/>
<path d="M1550.37 68.4941H1533.06V73.4965H1550.37V68.4941Z" fill="#646464"/>
<path d="M1599.24 73.4949H1596.55L1648.5 21.5464H1651.19L1599.24 73.4949Z" fill="#646464"/>
<path d="M1648.5 16.5449H1631.18L1579.23 68.4934H1596.55L1648.5 16.5449Z" fill="#646464"/>
<path d="M1648.5 21.5473V16.5449L1596.55 68.4934V73.4958L1648.5 21.5473Z" fill="#646464"/>
<path d="M1594.24 68.4934C1594.24 68.4934 1595.01 67.3389 1595.78 65.7997C1596.93 64.2605 1598.09 61.5669 1600.4 58.8733C1601.55 57.3341 1602.71 56.1796 1603.86 54.2556C1605.01 52.7164 1606.55 51.1771 1607.71 49.6379C1609.25 48.0987 1610.4 46.1747 1612.33 44.6355C1613.87 43.0963 1615.4 41.1723 1617.33 39.6331C1618.87 38.0939 1620.79 36.5547 1622.33 35.0154C1623.87 33.4762 1625.79 31.937 1627.33 30.7826C1630.41 28.089 1633.87 25.3954 1636.57 23.4713C1641.96 19.2385 1645.8 16.5449 1645.8 16.5449C1645.8 16.5449 1642.34 19.2385 1636.95 23.8562C1634.26 26.165 1631.18 28.4738 1627.72 31.1674C1626.18 32.7066 1624.25 33.8611 1622.72 35.4003C1621.18 36.9395 1619.25 38.4786 1617.71 40.0178C1616.17 41.5571 1614.63 43.0963 1612.71 44.6355C1611.17 46.1747 1609.63 47.7139 1608.09 49.6379C1606.55 51.1771 1605.4 52.7164 1603.86 54.2556C1602.71 55.7948 1601.55 57.3341 1600.4 58.4885C1598.09 61.1821 1596.93 63.8757 1595.78 65.4149C1594.63 67.3389 1594.24 68.4934 1594.24 68.4934Z" fill="#646464"/>
<path d="M1633.49 16.5449C1633.49 16.5449 1632.72 17.3144 1631.18 18.8536C1629.64 20.3929 1627.33 21.9321 1625.41 24.6257C1623.1 27.3193 1620.41 30.013 1617.71 33.4763C1615.02 36.5547 1611.94 40.4026 1608.86 43.8659C1607.32 45.7899 1605.78 47.3292 1604.25 49.2532C1602.71 51.1772 1601.17 52.7164 1599.63 54.2556C1598.09 55.7948 1596.93 57.3341 1595.4 58.4885C1593.86 59.6429 1592.32 61.1821 1591.16 61.9517C1590.01 63.1061 1588.47 63.8758 1587.31 64.6454C1586.16 65.415 1585.01 66.1846 1584.24 66.5694C1582.7 67.7238 1581.54 68.1086 1581.54 68.1086C1581.54 68.1086 1582.31 67.339 1584.24 66.1846C1585.01 65.4149 1586.16 65.0301 1587.31 64.2605C1588.47 63.4909 1589.62 62.7212 1591.16 61.182C1592.32 60.0276 1593.86 58.8732 1595.4 57.334C1596.93 56.1796 1598.09 54.6405 1599.63 53.1013C1601.17 51.562 1602.71 50.0228 1604.25 48.0987C1605.78 46.5595 1607.32 44.6356 1608.86 43.0963C1611.94 39.6331 1614.64 36.1698 1617.71 32.7066C1620.41 29.2434 1623.1 26.165 1625.41 23.8562C1626.56 22.7018 1627.72 21.5474 1628.87 20.393C1630.03 19.6233 1630.8 18.4689 1631.57 18.0841C1632.72 17.3145 1633.49 16.5449 1633.49 16.5449Z" fill="#646464"/>
<path d="M1596.55 68.4939H1594.63L1646.57 16.5454H1648.5L1596.55 68.4939Z" fill="#646464"/>
<path d="M1596.55 68.4941H1579.23V73.4965H1596.55V68.4941Z" fill="#646464"/>
<path d="M1645.42 73.4949H1642.73L1694.67 21.5464H1697.37L1645.42 73.4949Z" fill="#646464"/>
<path d="M1694.67 16.5449H1677.74L1625.41 68.4934H1642.73L1694.67 16.5449Z" fill="#646464"/>
<path d="M1694.67 21.5473V16.5449L1642.73 68.4934V73.4958L1694.67 21.5473Z" fill="#646464"/>
<path d="M1640.42 68.4934C1640.42 68.4934 1641.19 67.3389 1641.96 65.7997C1643.11 64.2605 1644.26 61.5669 1646.57 58.8733C1647.73 57.3341 1648.88 56.1796 1650.04 54.2556C1651.19 52.7164 1652.73 51.1771 1653.88 49.6379C1655.42 48.0987 1656.58 46.1747 1658.5 44.6355C1660.04 43.0963 1661.58 41.1723 1663.51 39.6331C1665.04 38.0939 1666.97 36.5547 1668.51 35.0154C1670.05 33.4762 1671.97 31.937 1673.51 30.7826C1676.59 28.089 1680.05 25.3954 1682.75 23.4713C1688.13 19.2385 1691.98 16.5449 1691.98 16.5449C1691.98 16.5449 1688.52 19.2385 1683.13 23.8562C1680.44 26.165 1677.36 28.4738 1673.89 31.1674C1672.36 32.7066 1670.43 33.8611 1668.89 35.4003C1667.35 36.9395 1665.43 38.4786 1663.89 40.0178C1662.35 41.5571 1660.81 43.0963 1658.89 44.6355C1657.35 46.1747 1655.81 47.7139 1654.27 49.6379C1652.73 51.1771 1651.58 52.7164 1650.04 54.2556C1648.88 55.7948 1647.73 57.3341 1646.57 58.4885C1644.26 61.1821 1643.11 63.8757 1641.96 65.4149C1640.8 67.3389 1640.42 68.4934 1640.42 68.4934Z" fill="#646464"/>
<path d="M1679.67 16.5449C1679.67 16.5449 1678.9 17.3144 1677.36 18.8536C1675.82 20.3929 1673.51 21.9321 1671.59 24.6257C1669.28 27.3193 1666.58 30.013 1663.89 33.4763C1661.2 36.5547 1658.12 40.4026 1655.04 43.8659C1653.5 45.7899 1651.96 47.3292 1650.42 49.2532C1648.88 51.1772 1647.34 52.7164 1645.8 54.2556C1644.27 55.7948 1643.11 57.3341 1641.57 58.4885C1640.03 59.6429 1638.49 61.1821 1637.34 61.9517C1636.18 63.1061 1634.65 63.8758 1633.49 64.6454C1632.34 65.415 1631.18 66.1846 1630.41 66.5694C1628.87 67.7238 1627.72 68.1086 1627.72 68.1086C1627.72 68.1086 1628.49 67.339 1630.41 66.1846C1631.18 65.4149 1632.34 65.0301 1633.49 64.2605C1634.65 63.4909 1635.8 62.7212 1637.34 61.182C1638.49 60.0276 1640.03 58.8732 1641.57 57.334C1643.11 56.1796 1644.27 54.6405 1645.8 53.1013C1647.34 51.562 1648.88 50.0228 1650.42 48.0987C1651.96 46.5595 1653.5 44.6356 1655.04 43.0963C1658.12 39.6331 1660.81 36.1698 1663.89 32.7066C1666.58 29.2434 1669.28 26.165 1671.59 23.8562C1672.74 22.7018 1673.9 21.5474 1675.05 20.393C1676.2 19.6233 1676.97 18.4689 1677.74 18.0841C1678.9 17.3145 1679.67 16.5449 1679.67 16.5449Z" fill="#646464"/>
<path d="M1642.73 68.4939H1640.8L1692.75 16.5454H1694.67L1642.73 68.4939Z" fill="#646464"/>
<path d="M1642.73 68.4941H1625.41V73.4965H1642.73V68.4941Z" fill="#646464"/>
<path d="M1731.62 30.7837V33.4774L1700.83 64.2616L1691.98 73.4969H1688.9L1700.83 61.568L1731.62 30.7837Z" fill="#646464"/>
<path d="M1731.61 21.1625V16.5449H1723.92L1718.92 21.5473H1718.53L1714.3 25.7802L1712.37 27.7042L1700.83 39.6331L1671.59 68.4934H1686.98H1688.9L1700.83 56.5645L1727.38 30.013L1729.69 27.7042L1731.61 25.7802V23.8562V21.5473V21.1625Z" fill="#646464"/>
<path d="M1731.62 25.7822V30.7846L1700.83 61.1841L1688.9 73.4978V68.4954L1700.83 56.5665L1727.38 30.0151L1731.62 25.7822Z" fill="#646464"/>
<path d="M1731.61 21.1631C1731.23 21.5479 1731.23 21.5479 1731.23 21.5479C1730.46 22.3175 1729.69 22.7023 1728.92 23.4719C1727.38 24.6263 1725.46 26.1656 1723.53 27.7048C1723.15 28.0896 1722.76 28.4744 1722.38 28.8592C1721.61 29.6288 1720.84 30.0136 1720.07 30.7832C1718.53 32.3224 1716.61 33.4768 1715.07 35.016C1713.53 36.5552 1711.6 38.0945 1710.07 39.6337C1708.53 41.1729 1706.99 42.7121 1705.06 44.6361C1703.52 45.7905 1702.37 47.3297 1701.21 48.4842C1700.83 48.869 1700.83 49.2538 1700.45 49.2538C1698.91 50.793 1697.75 52.3322 1696.21 53.8714C1695.06 55.4106 1693.9 56.9499 1692.75 58.4891C1690.44 61.1827 1689.29 63.8763 1688.13 65.4155C1686.98 67.3395 1686.59 68.1092 1686.59 68.1092C1686.59 68.1092 1687.36 66.9547 1688.13 65.4155C1689.29 63.8763 1690.44 61.1827 1692.75 58.4891C1693.9 57.3347 1695.06 55.7954 1696.21 54.2562C1697.37 52.717 1698.91 51.1777 1700.45 49.6385C1700.45 49.2537 1700.83 49.2538 1700.83 49.2538C1701.98 47.7146 1703.52 46.1754 1705.06 45.021C1706.6 43.4817 1708.14 41.9425 1710.07 40.4033C1711.6 38.864 1713.53 37.3249 1715.07 35.7857C1716.61 34.2465 1718.53 32.7072 1720.07 31.5528C1720.84 30.7832 1721.99 30.0136 1722.76 29.244C1723.15 28.8592 1723.92 28.4744 1724.3 28.0896C1726.23 26.5504 1727.77 25.396 1729.31 23.8568C1730.07 23.0872 1731.23 22.3175 1732 21.9327V21.1631H1731.61Z" fill="#646464"/>
<path d="M1725.84 16.5449C1725.84 16.5449 1725.07 17.3144 1723.53 18.8536C1722 20.3929 1719.69 21.9321 1717.76 24.6257C1715.45 27.3193 1712.76 30.013 1710.07 33.4763C1707.37 36.5547 1704.29 40.4026 1701.22 43.8659C1699.68 45.7899 1698.14 47.3292 1696.6 49.2532C1695.06 51.1772 1693.52 52.7164 1691.98 54.2556C1690.44 55.7948 1689.29 57.3341 1687.75 58.4885C1686.21 59.6429 1684.67 61.1821 1683.52 61.9517C1682.36 63.1061 1680.82 63.8758 1679.67 64.6454C1678.51 65.415 1677.36 66.1846 1676.59 66.5694C1675.05 67.7238 1673.9 68.1086 1673.9 68.1086C1673.9 68.1086 1674.66 67.339 1676.59 66.1846C1677.36 65.4149 1678.51 65.0301 1679.67 64.2605C1680.82 63.4909 1681.98 62.7212 1683.52 61.182C1684.67 60.0276 1686.21 58.8732 1687.75 57.334C1689.29 56.1796 1690.44 54.6405 1691.98 53.1013C1693.52 51.562 1695.06 50.0228 1696.6 48.0987C1698.14 46.5595 1699.68 44.6356 1701.22 43.0963C1704.29 39.6331 1706.99 36.1698 1710.07 32.7066C1712.76 29.2434 1715.45 26.165 1717.76 23.8562C1718.92 22.7018 1720.07 21.5474 1721.23 20.393C1722.38 19.6233 1723.15 18.4689 1723.92 18.0841C1725.07 17.3145 1725.84 16.5449 1725.84 16.5449Z" fill="#646464"/>
<path d="M1731.62 23.8589V25.7829L1727.38 30.0158L1700.83 56.5672L1688.9 68.4961H1686.98L1700.83 54.6432L1725.84 29.6309L1731.62 23.8589Z" fill="#646464"/>
<path d="M1688.9 68.4941H1671.59V73.4965H1688.9V68.4941Z" fill="#646464"/>
<path d="M1731.62 45.0186H0V66.5676H1731.62V45.0186Z" fill="#141414"/>
<path d="M1731.62 45.0186H0V51.5601H1731.62V45.0186Z" fill="#141414"/>
</svg>
