<svg width="1539" height="200" viewBox="0 0 1539 200" fill="none" xmlns="http://www.w3.org/2000/svg">
<path d="M1481.35 145.648H1289.52V38.7211C1285.97 39.4316 1282.42 39.7869 1282.42 39.7869V31.2611C1282.42 31.2611 1305.15 19.5382 1337.12 19.5382C1369.09 19.5382 1392.54 31.2611 1392.54 31.2611V39.7869C1392.54 39.7869 1388.99 39.0764 1381.88 38.3659V78.1528C1381.88 77.7975 1383.3 77.7975 1384.01 77.7975H1396.09V61.8117C1396.09 56.4831 1401.07 52.9307 1406.39 52.9307H1407.46C1412.79 52.9307 1417.41 56.4831 1417.41 61.8117V78.1528H1428.06V40.8526L1418.12 23.4458L1428.77 0H1459.33L1469.98 24.1563L1460.04 40.8526V78.1528H1470.69V75.3108C1470.69 60.0355 1483.84 46.1812 1499.11 46.1812H1513.32V67.4956H1499.11C1494.14 67.4956 1492.01 70.3375 1492.01 75.3108V78.1528H1496.63H1509.77C1516.87 78.8632 1520.07 85.968 1522.91 96.27C1526.82 99.1119 1529.31 107.638 1529.31 117.229C1529.31 126.821 1526.82 134.991 1522.91 138.188C1520.07 148.49 1516.87 155.595 1509.77 156.306H1505.51L1538.54 198.934H1489.17V191.829H1479.22C1476.38 195.382 1471.05 200 1465.01 200C1458.97 200 1453.64 195.382 1450.8 191.829H1445.12C1442.27 195.382 1436.95 200 1430.91 200C1424.87 200 1419.54 195.382 1416.7 191.829H1399.64C1394.32 195.382 1386.86 199.29 1379.04 199.29C1370.16 199.29 1361.99 195.382 1356.66 188.277H1340.32C1334.64 195.382 1326.82 198.579 1317.94 198.579C1301.24 198.579 1287.39 185.435 1287.39 169.094C1287.39 164.476 1289.88 160.213 1290.59 156.661H1481.35V145.648ZM1360.57 46.1812H1314.39V78.1528H1360.57V46.1812Z" fill="#141414"/>
<path d="M1271.76 177.62H1247.25C1245.47 189.343 1235.52 197.869 1223.09 197.869C1212.08 197.869 1202.84 190.409 1200 180.107C1196.8 190.053 1187.92 197.158 1176.91 197.158C1164.83 197.158 1154.53 188.988 1152.75 177.62H1105.15C1103.37 189.343 1093.43 197.869 1080.99 197.869C1069.98 197.869 1060.75 190.409 1057.9 180.107C1054.71 190.053 1045.83 197.158 1034.81 197.158C1022.74 197.158 1012.43 188.988 1010.66 177.62H980.817V159.858H1272.11V177.62H1271.76Z" fill="#141414"/>
<path d="M1127.89 30.9058C1239.43 30.9058 1282.42 49.7335 1282.42 49.7335V67.4955H1271.76V149.201H980.462V67.4955H969.805V49.7335C969.805 49.7335 1016.7 30.9058 1127.89 30.9058ZM1218.47 117.229H1243.34V74.6003H1218.47V117.229ZM1165.19 117.229H1190.05V74.6003H1165.19V117.229ZM1115.45 117.229H1140.32V74.6003H1115.45V117.229ZM1062.17 117.229H1087.03V74.6003H1062.17V117.229ZM1012.43 117.229H1037.3V74.6003H1012.43V117.229Z" fill="#141414"/>
<path d="M948.49 177.62H923.979C922.203 189.343 912.256 197.869 899.823 197.869C888.81 197.869 879.574 190.409 876.732 180.107C873.535 190.053 864.654 197.158 853.641 197.158C841.563 197.158 831.261 188.988 829.485 177.62H781.883C780.107 189.343 770.16 197.869 757.727 197.869C746.714 197.869 737.478 190.409 734.636 180.107C731.439 190.053 722.558 197.158 711.546 197.158C699.467 197.158 689.165 188.988 687.389 177.62H657.549V159.858H948.846V177.62H948.49Z" fill="#141414"/>
<path d="M804.618 30.9058C915.808 30.9058 959.148 49.7335 959.148 49.7335V67.4955H948.491V149.201H657.194V67.4955H646.537V49.7335C646.537 49.7335 693.428 30.9058 804.618 30.9058ZM895.205 117.229H920.071V74.6003H895.205V117.229ZM841.919 117.229H866.785V74.6003H841.919V117.229ZM792.185 117.229H817.052V74.6003H792.185V117.229ZM738.899 117.229H763.766V74.6003H738.899V117.229ZM689.165 117.229H714.032V74.6003H689.165V117.229Z" fill="#141414"/>
<path d="M625.222 177.62H600.711C598.934 189.343 588.988 197.869 576.554 197.869C565.542 197.869 556.306 190.409 553.464 180.107C550.267 190.053 541.386 197.158 530.373 197.158C518.295 197.158 507.993 188.988 506.217 177.62H458.615C456.838 189.343 446.892 197.869 434.458 197.869C423.446 197.869 414.21 190.409 411.368 180.107C408.171 190.053 399.29 197.158 388.277 197.158C376.199 197.158 365.897 188.988 364.121 177.62H334.281V159.858H625.577V177.62H625.222Z" fill="#141414"/>
<path d="M481.35 30.9058C592.54 30.9058 635.879 49.7335 635.879 49.7335V67.4955H625.222V149.201H333.926V67.4955H323.268V49.7335C323.268 49.7335 370.16 30.9058 481.35 30.9058ZM571.936 117.229H596.803V74.6003H571.936V117.229ZM518.65 117.229H543.517V74.6003H518.65V117.229ZM468.917 117.229H493.783V74.6003H468.917V117.229ZM415.631 117.229H440.498V74.6003H415.631V117.229ZM365.897 117.229H390.764V74.6003H365.897V117.229Z" fill="#141414"/>
<path d="M301.954 177.62H277.443C275.666 189.343 265.72 197.869 253.286 197.869C242.274 197.869 233.038 190.409 230.196 180.107C226.999 190.053 218.118 197.158 207.105 197.158C195.027 197.158 184.725 188.988 182.949 177.62H135.347C133.57 189.343 123.624 197.869 111.19 197.869C100.178 197.869 90.9417 190.409 88.0998 180.107C84.9026 190.053 76.0216 197.158 65.0092 197.158C52.931 197.158 42.629 188.988 40.8528 177.62H11.0127V159.858H302.309V177.62H301.954Z" fill="#141414"/>
<path d="M158.082 30.9058C269.272 30.9058 312.611 49.7335 312.611 49.7335V67.4955H301.954V149.201H10.6573V67.4955H6.29425e-05V49.7335C6.29425e-05 49.7335 46.8917 30.9058 158.082 30.9058ZM248.668 117.229H273.535V74.6003H248.668V117.229ZM195.382 117.229H220.249V74.6003H195.382V117.229ZM145.648 117.229H170.515V74.6003H145.648V117.229ZM92.3624 117.229H117.229V74.6003H92.3624V117.229ZM42.6288 117.229H67.4956V74.6003H42.6288V117.229Z" fill="#141414"/>
</svg>
