<svg width="1753" height="695" viewBox="0 0 1753 695" fill="none" xmlns="http://www.w3.org/2000/svg">
<path d="M1753 175.194C1753 347.322 1753 519.449 1753 691.577C1753 694.059 1752.56 694.935 1749.79 694.935C1167.74 694.789 585.695 694.789 3.79358 694.935C1.02124 694.935 0.583496 694.205 0.583496 691.577C0.729409 538.72 0.729409 385.718 0.729409 232.716C4.37724 227.898 10.3597 227.752 15.3207 225.708C17.5094 224.832 19.6981 224.394 21.8868 223.372C23.6378 222.496 25.3887 222.204 27.2856 222.204C30.4957 222.204 33.5599 221.912 36.624 221.036C39.5423 220.16 42.6065 219.722 45.6706 219.868C53.6959 220.452 61.7211 218.847 69.7463 219.722C73.1023 220.16 76.1665 217.679 79.5225 217.241C80.252 217.095 81.1275 216.657 81.8571 216.803C91.9251 218.409 100.534 214.175 108.559 209.503C116.584 204.685 124.026 198.699 131.322 192.86C141.827 184.538 151.895 175.778 162.985 168.186C170.426 163.077 178.743 159.719 187.06 156.215C205.3 148.331 224.706 144.243 243.821 139.864C250.97 138.258 258.266 137.528 265.708 137.09C273.295 136.652 280.591 137.236 287.74 139.572C290.805 140.593 294.015 140.739 297.079 140.447C305.25 140.01 312.4 143.367 319.695 145.995C324.365 147.601 328.596 150.083 333.119 151.835C340.561 154.609 347.565 158.843 355.59 160.595C359.092 161.325 361.427 164.245 364.491 165.851C369.452 168.624 374.267 170.376 380.103 168.478C382.876 167.602 386.086 167.748 389.15 167.748C394.549 167.894 398.343 170.668 401.115 175.194C407.243 184.976 416.582 191.108 425.774 197.677C434.091 203.517 443.138 208.627 450.579 215.927C453.644 218.993 457.291 221.62 460.647 224.54C462.69 226.292 465.025 227.752 467.651 228.482C480.346 232.424 493.186 235.344 506.464 235.49C511.133 235.49 515.803 234.614 520.034 231.694C524.12 228.92 528.789 227.606 533.604 226.876C534.771 226.73 535.939 226.292 536.814 225.562C539.441 223.226 542.359 223.372 545.277 224.54C551.551 227.022 557.972 229.358 564.1 231.986C569.353 234.176 574.752 234.176 580.004 234.906C585.111 235.636 590.364 235.928 595.325 238.118C599.703 240.016 604.518 239.286 609.187 238.848C615.024 238.264 621.006 237.534 626.988 237.388C629.031 237.388 630.928 236.658 632.679 235.782C640.558 231.548 649.021 228.774 656.901 224.686C663.175 221.328 668.282 216.511 674.264 212.861C684.77 206.729 695.568 201.181 706.803 196.655C710.888 194.903 714.828 192.86 718.476 190.378C724.75 185.998 731.462 185.56 738.466 188.188C741.676 189.356 745.032 189.794 748.388 188.48C749.701 187.896 750.869 188.48 752.036 189.21C752.911 189.648 753.641 190.67 754.516 190.524C761.812 189.356 768.962 193.443 776.403 190.232C782.532 187.604 789.39 186.582 795.08 183.37C807.191 176.362 820.323 171.106 832.288 163.953C842.94 157.675 853.737 151.835 864.535 145.557C877.229 138.258 889.778 130.958 903.786 126.432C908.747 124.826 913.708 124.096 918.815 123.658C932.968 122.49 946.684 123.804 960.254 128.33C971.051 131.98 981.849 135.63 992.209 140.593C994.106 141.469 994.835 142.783 994.398 144.827C993.814 147.601 992.938 150.375 991.187 152.419C988.561 155.631 985.935 158.989 983.162 162.201C979.952 165.997 977.326 170.23 979.223 175.632C979.514 176.362 979.66 177.384 979.223 178.114C977.326 181.326 977.618 184.392 978.639 187.896C979.514 190.962 979.66 193.881 978.347 197.093C977.034 200.451 980.682 205.269 984.621 205.707C988.999 206.145 992.647 208.627 997.024 208.773C998.629 208.773 1000.23 209.357 1001.84 209.065C1006.36 208.043 1010.59 209.065 1014.97 209.795C1022.27 211.109 1029.71 212.423 1037 210.087C1043.28 208.043 1049.84 207.897 1056.26 207.313C1062.39 206.875 1068.08 205.561 1073.34 202.641C1077.42 200.305 1081.65 199.867 1086.03 199.575C1087.2 199.429 1088.51 199.575 1089.39 198.699C1091.87 195.633 1095.66 195.487 1099.02 194.465C1102.08 193.589 1104.85 191.984 1107.63 190.816C1113.32 188.48 1119.15 186.582 1124.55 182.786C1129.08 179.574 1134.33 176.508 1140.31 175.778C1146.88 174.902 1152.13 171.106 1157.24 167.164C1165.26 161.033 1174.16 157.529 1184.08 156.653C1185.11 156.507 1186.27 156.507 1187.15 156.069C1191.96 153.879 1196.78 153.587 1201.89 154.609C1208.01 155.631 1214.29 155.047 1220.27 156.215C1232.09 158.405 1244.05 159.865 1254.85 165.851C1257.19 167.164 1259.67 167.602 1262.15 168.332C1274.11 171.544 1285.64 176.946 1298.04 178.552C1305.78 179.574 1313.22 181.91 1321.1 181.326C1324.45 181.034 1327.95 182.64 1331.46 182.202C1336.27 181.618 1340.36 181.618 1343.71 186.436C1345.17 188.626 1349.11 187.75 1352.03 187.604C1352.76 187.604 1353.34 187.02 1354.07 187.166C1357.43 188.188 1360.49 188.772 1363.85 186.728C1365.16 185.852 1366.48 187.75 1367.64 188.626C1370.27 190.67 1372.9 192.568 1376.4 190.086C1377.57 189.356 1379.02 189.94 1380.48 190.378C1386.47 192.276 1392.01 191.692 1396.53 186.874C1398.28 185.122 1400.04 184.392 1402.66 184.246C1408.5 184.1 1414.19 182.932 1419.88 181.91C1421.78 181.618 1423.24 180.304 1424.7 179.136C1426.3 177.676 1428.05 177.53 1429.8 178.844C1430.97 179.72 1432.28 180.596 1433.74 180.158C1437.24 178.99 1440.6 179.574 1443.81 181.034C1444.54 181.326 1445.41 181.326 1446.29 181.18C1449.79 180.742 1453.29 180.45 1456.65 181.472C1461.9 183.078 1466.57 180.012 1471.53 180.158C1475.62 180.304 1479.27 179.282 1482.91 177.676C1484.81 176.8 1486.56 175.924 1487.73 174.318C1488.75 173.004 1489.92 172.42 1491.38 171.836C1494 170.814 1496.63 169.646 1497.8 166.726C1498.38 165.413 1499.69 165.121 1501.01 164.975C1503.34 164.537 1505.09 163.369 1506.55 161.617C1508.16 159.427 1509.91 157.383 1511.66 155.339C1512.97 153.587 1514.14 151.835 1513.41 149.499C1513.12 148.477 1513.26 147.017 1514.14 146.579C1517.06 145.411 1518.66 142.053 1522.02 141.907C1523.77 141.761 1524.5 140.739 1524.21 139.134C1523.62 135.484 1526.1 133.732 1528.73 132.272C1531.21 130.958 1533.4 129.644 1535.44 127.454C1537.34 125.264 1540.55 124.388 1543.18 122.782C1545.66 121.322 1548.14 119.862 1551.06 119.132C1554.85 118.256 1556.16 114.46 1554.56 110.957C1552.81 107.161 1550.33 103.657 1548.58 99.861C1547.55 97.8171 1545.66 96.7951 1543.47 96.5031C1540.55 96.0652 1538.07 94.4592 1535.3 93.5832C1533.25 92.9993 1531.8 91.6853 1531.94 89.2034C1532.23 86.7215 1534.28 86.8675 1536.03 86.2835C1547.85 82.6337 1559.81 84.6776 1571.92 84.8236C1579.8 84.9696 1587.68 85.2616 1595.41 85.5536C1602.42 85.8455 1609.57 86.5755 1616.57 87.5975C1619.78 88.0354 1621.97 90.2254 1624.3 92.1233C1625.76 93.2913 1625.47 95.3352 1623.72 96.2112C1621.97 97.0871 1620.07 98.1091 1618.03 97.8171C1615.4 97.5251 1613.51 98.6931 1611.9 100.591C1609.42 103.511 1606.94 106.139 1603 107.015C1601.69 107.307 1600.81 108.329 1600.23 109.643C1599.64 110.957 1598.77 111.979 1597.6 112.855C1594.83 115.336 1594.83 117.234 1597.46 120.008C1599.79 122.344 1602.71 123.95 1605.34 125.848C1608.98 128.622 1609.13 130.812 1605.92 134.024C1601.69 138.112 1598.77 143.221 1594.54 147.309C1593.37 148.477 1593.37 149.937 1593.22 151.543C1592.35 159.427 1595.85 165.121 1601.54 169.938C1603.44 171.544 1604.61 173.734 1606.21 175.486C1609.42 178.99 1613.21 181.91 1618.32 182.348C1620.22 182.494 1621.97 182.64 1623.72 183.662C1625.18 184.538 1626.93 184.976 1628.54 184.538C1634.08 183.224 1639.92 184.83 1645.46 182.64C1648.09 181.618 1651.01 182.932 1653.78 183.078C1660.93 183.516 1667.64 181.18 1674.5 180.304C1682.23 179.428 1689.53 177.384 1696.68 174.464C1699.3 173.442 1701.93 173.588 1704.7 173.734C1709.96 174.172 1715.06 173.15 1720.32 172.712C1729.51 171.836 1738.85 170.814 1748.18 172.42C1750.52 172.566 1752.12 173.296 1753 175.194Z" fill="#4F72B0"/>
<path d="M1753 175.194C1747.16 173.588 1741.18 173.15 1735.05 173.442C1726.59 173.734 1718.13 174.756 1709.66 175.778C1708.79 175.924 1707.77 175.486 1706.89 175.486C1703.1 175.048 1699.6 175.048 1695.95 176.654C1688.51 179.719 1680.63 181.471 1672.6 182.201C1671.29 182.347 1669.83 182.493 1668.52 182.931C1662.1 184.683 1655.53 185.121 1648.82 183.953C1647.5 183.661 1646.34 184.099 1645.02 184.391C1638.75 185.851 1632.18 186.435 1625.76 185.559C1619.05 184.683 1612.19 182.785 1606.5 178.697C1605.92 178.26 1605.19 177.822 1605.04 177.238C1603.73 172.274 1598.77 170.522 1596.29 166.726C1593.95 163.076 1591.04 159.864 1591.47 154.17C1591.91 148.331 1594.1 144.973 1597.6 141.031C1600.52 137.965 1602.86 134.315 1605.92 131.249C1607.82 129.497 1606.21 128.183 1604.75 127.015C1601.69 124.387 1597.75 122.782 1595.12 119.57C1592.5 116.212 1592.35 114.752 1595.56 111.978C1597.02 110.664 1598.33 109.642 1598.77 107.598C1599.06 106.138 1600.23 105.408 1601.54 105.116C1606.65 104.24 1609.42 100.444 1612.34 96.9406C1613.65 95.4806 1614.67 94.4586 1616.72 95.3346C1619.2 96.3566 1621.97 95.4806 1623.14 93.8747C1624.16 92.2687 1621.09 91.8307 1619.93 90.8088C1616.43 87.7429 1611.76 88.0349 1607.52 87.7429C1587.68 86.2829 1567.98 85.6989 1548.14 85.407C1543.32 85.261 1539.24 87.8889 1534.57 87.8889C1533.98 87.8889 1533.4 88.3269 1533.4 88.9109C1533.25 90.0788 1533.98 90.8088 1534.86 91.1008C1537.78 91.6848 1540.11 93.5827 1543.03 94.0207C1546.53 94.6046 1549.45 95.7726 1550.91 99.8605C1552.37 103.948 1555 107.744 1557.18 111.54C1558.5 113.876 1558.35 115.336 1556.16 117.526C1553.83 119.862 1551.35 120.884 1548.28 121.76C1544.34 122.928 1540.4 125.263 1537.92 127.745C1534.71 131.103 1530.48 132.271 1527.27 135.191C1526.11 136.213 1524.65 137.381 1527.13 138.549C1528 138.987 1527.86 139.571 1527.42 140.301C1526.54 141.907 1525.67 143.805 1523.62 143.367C1519.83 142.637 1518.52 146.725 1515.45 147.163C1514.87 147.163 1514.87 148.185 1515.16 148.769C1516.77 151.689 1515.02 153.44 1513.26 155.484C1510.93 158.112 1508.89 161.032 1506.84 163.806C1505.68 165.412 1503.93 165.704 1502.18 165.996C1500.42 166.288 1499.26 166.872 1498.53 168.77C1497.51 171.69 1494.15 171.69 1491.96 173.004C1490.94 173.588 1489.77 173.734 1489.04 174.756C1486.12 178.989 1481.02 179.427 1477.08 181.617C1475.04 182.785 1471.68 180.887 1468.91 181.617C1468.47 181.763 1467.89 181.471 1467.59 181.763C1462.34 185.851 1457.09 182.493 1451.69 182.055C1449.65 181.909 1447.46 182.347 1445.42 182.493C1443.66 182.639 1441.77 182.639 1440.31 181.617C1438.7 180.595 1437.1 180.741 1435.35 181.325C1433.01 182.055 1430.53 182.347 1428.64 180.157C1427.47 178.843 1426.45 179.427 1425.28 180.303C1422.8 182.493 1420.17 184.391 1416.52 183.661C1415.36 183.369 1414.04 183.953 1412.88 184.829C1411.71 185.705 1410.54 185.267 1409.37 185.267C1404.85 185.559 1399.89 184.245 1396.24 188.917C1393.91 191.983 1389.68 193.005 1385.74 192.713C1383.26 192.567 1380.48 193.589 1378.3 191.253C1377.71 190.669 1376.54 191.253 1375.81 191.983C1373.92 194.319 1372.02 193.589 1369.98 192.129C1369.25 191.545 1368.37 191.107 1367.79 190.377C1365.31 187.895 1362.83 186.581 1360.06 190.231C1359.18 191.399 1357.72 191.399 1356.85 190.085C1355.39 188.041 1354.07 188.187 1351.88 189.209C1348.38 190.815 1341.67 188.333 1339.77 184.975C1338.46 182.785 1337.59 182.931 1335.1 183.515C1331.75 184.245 1327.96 183.369 1324.31 183.077C1323.14 182.931 1321.97 182.201 1320.95 182.347C1313.51 183.661 1306.51 180.741 1299.36 179.865C1288.41 178.551 1278.2 174.756 1267.84 170.96C1265.94 170.23 1263.75 169.792 1261.71 169.5C1255.29 168.186 1250.04 164.39 1243.91 162.492C1232.82 159.28 1221.58 156.944 1210.06 156.36C1206.26 156.214 1202.32 155.776 1198.53 155.192C1195.9 154.754 1193.42 154.754 1190.94 155.776C1186.57 157.82 1181.9 157.966 1177.37 158.842C1170.81 160.01 1164.97 162.93 1159.72 166.726C1152.71 171.69 1145.71 175.632 1137.25 177.822C1130.83 179.427 1124.41 183.077 1119.3 188.041C1117.99 189.355 1116.82 189.647 1114.92 189.647C1110.84 189.793 1107.33 192.275 1103.54 193.735C1101.79 194.319 1100.04 195.195 1098.14 195.779C1095.37 196.655 1092.01 196.655 1090.41 199.867C1089.82 201.035 1088.51 201.035 1087.34 201.035C1082.82 200.743 1078.59 201.035 1074.36 203.663C1067.5 207.75 1059.77 208.918 1051.89 208.918C1048.68 208.918 1045.61 210.816 1042.26 209.794C1041.97 209.648 1041.38 209.94 1041.24 210.086C1040.8 214.758 1038.03 211.838 1035.98 211.838C1033.65 211.838 1031.31 212.422 1028.98 212.568C1022.12 213.298 1015.7 210.962 1008.99 210.086C1007.09 209.794 1005.34 209.794 1003.44 209.94C998.046 210.378 992.647 210.67 987.832 207.458C987.394 207.166 986.664 207.166 986.081 207.166C981.266 207.02 976.888 203.663 975.721 199.137C975.429 198.115 975.283 196.947 975.721 196.071C978.056 191.837 976.888 187.895 974.7 184.099C973.97 182.639 974.7 181.617 975.429 180.595C976.888 178.405 977.18 176.362 976.45 173.734C975.137 168.77 977.618 164.536 980.682 161.032C984.767 156.36 989.145 151.834 991.625 145.995C992.501 143.805 992.209 142.929 989.729 141.615C985.935 139.571 981.703 138.403 977.91 136.505C972.219 133.731 966.091 132.125 960.108 130.227C952.813 128.037 945.517 125.409 938.075 125.117C924.651 124.534 911.373 124.388 898.533 129.789C889.049 133.731 880.002 138.549 870.955 143.513C861.617 148.769 852.278 154.17 842.794 158.988C837.687 161.47 833.31 165.12 828.057 167.748C819.594 171.982 810.693 175.34 802.814 180.595C794.059 186.435 783.991 189.063 774.215 192.421C770.713 193.589 767.065 194.611 763.417 192.421C761.375 191.107 759.04 192.421 756.851 192.713C755.246 193.005 753.787 193.005 752.182 191.983C751.015 191.107 749.41 187.895 748.096 191.983C748.096 192.129 747.367 192.275 747.221 192.129C742.552 190.085 737.153 190.669 732.338 188.625C729.128 187.311 725.772 187.895 722.853 189.647C708.846 198.407 693.087 203.371 678.934 211.692C673.243 215.05 667.552 218.7 662.3 222.788C660.84 223.956 659.235 224.978 657.63 225.854C649.605 230.234 640.85 233.007 632.825 237.387C627.28 240.453 620.714 239.139 614.732 239.869C609.917 240.453 605.248 240.745 600.432 240.745C597.368 240.745 594.596 240.015 591.678 238.847C587.738 237.241 583.361 236.949 578.983 236.657C577.816 236.511 576.649 236.657 575.481 236.657C568.915 236.657 563.079 234.321 557.242 231.693C552.719 229.65 547.758 228.336 543.38 226C541.192 224.832 538.857 224.978 537.106 227.314C536.377 228.336 535.355 228.774 534.188 228.92C528.351 229.65 523.098 231.11 518.137 234.905C515.365 236.949 510.842 237.825 507.194 237.679C493.478 237.241 480.054 234.759 466.922 230.671C464.004 229.796 461.231 228.628 459.334 226.584C455.249 222.204 449.996 219.284 445.91 214.904C441.679 210.232 435.551 208.188 430.881 204.247C422.564 197.239 412.205 192.713 404.909 184.245C402.282 181.179 400.094 177.967 397.759 174.756C395.279 171.252 391.923 169.938 388.129 169.938C384.627 169.938 381.125 169.938 377.769 170.96C373.975 172.128 370.327 171.544 366.68 169.646C360.259 166.288 354.131 162.638 347.127 160.156C333.703 155.338 320.863 148.623 307.439 143.805C303.353 142.345 299.414 142.929 295.328 142.637C289.054 142.345 283.217 140.301 277.235 139.425C269.064 138.257 260.893 139.133 252.867 140.301C237.692 142.637 222.809 146.141 208.218 150.521C194.648 154.608 181.224 159.28 168.967 166.434C161.088 170.96 153.792 176.654 146.643 182.639C141.39 187.019 136.283 191.983 130.446 195.779C126.215 198.553 122.421 202.203 118.336 205.122C111.332 209.94 104.328 215.196 95.8649 217.24C92.8007 217.97 89.7366 218.408 86.9642 220.16C86.0887 220.744 84.7755 220.598 83.9 220.014C80.6899 218.116 77.6258 219.576 74.5616 220.598C72.6647 221.328 70.7679 222.204 68.871 221.766C64.9313 221.182 60.9917 221.766 57.052 221.766C47.7136 221.62 38.5211 222.642 29.1826 224.102C19.9901 225.562 11.5271 229.066 3.06417 232.131C2.04278 232.423 1.02139 232.715 0 233.007C0 224.394 0 215.78 0 207.02C1.31322 200.451 7.73339 197.093 9.92209 191.107C12.4026 184.391 17.2177 179.573 22.4706 175.194C23.0543 174.756 23.492 174.172 23.7838 173.588C28.7449 165.704 36.3324 160.156 43.7739 155.046C50.4859 150.375 58.3652 147.163 66.8282 145.557C76.7503 143.659 86.2346 139.571 95.8649 136.651C99.075 135.629 101.847 134.169 104.766 132.709C108.705 130.665 113.083 130.081 116.876 127.453C122.567 123.658 129.571 122.052 134.532 117.088C135.991 115.774 138.326 115.628 140.222 114.606C144.454 112.416 147.81 109.35 151.604 106.576C155.981 103.364 160.65 100.59 165.611 98.4005C168.238 97.2325 170.864 95.9186 173.345 94.3126C179.765 90.0788 187.061 87.8889 193.481 83.947C193.627 83.801 193.919 83.655 194.064 83.655C200.047 83.655 204.57 80.1512 209.531 77.5233C214.2 75.0414 219.453 75.3333 224.56 74.4574C229.667 73.5814 234.774 73.1434 239.881 73.2894C243.967 73.2894 248.344 72.9974 252.284 74.6034C253.743 75.1873 255.202 75.4794 256.661 75.6253C259.579 75.6253 262.206 76.3553 264.832 77.3773C268.042 78.5452 271.544 79.4212 274.9 80.0052C281.175 81.3191 286.719 84.677 291.388 89.0568C294.453 91.8307 296.495 95.7726 300.873 97.0865C305.688 98.4005 310.357 97.0865 313.421 93.8747C317.799 89.3488 323.052 87.3049 328.45 85.261C335.162 82.7791 341.874 80.0052 348.295 76.7933C349.754 76.0633 351.213 75.1874 352.818 74.7494C358.071 73.2894 361.573 69.4936 365.366 65.8437C367.409 63.7998 367.409 61.6098 366.242 59.1279C360.843 47.7404 352.088 40.5867 340.123 36.9368C324.073 32.119 307.877 27.5931 291.68 22.7753C281.175 19.5634 270.377 17.6655 259.433 16.3516C258.266 16.2056 257.099 16.2056 256.223 15.3296C255.202 13.4317 256.223 12.7017 257.828 11.9717C260.601 10.6578 263.227 9.05183 264.249 5.83995C267.167 3.94202 270.377 4.52601 273.441 5.25598C280.007 7.15391 286.573 8.75987 292.702 11.5338C304.667 16.9356 317.799 18.3955 329.764 23.7973C332.098 24.8193 334.725 24.8192 337.205 25.6952C338.081 25.9872 338.81 26.2792 339.394 26.8632C345.522 29.3451 351.505 32.265 357.487 34.8929C358.946 35.4769 360.114 36.4988 361.427 37.2288C370.182 42.9226 379.958 47.1564 388.275 53.5802C392.506 56.792 397.467 59.1279 401.991 62.0478C407.973 65.8437 414.539 68.4716 420.959 71.3915C430.298 75.4794 438.907 80.7352 447.224 86.7209C455.687 92.7067 463.566 99.7144 472.613 104.678C478.887 108.036 484.869 111.832 491.435 114.752C504.422 120.738 516.532 128.621 529.373 135.045C533.021 136.943 536.377 139.279 539.587 141.615C542.067 143.367 544.548 144.681 547.904 144.535C552.865 144.535 557.096 146.871 561.328 149.207C567.31 152.564 573.876 154.316 579.859 157.382C585.257 160.01 590.802 161.616 596.785 162.2C601.308 162.492 605.248 160.74 609.479 160.01C618.672 158.404 628.01 156.652 637.057 153.878C638.808 153.294 640.559 153.586 642.309 153.294C648.876 152.418 655.004 150.375 661.278 148.477C667.407 146.579 673.827 145.119 679.955 142.783C680.539 142.637 681.122 142.783 681.56 143.221C682.436 144.097 682.29 144.973 681.852 145.995C680.976 148.331 681.852 150.083 684.041 151.104C684.77 151.542 685.937 151.689 686.229 152.418C687.543 155.484 689.148 154.608 690.899 152.856C692.066 152.418 692.941 151.688 693.525 150.667C694.984 148.185 697.319 147.017 699.945 146.579C703.155 145.703 705.782 143.951 708.262 141.761C710.743 143.221 711.035 144.389 709.284 146.287C708.116 147.601 706.657 148.477 705.636 150.083C704.614 151.688 705.052 152.71 706.949 153.148C714.828 155.046 722.708 157.674 731.025 157.382C738.174 157.09 744.595 154.754 750.139 150.521C752.182 148.915 754.663 148.769 756.851 147.893C760.937 146.141 765.022 143.805 769.692 143.659C771.151 143.659 772.756 143.075 773.923 142.053C776.404 139.863 779.468 139.279 782.678 139.133C783.991 139.133 785.304 139.133 786.472 138.695C800.187 134.607 814.341 131.687 827.911 127.015C832.142 125.555 836.228 123.804 839.876 121.322C846.15 117.234 852.278 113.146 858.844 109.35C864.097 106.43 869.35 103.51 874.749 100.59C883.504 95.7726 893.28 93.7287 903.056 91.8307C905.391 91.3928 907.434 90.5168 909.914 90.6628C916.48 91.1007 922.609 92.9987 929.029 94.0207C935.741 95.1886 941.577 98.8385 948.289 100.152C950.186 100.444 951.937 100.736 953.834 100.59C963.318 99.7145 972.949 99.8604 982.433 98.9845C994.69 97.8165 1007.09 97.2325 1019.35 96.3565C1023.73 96.0646 1027.96 96.7945 1032.19 97.0865C1044.88 97.9625 1057.29 100.59 1069.54 104.094C1070.86 104.532 1072.46 104.824 1073.34 105.846C1077.13 109.934 1081.95 113.584 1082.38 119.862C1082.68 122.782 1084.57 124.68 1086.18 126.869C1089.82 131.687 1094.06 134.461 1100.91 134.461C1115.65 134.315 1129.95 132.563 1144.25 129.205C1152.42 127.161 1160.74 125.701 1168.91 124.096C1176.64 122.782 1183.79 125.263 1190.21 129.059C1195.47 132.125 1200.57 135.191 1206.7 136.651C1210.93 137.527 1215.31 136.797 1219.54 137.965C1228.15 140.155 1237.34 139.133 1245.95 141.907C1248.43 142.637 1251.06 142.491 1253.54 142.637C1260.98 143.075 1267.84 145.557 1274.99 147.309C1280.39 148.623 1285.93 149.937 1291.19 151.689C1302.57 155.338 1315.11 155.922 1325.47 163.076C1328.68 165.266 1332.77 166.726 1336.86 167.164C1338.75 167.31 1339.77 168.478 1340.21 170.23C1340.94 173.15 1342.69 174.318 1345.61 174.026C1346.92 173.88 1348.24 173.88 1349.26 174.756C1351.88 176.946 1355.24 176.362 1358.16 177.238C1364 178.843 1368.96 175.632 1374.5 175.486C1375.23 175.486 1375.67 174.756 1376.25 174.318C1377.71 173.004 1379.32 172.712 1381.07 174.026C1382.67 175.194 1384.28 175.486 1385.88 174.172C1386.9 173.442 1388.07 173.296 1389.24 173.442C1390.99 173.588 1392.45 173.296 1393.62 171.836C1394.49 170.668 1395.95 170.084 1396.97 170.814C1401.5 174.026 1405.29 170.668 1409.08 169.208C1411.42 168.332 1413.46 166.872 1416.23 167.164C1417.84 167.456 1419.44 166.726 1420.9 165.85C1423.53 164.39 1425.86 162.93 1429.07 163.806C1430.09 164.098 1430.97 163.076 1431.7 162.346C1434.76 159.134 1437.68 155.776 1442.79 155.046C1445.85 154.608 1448.48 152.71 1450.08 149.207C1451.69 145.995 1455.19 144.389 1458.4 142.783C1465.99 138.841 1472.55 133.877 1478.25 127.307C1481.46 123.512 1483.79 119.132 1487.73 115.628C1490.79 113.146 1494.59 110.08 1495.46 105.262C1495.76 103.802 1496.19 102.342 1495.32 100.882C1495.03 100.444 1494.73 99.5684 1495.03 99.2764C1497.21 96.0646 1496.19 91.8307 1498.97 88.7649C1499.55 88.0349 1500.28 87.4509 1500.72 86.5749C1502.9 81.9031 1507.43 82.0491 1511.51 81.6111C1515.16 81.1731 1518.96 81.7571 1522.6 80.4431C1525.81 79.2752 1529.46 80.2972 1532.96 79.4212C1536.17 78.5452 1539.68 78.5452 1543.03 78.6912C1544.34 78.8372 1545.66 78.5452 1546.68 77.6693C1549.01 76.0633 1551.35 76.2093 1553.68 77.3773C1555.73 78.3992 1557.77 78.9832 1559.96 78.6912C1564.04 78.1073 1568.13 78.8372 1572.36 78.2532C1575.86 77.8152 1580.24 78.3992 1583.89 80.0052C1585.2 80.5892 1586.66 80.8812 1587.97 80.1512C1590.31 78.8372 1592.64 79.2752 1595.12 80.0052C1598.48 81.0271 1601.83 82.3411 1605.34 80.1512C1605.48 80.0052 1605.77 80.0052 1606.07 80.0052C1612.19 81.9031 1618.47 78.9832 1624.6 80.5892C1625.47 80.8811 1626.35 81.1731 1627.22 81.6111C1628.54 82.3411 1630 83.2171 1631.45 83.0711C1635.69 82.3411 1639.92 83.363 1644.15 83.217C1648.38 83.071 1652.76 83.947 1656.99 82.3411C1661.07 80.8812 1665.6 81.6111 1669.39 79.7132C1673.62 77.6693 1677.71 77.0853 1682.09 77.6693C1682.38 77.6693 1682.82 77.8153 1683.11 77.6693C1688.65 73.5814 1695.07 76.9393 1701.05 75.4793C1706.31 74.1654 1712.14 74.7494 1717.69 74.8954C1718.27 74.8954 1718.86 75.1874 1719.44 75.0414C1723.53 73.5814 1727.61 73.2894 1731.26 76.2093C1731.55 76.5013 1732.13 76.5013 1732.57 76.3553C1737.39 74.4574 1742.06 76.9393 1746.73 76.5013C1748.77 76.3553 1750.37 77.8153 1752.12 78.6912C1753 110.81 1753 143.075 1753 175.194Z" fill="#4A6BAA"/>
<path d="M1174.89 53.8721C1178.69 57.5219 1183.79 59.2738 1188.02 62.1937C1191.82 64.6756 1195.61 67.3036 1198.97 70.5154C1200.86 72.4134 1203.49 74.1653 1205.97 75.1872C1208.74 76.3552 1210.79 78.2531 1213.27 79.7131C1216.62 81.903 1220.13 84.0929 1223.77 85.9909C1230.92 89.4947 1236.61 95.0425 1243.03 99.5683C1247.41 102.634 1251.93 105.7 1257.04 107.744C1259.38 108.62 1260.84 111.394 1263.9 110.518C1264.63 110.08 1265.36 110.372 1265.8 110.664C1269.44 112.562 1272.36 111.248 1275.13 108.912C1277.91 105.7 1280.97 102.926 1285.79 103.364C1286.81 103.072 1287.68 102.05 1288.56 102.196C1291.18 102.488 1291.48 100.59 1292.06 98.9844C1293.67 98.1084 1295.42 97.3784 1297.02 96.3564C1300.09 94.8965 1303.15 94.8965 1306.51 95.0425C1307.38 95.0425 1307.97 95.1885 1308.4 96.0645C1307.82 99.7143 1304.32 100.006 1301.98 101.028C1297.46 102.926 1296.88 103.656 1300.09 107.16C1311.47 119.716 1323.87 130.811 1340.65 135.921C1346.34 137.673 1351.74 140.155 1357.58 141.177C1360.2 141.615 1362.68 141.469 1365.16 141.615C1368.96 141.761 1372.75 142.345 1376.54 142.637C1381.94 143.221 1387.05 142.199 1392.3 140.155C1397.7 137.965 1404.12 138.549 1408.94 134.315C1409.23 134.023 1409.81 133.877 1410.25 133.877C1414.92 134.899 1418.28 131.979 1421.92 130.081C1423.53 129.351 1424.99 128.329 1426.59 127.745C1427.61 127.453 1428.78 126.869 1429.07 125.847C1429.95 122.489 1432.72 121.176 1435.2 119.57C1437.1 118.256 1438.56 116.358 1438.85 114.168C1439.29 110.226 1441.04 107.16 1443.08 103.948C1445.27 100.298 1446.29 96.0645 1449.21 92.7066C1451.69 89.7867 1454.75 87.3048 1455.92 83.5089C1456.21 82.633 1457.38 82.049 1458.4 81.611C1459.42 81.319 1460.74 80.881 1461.03 80.0051C1462.49 76.5012 1466.72 76.0632 1468.32 72.8514C1468.91 71.6834 1470.51 71.6834 1471.83 71.6834C1477.08 71.6834 1482.33 71.8294 1487.44 72.1214C1491.52 72.4134 1496.19 71.8294 1500.13 74.3113C1503.34 76.2092 1506.84 75.7712 1510.2 74.1653C1512.1 73.2893 1513.85 73.2893 1515.89 74.0193C1518.08 74.7493 1520.41 75.3333 1522.75 74.1653C1523.33 73.8733 1524.21 73.8733 1524.79 74.0193C1532.09 76.5012 1538.07 72.4133 1544.49 70.0774C1546.53 69.3475 1547.55 67.3036 1548.72 65.5516C1553.97 57.5219 1557.04 48.7623 1557.62 39.2726C1558.21 31.0969 1556.46 23.2132 1552.95 15.7675C1552.37 14.4536 1551.2 13.1396 1552.52 11.6796C1556.45 11.3876 1560.39 11.6797 1564.33 12.9936C1570.02 14.8915 1576.15 15.9135 1581.99 17.2275C1590.01 18.9794 1597.89 20.8773 1605.92 22.3373C1607.52 22.6292 1608.84 23.5052 1610.3 24.0892C1615.26 26.2791 1620.66 26.1331 1625.91 27.4471C1635.83 29.929 1645.46 33.2869 1655.09 36.3527C1664.43 39.4186 1674.06 41.4625 1682.96 45.9883C1685.59 47.3023 1688.51 47.3023 1691.28 47.8863C1695.36 48.7623 1699.45 49.9302 1703.54 50.8062C1711.12 52.4121 1718.86 52.5581 1726.59 53.2881C1732.13 53.726 1737.68 54.894 1742.93 56.646C1744.83 57.2299 1747.02 57.6679 1748.91 57.6679C1750.37 57.6679 1751.54 57.9599 1752.71 58.6899C1752.71 65.2596 1752.71 71.8294 1752.71 78.2531C1748.77 78.6911 1744.97 78.1071 1741.18 77.5232C1738.99 77.2312 1736.8 76.6472 1734.76 77.6692C1732.57 78.6911 1730.68 78.3991 1728.92 76.6472C1727.17 75.0412 1725.42 74.4573 1723.23 75.9172C1722.07 76.7932 1720.61 76.7932 1719.15 76.6472C1714.48 76.0632 1709.96 76.9392 1705.29 77.0852C1702.22 77.2312 1699.3 76.9392 1696.68 78.6911C1696.24 78.9831 1695.22 78.6911 1694.78 78.3991C1691.57 76.5012 1688.51 76.9392 1685.59 78.9831C1684.71 79.5671 1683.69 80.0051 1682.67 79.7131C1678.15 78.5451 1673.92 79.1291 1669.83 81.611C1668.52 82.487 1666.47 82.633 1664.72 82.487C1662.53 82.487 1660.93 82.925 1659.32 84.3849C1658.3 85.4069 1656.7 86.4288 1655.53 84.2389C1655.38 84.0929 1655.24 83.8009 1655.09 83.6549C1654.8 83.9469 1654.51 84.2389 1654.22 84.6769C1651.59 87.7428 1650.42 87.8888 1647.21 85.1149C1646.05 84.0929 1644.88 84.2389 1643.71 84.8229C1641.67 85.6989 1639.77 85.4069 1637.58 84.9689C1634.52 84.3849 1631.02 85.6988 1628.1 83.9469C1625.47 82.341 1622.7 82.049 1619.78 81.611C1617.59 81.319 1615.84 81.319 1614.97 83.8009C1614.24 85.6989 1613.22 85.4069 1611.9 83.9469C1609.86 81.757 1607.38 80.735 1604.61 82.487C1601.25 84.5309 1598.19 82.341 1595.27 81.611C1592.64 81.0271 1590.31 80.5891 1588.12 82.341C1586.8 83.363 1585.49 83.363 1584.32 82.195C1582.72 80.4431 1580.53 80.4431 1578.49 80.7351C1576.88 80.881 1575.42 81.027 1574.11 80.0051C1573.82 79.7131 1573.09 79.4211 1572.8 79.5671C1569 82.633 1564.92 80.0051 1560.98 80.443C1560.39 80.443 1559.67 80.5891 1559.37 80.8811C1557.33 83.071 1556.31 82.487 1554.7 80.0051C1553.54 78.1072 1550.76 77.0852 1548.58 78.9831C1546.82 80.443 1545.22 80.589 1543.03 80.443C1538.51 80.0051 1533.98 80.4431 1529.75 82.195C1529.02 82.487 1528.44 82.633 1527.71 82.195C1524.94 80.881 1522.75 81.465 1521 83.8009C1520.71 84.0929 1520.27 84.3849 1519.98 84.6769C1517.79 80.881 1514.43 85.5529 1511.66 83.5089C1509.76 82.195 1504.22 84.3849 1503.2 86.4288C1502.61 87.7428 1501.59 88.6188 1500.57 89.6407C1499.84 90.3707 1498.82 91.2467 1499.26 92.2686C1500.28 94.8965 1501.01 96.7944 1497.36 98.1084C1496.34 98.4004 1497.51 100.006 1498.38 100.444C1499.69 101.32 1499.69 102.196 1498.67 103.218C1497.8 104.24 1497.36 105.408 1497.36 106.722C1497.36 107.16 1497.36 107.89 1497.07 108.036C1493.27 110.518 1492.25 115.774 1487.88 117.818C1487.29 118.11 1486.27 118.402 1486.12 118.84C1485.54 123.803 1480.43 125.409 1478.54 129.351C1477.52 131.687 1475.33 133.147 1473.28 134.461C1468.32 137.673 1464.24 141.907 1458.69 144.389C1455.63 145.849 1451.25 147.455 1450.38 152.71C1449.94 155.484 1445.42 156.068 1442.79 156.36C1438.12 156.944 1435.49 159.864 1433.3 163.222C1431.7 165.558 1430.24 166.288 1427.76 165.266C1426.45 164.682 1425.28 164.536 1424.26 165.558C1422.65 167.164 1420.46 168.04 1418.57 168.04C1412.73 167.894 1408.35 171.252 1403.39 173.15C1401.35 173.88 1399.01 174.172 1397.12 172.42C1395.8 171.106 1395.08 171.836 1394.64 173.15C1393.76 175.485 1392.3 176.215 1389.97 174.902C1388.51 174.172 1387.2 174.609 1386.32 175.923C1384.57 178.259 1382.96 177.967 1381.21 175.923C1380.48 175.047 1379.75 173.734 1378.44 174.318C1377.13 174.902 1378.3 176.215 1378.15 177.091C1377.86 179.135 1376.4 178.405 1375.52 177.821C1373.48 176.361 1371.29 176.215 1369.39 177.675C1365.75 180.595 1361.95 178.697 1358.16 178.551C1354.66 178.405 1351.3 178.259 1348.53 175.631C1347.51 174.756 1346.05 175.193 1344.74 175.339C1341.53 175.777 1339.48 174.318 1338.9 171.252C1338.46 169.062 1337.59 168.916 1335.54 168.332C1330.58 167.018 1325.77 165.266 1321.53 162.492C1315.26 158.404 1308.26 156.652 1301.11 155.776C1295.85 155.046 1291.19 152.71 1286.08 151.834C1279.8 150.666 1273.38 148.914 1267.4 146.725C1259.23 143.659 1250.77 144.681 1242.6 142.783C1237.63 141.615 1232.38 139.863 1226.69 141.469C1224.5 142.053 1221.88 139.863 1219.25 139.425C1214.14 138.403 1208.89 139.425 1203.78 137.527C1198.97 135.775 1194.74 133.439 1190.36 130.957C1183.5 127.015 1176.21 124.241 1168.03 125.993C1153.88 129.059 1139.73 132.271 1125.57 134.753C1115.36 136.505 1105.15 136.067 1094.79 135.921C1089.97 135.775 1088.22 131.395 1085.45 128.621C1082.53 125.993 1081.51 122.197 1080.19 118.402C1078.3 112.854 1074.94 107.598 1068.08 105.554C1059.48 103.072 1050.57 101.32 1041.82 100.006C1033.65 98.8383 1025.19 97.9624 1016.72 98.5464C1007.97 99.1303 999.213 99.5683 990.604 100.152C982.287 100.736 973.824 101.466 965.507 102.05C955.585 102.78 945.809 103.072 936.324 98.4004C931.655 96.0645 926.11 94.6045 920.42 94.6045C916.918 94.6045 914 92.5606 910.206 92.7066C907.288 92.7066 904.661 93.7285 902.035 94.3125C891.091 96.6484 880.294 99.1303 870.663 105.262C864.681 108.912 858.553 112.416 852.133 115.482C848.922 117.088 846.296 119.424 843.524 121.468C836.228 126.577 827.911 129.059 819.594 131.833C808.942 135.337 797.853 136.943 787.201 140.593C785.742 141.177 783.991 140.885 782.386 141.031C779.614 141.177 776.987 141.615 775.09 143.659C774.069 144.681 772.756 145.265 771.297 145.265C764.585 145.557 759.04 149.644 752.766 151.104C750.577 151.688 749.118 153.878 747.075 154.9C737.737 159.718 728.106 160.156 718.038 157.674C711.91 156.214 705.636 155.046 698.778 151.834C704.177 151.25 705.198 146.725 708.408 144.681C709.575 143.951 708.992 142.783 707.824 142.199C707.241 140.301 707.241 140.301 710.159 139.425C711.618 139.425 712.931 138.549 713.953 137.673C715.266 136.943 716.433 136.067 718.038 136.213C719.643 136.359 721.248 136.359 721.686 134.169C721.832 133.001 722.562 132.271 723.291 131.541C725.042 130.227 726.939 129.789 728.982 129.935C732.192 131.249 735.402 132.709 738.904 133.293C743.281 138.111 755.1 139.863 760.645 135.921C764.147 133.439 768.087 132.125 771.88 130.665C775.82 129.059 779.176 125.993 783.262 124.825C788.223 123.365 791.287 118.11 796.831 117.818C797.561 117.818 798.145 117.38 798.728 116.796C804.711 110.518 812.736 108.182 820.178 104.824C827.911 101.466 835.79 98.8383 843.815 96.3564C856.072 92.7066 868.183 88.4728 881.023 86.4288C884.525 85.8449 887.735 84.3849 890.945 83.2169C898.095 80.735 905.391 81.173 912.686 80.1511C917.502 79.4211 922.171 77.3772 927.132 77.9612C928.445 78.1072 929.758 78.1072 930.926 78.6911C933.114 79.7131 935.157 79.7131 937.346 78.8371C940.556 77.5231 944.204 77.9611 947.414 78.2531C954.563 78.9831 961.859 78.1071 969.009 79.1291C970.176 79.2751 971.489 79.1291 972.511 78.6911C977.472 76.2092 983.017 75.6252 987.832 73.1433C992.647 70.6614 998.046 70.6614 1003.15 69.7855C1010.3 68.4715 1017.45 67.8875 1024.75 67.7416C1043.86 67.4496 1062.54 70.5154 1080.63 76.9392C1088.07 79.5671 1094.93 83.0709 1102.08 86.2828C1104.71 87.4508 1106.9 89.2027 1108.94 90.9547C1113.61 94.7505 1119.01 94.8965 1124.55 94.0206C1125.87 93.8746 1126.74 92.8526 1127.76 91.9766C1134.33 85.8448 1137.83 78.1071 1139.73 69.4935C1140.46 66.1356 1142.06 63.2157 1143.23 60.0038C1144.54 56.062 1144.98 52.2661 1144.4 48.3243C1143.81 45.4044 1144.98 42.7765 1145.27 40.0026C1145.42 39.4186 1145.86 38.9806 1146.44 38.8346C1153.73 40.0026 1159.28 44.6744 1165.26 48.1783C1166.14 48.6162 1166.72 49.3462 1167.3 50.0762C1169.49 52.8501 1171.97 53.8721 1174.89 53.8721Z" fill="#4869A8"/>
<path d="M257.391 14.5996C269.939 14.7456 281.904 17.9575 293.869 21.1694C309.628 25.4032 325.24 30.513 340.853 34.8929C353.985 38.5427 363.324 46.4264 369.014 58.69C371.057 63.0698 368.868 68.4716 364.199 70.5155C363.616 70.8075 362.74 70.8075 362.302 71.2455C355.007 77.5233 345.522 79.2752 337.497 83.655C332.098 86.5749 325.824 87.1589 320.717 90.5168C320.133 90.9547 319.258 91.1008 318.966 91.5387C316.34 95.3346 313.276 97.5245 308.46 98.2545C304.521 98.8385 298.83 98.8385 296.35 95.3346C292.264 89.6408 286.573 86.1369 280.883 82.6331C280.445 82.3411 280.007 82.1951 279.57 82.0491C271.544 81.1731 264.249 77.0853 256.224 76.5013C252.576 76.2093 249.22 74.3114 245.426 74.6034C240.027 75.0413 234.628 74.1654 229.23 75.4793C226.311 76.2093 223.247 76.2093 220.329 76.3553C214.638 76.6473 209.969 78.9832 205.446 81.9031C204.133 82.7791 202.965 83.947 201.36 83.947C195.378 83.947 190.709 87.5969 185.456 89.6408C178.16 92.5607 171.74 96.9406 164.882 100.59C159.629 103.364 153.647 105.992 149.415 111.102C147.226 113.876 143.433 115.628 139.931 116.796C137.158 117.818 134.97 119.132 132.781 120.738C126.799 125.117 119.795 128.037 113.083 131.103C98.3455 137.965 82.8787 142.929 66.9742 146.871C63.0346 147.893 58.8031 148.331 55.4471 150.521C50.3401 153.878 44.3577 155.63 39.8344 160.302C37.3538 162.93 35.1651 166.726 30.9337 167.748C29.1827 168.186 29.1827 170.376 28.1613 171.544C24.9512 175.486 21.4493 179.135 17.5097 182.493C14.2996 185.267 13.7159 189.647 11.6731 193.005C8.75488 197.969 4.5234 201.765 1.02148 206.29C1.02148 166.142 1.02148 125.847 1.02148 85.699C4.66931 83.655 7.58757 80.5891 11.5272 78.9832C12.2568 78.6912 12.9864 78.3992 13.8618 78.8372C15.6128 80.1511 15.321 81.9031 15.1751 83.655C14.8832 88.6189 18.677 94.0206 23.4921 95.1886C24.3676 95.4806 25.2431 95.3346 25.8267 94.7506C28.1613 92.2687 30.9337 92.5607 34.1438 92.5607C37.2079 92.7067 40.5639 91.9767 43.774 91.5387C44.6495 91.3927 45.6709 91.1007 46.5464 91.3927C54.8634 94.7506 64.0559 93.8747 72.2271 97.6705C74.2699 98.5465 76.3126 97.3785 78.5013 97.8165C85.6511 99.4224 92.9467 99.8604 100.388 99.8604C104.182 99.8604 108.122 99.2764 111.478 97.3785C113.52 96.3566 115.417 95.9186 117.46 96.5025C119.357 96.9405 121.254 97.0865 123.005 96.5025C129.279 94.1666 135.845 95.1886 142.265 94.1666C144.746 93.7286 146.935 92.7067 149.269 92.2687C156.127 90.9548 163.131 90.9547 169.697 88.3268C175.534 85.9909 178.452 82.0491 177.285 76.0633C176.263 70.6615 174.22 65.5517 171.594 60.7339C170.281 58.252 168.53 56.6461 165.32 58.252C163.861 58.982 162.401 58.69 161.672 56.7921C162.693 54.4561 165.174 53.2882 166.341 51.0982C168.676 49.7843 171.01 48.3244 173.783 50.0763C174.512 50.5143 175.242 50.6603 176.117 50.5143C176.409 50.5143 176.701 50.3683 176.993 50.2223C178.16 49.9303 179.035 48.7623 180.495 49.0543C182.537 49.0543 182.829 46.4264 184.726 46.1344C186.477 46.1344 186.623 44.0905 187.936 43.6526C188.374 43.5066 188.958 43.5066 189.395 43.6526C191 44.5285 192.314 44.5285 192.897 42.3386C193.481 41.6086 194.21 41.3166 195.086 41.4626C196.107 41.6086 196.983 42.1926 198.004 41.4626C199.609 40.5867 201.506 40.7326 202.819 39.4187C204.278 38.1047 206.467 38.3967 207.926 37.2288C208.802 36.4988 209.531 35.6228 210.699 35.3308C212.595 34.1629 214.93 34.7469 216.973 33.7249C218.578 32.5569 220.767 33.1409 222.372 31.973C222.663 31.827 222.955 31.681 223.247 31.681C225.29 31.243 226.895 30.075 228.208 28.6151C228.5 28.3231 228.792 27.8851 229.23 27.5932C229.521 27.4472 229.813 27.3011 230.105 27.1551C232.877 25.4032 235.796 23.9433 239.152 23.6513C240.173 23.2133 241.049 22.6293 241.924 22.0453C243.091 21.3154 243.967 20.2934 244.696 19.2715C245.134 18.8335 245.572 18.3955 246.301 18.1035C247.177 17.9575 248.198 17.6655 249.074 17.3735C249.949 16.9356 250.679 15.9136 251.7 15.7676C251.992 15.6216 252.284 15.6216 252.576 15.4756C252.868 15.4756 253.159 15.3296 253.451 15.3296C254.181 15.0376 254.91 14.8916 255.64 14.7456C256.078 14.7456 256.661 14.5996 257.391 14.5996Z" fill="#4768A6"/>
<path d="M0.729492 75.0415C1.45906 74.8955 2.18862 74.6035 2.91819 74.4575C3.93958 73.4355 5.2528 73.8735 6.56602 74.0195C9.33837 74.3115 11.673 73.7275 12.6944 70.6616C12.9862 69.6397 13.8617 68.9097 14.5912 68.0337C16.4881 66.1358 18.9686 66.5738 19.4064 69.2017C19.5523 70.2237 19.8441 71.0996 20.5737 71.9756C21.0114 76.0634 20.8655 76.0634 16.9258 76.9394C12.8403 77.9613 9.33837 80.4432 5.69054 82.6332C3.21001 84.0931 1.8968 83.8011 0.729492 81.3192C0.729492 79.1293 0.729492 77.0854 0.729492 75.0415Z" fill="#C9C4D2"/>
<path d="M0.729492 81.3185C3.50184 83.0704 4.37732 81.9025 4.23141 78.5446C7.14967 81.3185 8.90063 79.4206 11.0893 77.9606C12.9862 76.7927 14.1535 73.5808 17.6554 75.3327C19.5523 76.2087 19.4064 73.5808 19.5523 72.1209C19.6982 68.471 20.7196 68.179 24.9511 70.3689C25.2429 70.5149 25.5347 70.8069 25.6806 71.0989C26.8479 74.3108 23.7838 75.4787 22.4705 76.9387C20.1359 79.2746 16.9258 80.8805 13.278 80.0046C10.7975 80.7345 8.31697 81.7565 6.71193 84.0924C5.39871 85.9903 3.0641 86.4283 0.729492 86.2823C0.729492 84.5304 0.729492 82.9244 0.729492 81.3185Z" fill="#A5AAC6"/>
<path d="M729.419 130.958C727.96 131.98 725.917 131.542 724.75 133.002C724.312 133.878 723.729 134.608 722.853 135.192C721.832 136.36 720.227 136.36 719.205 137.382C717.746 137.528 716.141 137.528 715.558 139.28C714.244 140.01 713.369 141.761 711.326 141.031C710.159 141.177 708.408 140.302 708.262 142.491C707.678 145.557 703.155 148.915 700.82 148.039C700.383 147.455 699.507 147.747 699.069 147.309C698.778 147.017 698.632 146.725 698.632 146.433C698.486 143.951 699.799 143.221 701.842 141.907C704.614 140.01 707.386 138.404 710.305 136.944C711.034 136.652 711.18 135.63 711.764 135.046C712.056 134.754 712.347 134.608 712.639 134.462C713.807 134.024 716.141 135.63 716.141 132.71C719.351 128.476 722.853 124.68 728.836 124.68C731.17 124.68 733.359 124.68 735.256 123.22C735.548 122.928 736.277 122.636 736.861 122.782C740.801 124.096 742.697 120.446 745.47 119.278C746.637 118.694 746.053 117.088 746.783 116.212C748.68 114.752 750.577 113.001 753.203 113.439C753.641 113.439 753.933 113.439 754.37 113.585C755.684 114.169 755.83 115.19 755.392 116.358C755.246 116.65 755.1 116.942 754.954 117.38C754.225 118.256 752.765 118.402 752.182 119.424C748.68 123.658 745.178 127.454 739.341 128.33C736.861 128.768 734.38 130.082 732.046 131.104C731.17 130.812 730.295 130.52 729.419 130.958Z" fill="#A1A7C4"/>
<path d="M253.743 17.5194C253.451 17.5194 253.305 17.5194 253.013 17.5194C251.554 16.6434 251.7 15.6215 252.284 14.3075C253.597 11.9716 254.181 9.19773 255.64 7.00781C258.85 5.83986 262.206 6.27783 265.562 6.13184C265.416 10.0737 263.081 12.8476 258.85 13.8695C258.12 14.0155 257.391 14.0155 257.099 14.7455C256.661 15.1835 256.223 15.6215 255.64 16.2054C254.181 15.0375 254.472 16.7894 253.743 17.5194Z" fill="#5B76AE"/>
<path d="M699.653 147.163C700.091 147.455 700.529 147.601 701.112 147.893C697.902 149.353 695.276 151.835 692.649 154.17C690.461 154.608 688.418 155.338 687.105 152.565C686.813 151.835 685.792 151.689 685.208 151.251C681.706 148.915 681.268 147.309 683.603 143.805C684.041 143.221 684.624 142.783 684.916 142.199C685.646 141.323 686.521 140.739 687.688 141.323C689.731 142.637 690.169 145.119 691.044 147.017C692.358 149.645 693.671 148.915 695.422 148.331C696.881 148.185 697.61 145.557 699.653 147.163Z" fill="#8191BB"/>
<path d="M684.77 142.198C685.354 144.388 681.852 146.14 683.749 148.33C686.083 150.958 689.002 153.148 692.503 154.17C690.023 156.506 687.834 156.506 685.937 153.586C685.646 153.148 685.354 152.856 684.916 152.564C680.101 149.06 680.101 149.06 681.852 143.658C682.727 142.782 683.749 142.344 684.77 142.198Z" fill="#5F7AB0"/>
<path d="M1530.63 88.3266C1530.63 89.0566 1530.04 89.3486 1529.46 89.3486C1528.59 89.3486 1528.15 88.9107 1528.15 88.1807C1528.15 87.5967 1528.44 87.0127 1529.17 87.0127C1530.04 87.0127 1530.48 87.5967 1530.63 88.3266Z" fill="#4F72B0"/>
<path d="M337.205 27.3018C338.081 27.4478 338.956 27.5937 339.394 28.6157C338.372 28.7617 337.351 28.6157 337.205 27.3018Z" fill="#B1C1DC"/>
<path d="M1146.88 38.9806C1146.44 48.4702 1147.31 57.9598 1142.94 67.3035C1140.31 72.7053 1139.29 78.9831 1136.37 84.5309C1134.18 88.7647 1130.53 91.8306 1127.62 95.3344C1127.18 95.9184 1126.16 96.3564 1125.43 96.3564C1118.86 96.5024 1112.59 96.6484 1106.9 91.5386C1100.77 86.1368 1092.74 83.5089 1085.16 80.443C1071.44 74.7492 1056.99 71.6833 1042.4 70.2234C1028.25 68.7634 1014.1 70.2234 999.942 72.1213C993.085 72.9973 987.394 77.0851 980.536 77.3771C978.056 77.5231 976.45 80.151 973.678 80.589C967.988 81.465 962.297 80.443 956.606 80.589C951.062 80.735 945.371 79.275 939.972 80.297C935.887 81.027 932.531 81.611 928.445 80.151C926.11 79.2751 923.046 80.151 920.274 80.735C913.708 81.9029 907.142 83.2169 900.43 83.2169C896.198 83.2169 891.675 84.6768 887.589 86.4288C883.942 88.0347 880.294 88.6187 876.5 89.3487C864.389 91.8306 852.716 96.0644 840.897 99.5683C833.31 101.758 825.868 104.678 818.573 107.452C813.174 109.496 807.483 111.686 803.106 115.482C800.333 117.818 797.561 119.278 794.351 120.737C790.995 122.343 788.077 125.409 784.137 126.869C783.116 127.307 782.24 128.037 781.073 128.329C780.343 128.475 779.176 128.475 778.738 128.913C776.695 131.979 773.194 133.147 770.275 133.731C765.752 134.607 762.98 138.111 758.894 139.425C752.474 141.469 746.491 139.425 740.509 137.235C739.05 136.651 738.466 135.483 738.32 133.877C739.779 132.125 740.509 129.789 742.114 128.037C743.281 126.869 744.449 125.847 745.908 124.825C748.097 123.219 750.577 121.321 750.577 118.11C752.036 118.256 752.766 116.942 753.641 116.212C755.392 115.482 755.392 113.584 756.268 112.27C756.559 111.832 757.143 111.394 757.143 110.81C758.019 105.846 762.396 104.532 766.044 102.634C766.19 102.488 766.627 102.634 766.627 102.488C768.67 99.1303 772.902 97.6703 774.215 93.7285C774.361 92.2685 775.236 91.2466 776.55 91.1006C779.176 90.8086 780.781 89.3487 781.948 87.1587C782.532 85.9908 783.845 85.9908 784.867 85.5528C786.618 84.9688 788.806 85.1148 789.39 82.6329C791.725 80.881 794.789 79.713 795.226 76.2092C795.956 74.7492 796.248 72.9973 797.561 71.9753C799.458 71.2453 801.938 70.3694 802.96 69.0554C805.148 66.2815 807.775 64.8216 810.839 63.3617C812.152 62.7777 812.59 61.0257 812.882 59.4198C813.028 58.9818 812.59 59.4198 812.882 59.1278C815.508 56.3539 817.259 52.996 820.469 50.6601C822.804 49.3462 823.971 47.1562 824.993 44.8203C825.139 44.3823 825.43 43.9444 825.722 43.5064C826.306 42.7764 827.181 42.0464 827.911 42.0464C831.413 42.4844 832.288 39.8565 833.31 37.3746C837.395 36.3526 840.897 33.8707 844.691 32.2648C845.566 30.9508 847.172 30.2209 847.609 28.6149C847.755 28.3229 848.047 28.031 848.193 27.885C851.695 27.301 854.467 25.841 857.239 23.3591C860.45 20.4392 864.681 18.8333 868.913 17.3734C875.479 17.2274 882.191 16.7894 888.465 18.5413C894.301 20.1473 900.43 20.5852 906.12 22.9212C910.498 24.6731 915.167 25.841 920.274 25.549C924.505 25.257 929.029 26.717 932.822 28.323C936.616 29.9289 940.702 30.2209 944.496 31.2429C947.706 32.1188 950.916 33.1408 954.272 33.5787C956.752 35.7687 959.379 36.7906 962.735 36.0607C964.34 35.7687 965.799 36.6446 967.404 36.7906C969.593 37.2286 971.344 35.7687 973.095 34.8927C974.845 34.1628 976.742 33.5787 978.493 32.9948C980.682 32.1188 981.703 30.0749 983.308 28.6149C986.373 29.3449 988.269 28.031 989.729 25.4031C990.604 23.7971 992.793 24.3811 993.814 22.9212C995.419 20.7312 999.067 20.1472 998.337 16.0594C998.046 14.5995 1000.38 14.1615 1001.69 13.5775C1002.13 13.2855 1002.42 13.1395 1002.86 12.8475C1003.74 12.4096 1004.47 12.1176 1005.2 11.5336C1005.49 11.3876 1005.63 11.0956 1005.92 10.9496C1007.09 10.0736 1007.24 8.61368 1007.68 7.44573C1009.72 4.67183 1012.05 2.18992 1014.83 0C1018.33 1.16796 1021.83 0.292025 1025.33 0.584014C1031.61 1.16799 1037.88 1.16797 1043.86 3.2119C1045.32 3.79588 1046.49 4.81784 1047.8 5.40181C1053.64 8.02972 1060.06 8.90567 1066.04 11.0956C1074.36 14.1615 1083.26 15.6214 1091.43 19.5633C1095.52 21.6072 1100.33 21.4612 1104.56 23.5051C1108.79 25.549 1113.17 27.447 1117.55 29.4909C1121.63 31.3888 1126.16 32.1188 1130.68 33.2868C1136.81 34.8927 1142.21 35.9147 1146.88 38.9806Z" fill="#4666A5"/>
<path d="M1552.52 11.9712C1562.44 29.1985 1561.42 46.2799 1552.08 63.3612C1550.91 65.5512 1549.31 67.7411 1547.99 69.785C1547.26 70.8069 1546.39 71.8289 1545.07 72.2669C1539.97 74.4568 1534.86 76.3547 1529.46 77.3767C1528.44 77.5227 1527.56 77.5227 1526.83 76.9387C1525.38 75.9167 1524.06 75.9167 1522.31 76.9387C1520.27 78.3986 1518.23 76.6467 1516.33 76.0627C1513.41 75.1868 1510.93 75.4787 1508.6 76.7927C1504.22 79.4206 1500.72 76.2087 1496.78 75.4788C1496.34 75.3328 1495.9 74.6028 1495.76 74.7488C1491.82 76.9387 1488.31 72.9968 1484.37 73.8728C1480.73 74.7488 1476.93 73.5808 1473.28 73.4348C1471.24 73.2888 1469.2 73.4348 1468.76 76.0627C1468.76 76.3547 1468.62 76.6467 1468.47 76.6467C1464.09 76.7927 1463.36 82.0485 1459.57 83.0705C1458.69 83.3625 1457.67 83.5085 1457.23 84.3844C1453.73 91.6842 1447.31 96.9399 1444.25 104.678C1442.64 108.766 1441.48 113.145 1439.43 117.087C1438.27 119.277 1436.81 121.175 1434.33 122.051C1433.01 122.489 1431.7 123.365 1431.41 124.825C1430.97 128.037 1428.93 128.767 1426.3 129.643C1423.82 130.373 1421.63 131.833 1419.44 133.147C1416.82 134.753 1414.19 135.92 1410.83 135.483C1408.06 135.191 1406.46 137.818 1404.12 138.84C1401.2 140.008 1398.29 139.862 1395.37 140.738C1389.38 142.636 1383.55 144.68 1376.98 144.242C1373.04 143.95 1369.25 143.074 1365.31 143.074C1348.24 142.49 1332.92 135.92 1318.91 126.723C1314.09 123.657 1309.28 120.153 1305.78 115.335C1303.3 111.831 1299.36 109.641 1296.73 106.138C1293.96 102.488 1294.54 100.298 1298.92 99.5678C1302.27 98.9839 1304.9 96.9399 1307.82 95.772C1307.53 95.334 1307.53 94.75 1307.97 94.458C1311.03 92.4141 1313.07 88.6183 1316.28 87.7423C1319.49 86.7203 1321.24 83.8005 1324.31 83.0705C1325.04 82.4865 1325.62 82.0485 1326.35 81.7565C1326.93 81.6105 1327.66 81.6105 1328.25 81.3185C1330.44 80.7346 1332.48 80.0046 1333.94 78.3986C1334.23 78.2527 1334.52 78.1066 1334.81 78.1066C1335.98 77.9606 1337 77.2307 1337.88 76.5007C1338.17 76.3547 1338.46 76.2087 1338.75 76.2087C1341.09 75.9167 1343.28 75.3328 1345.03 73.4348C1347.51 71.3909 1350.86 71.6829 1353.49 69.931C1354.95 68.909 1356.55 68.179 1357.87 66.7191C1358.74 66.2811 1359.62 65.9891 1360.49 65.5512C1361.08 65.2592 1361.52 64.8212 1362.24 64.8212C1364.14 65.1132 1365.02 62.9232 1366.77 62.7772C1367.64 62.9232 1368.52 62.9232 1369.39 63.0692C1370.42 63.6532 1371.29 64.3832 1371.44 65.5512C1370.71 68.763 1367.64 69.493 1365.31 70.8069C1363.27 71.8289 1361.22 72.8508 1358.89 73.1428C1354.95 73.7268 1352.03 76.9387 1348.09 77.6687C1346.19 77.9607 1346.49 79.5666 1347.95 80.7346C1354.66 86.1364 1362.83 87.7423 1371 88.0343C1375.23 88.1803 1379.75 86.8663 1382.96 83.3625C1383.99 82.1945 1385.15 81.7565 1386.76 81.9025C1388.36 82.0485 1389.68 81.3185 1390.11 79.8586C1391.57 75.4788 1393.47 71.0989 1392.59 66.4271C1392.16 63.7992 1393.47 60.7333 1390.99 58.5434C1391.28 53.8716 1393.03 52.2656 1397.26 52.8496C1399.01 53.1416 1400.62 52.8496 1401.5 50.9517C1401.93 50.0757 1402.66 49.6377 1403.39 48.9077C1403.68 48.6158 1403.98 48.4698 1404.27 48.3238C1406.02 47.8858 1407.92 47.8858 1409.67 47.5938C1412.44 47.1558 1414.19 45.2579 1415.79 43.068C1416.52 42.776 1417.25 42.192 1418.13 42.63C1421.63 44.6739 1423.97 42.63 1426.15 40.1481C1426.74 39.4181 1427.76 39.2721 1428.2 38.5422C1428.49 38.2502 1428.93 37.9582 1429.36 37.8122C1431.99 37.8122 1435.06 39.5641 1436.81 35.9142C1437.68 35.1843 1438.56 34.4543 1439.72 34.1623C1441.18 33.5784 1441.62 31.5344 1443.37 31.3884C1443.66 31.2424 1444.1 31.2424 1444.39 31.2424C1448.04 32.4104 1451.98 31.0964 1454.02 27.7385C1454.75 26.5706 1455.78 25.6946 1456.94 24.8187C1457.38 24.5267 1457.67 24.0887 1458.11 23.7967C1459.13 23.5047 1460.3 23.6507 1461.32 23.7967C1461.61 23.9427 1461.9 24.0887 1462.2 24.3807C1463.07 25.9866 1462.34 27.0086 1460.88 27.7385C1459.13 28.6145 1457.67 29.7825 1456.5 31.2424C1455.48 32.4104 1453 33.1403 1454.02 35.0383C1455.05 36.9362 1456.21 39.4181 1458.84 39.7101C1461.03 40.0021 1462.05 41.462 1463.51 42.776C1466.28 45.5499 1469.93 47.0098 1473.72 47.4478C1476.06 47.7398 1477.95 48.3238 1478.98 50.8057C1479.7 52.8496 1481.75 53.5796 1483.64 54.3096C1489.34 56.3535 1494 59.8573 1497.51 64.9671C1499.26 67.595 1502.03 69.201 1505.53 69.347C1512.97 69.639 1518.96 68.033 1523.33 61.0253C1532.67 45.8419 1534.42 30.0745 1527.86 13.4311C1527.27 11.9712 1526.4 10.6572 1527.71 9.19727C1532.53 9.78124 1537.34 9.05124 1542.3 10.2192C1545.8 11.3872 1549.45 10.0732 1552.52 11.9712Z" fill="#4666A5"/>
<path d="M13.4239 80.0042C14.7372 77.6683 17.3636 78.1062 19.4064 76.9383C19.8441 76.7923 20.2819 76.7923 20.7196 76.7923C20.2819 73.1424 24.3674 73.8724 25.5347 71.6825C25.9725 69.9305 27.7234 68.9086 28.8907 68.4706C33.5599 66.8647 37.6455 64.2367 42.0229 62.0468C42.6066 61.7548 43.1902 61.4628 43.7739 61.3168C44.7953 61.0249 45.6707 60.2949 46.4003 59.5649C46.6921 59.4189 46.9839 59.2729 47.2758 59.1269C48.4431 58.6889 49.3186 57.667 50.194 56.791C53.55 55.7691 56.3224 53.1412 60.1161 53.4331C61.2834 53.5791 62.013 52.1192 63.3262 52.2652C66.6822 52.7032 69.8923 51.0972 73.1024 51.3892C76.0207 51.6812 78.6471 50.6593 81.4194 50.8053C86.6723 50.9513 91.9252 51.5352 97.1781 50.5133C98.1994 50.2213 99.2208 50.6593 100.096 50.8053C108.559 52.4112 116.876 53.5791 125.339 54.8931C129.863 55.6231 134.532 55.1851 138.909 56.645C140.368 57.083 141.536 55.3311 142.849 56.207C145.183 57.959 147.518 58.397 150.145 56.645C150.874 56.2071 152.041 55.6231 152.771 55.9151C154.814 56.937 155.981 55.4771 157.44 54.6011C159.045 54.8931 161.672 53.2872 161.963 56.645C163.277 57.667 164.298 57.083 165.465 56.353C167.8 54.7471 169.843 55.3311 171.448 57.667C175.679 64.0907 178.306 71.2445 179.473 78.8362C180.349 84.53 175.679 88.3259 170.718 90.3698C163.569 93.4357 155.689 93.4357 148.248 94.7496C147.81 94.8956 147.226 94.7496 146.934 95.0416C141.827 97.9615 136.137 97.2315 130.592 97.0855C129.133 97.0855 127.674 97.6695 126.215 98.1075C123.005 99.1294 119.94 99.8594 116.584 98.8374C114.979 98.3995 113.666 98.6915 112.207 99.5674C108.559 101.757 104.328 102.195 100.096 102.341C92.6548 102.633 85.3591 101.903 78.0634 100.297C77.7716 100.151 77.3339 100.005 77.042 100.151C72.2269 102.779 68.5791 98.8374 64.4935 97.8155C60.1161 96.7935 55.7387 96.3555 51.3613 95.6256C49.7563 95.3336 48.1513 95.3336 46.6921 94.1656C46.4003 93.8736 45.6707 93.5816 45.3789 93.7276C42.3147 95.6256 38.521 92.9977 35.4568 95.3336C34.4354 96.2096 33.2681 95.7716 32.2467 95.1876C29.7662 93.8736 27.8693 94.6036 26.8479 97.0855C25.6806 100.005 24.3674 99.5674 22.4705 97.8155C22.0328 97.3775 21.4492 96.7935 20.8655 96.5015C14.1535 92.8517 11.5271 87.4499 13.4239 80.0042Z" fill="#4565A4"/>
<path d="M1528 9.78196C1537.63 29.3452 1535.15 47.8865 1522.89 65.5519C1518.96 71.2457 1513.26 71.3916 1507.43 71.8296C1501.74 72.4136 1497.94 69.3477 1495.03 64.6759C1492.84 61.464 1489.63 59.2741 1486.12 57.5222C1482.62 55.7702 1477.95 55.6242 1476.79 50.6604C1476.64 50.2224 1475.77 49.7845 1475.33 49.9304C1472.26 50.2224 1469.78 48.6165 1467.01 47.5945C1464.53 46.7186 1462.2 45.9886 1461.32 43.2147C1461.17 42.4847 1460.3 42.1927 1459.57 42.3387C1457.09 42.6307 1455.63 41.3168 1454.61 39.2729C1454.17 38.3969 1453.44 37.6669 1452.42 37.6669C1448.33 37.5209 1449.79 35.623 1451.4 34.1631C1454.9 31.0972 1458.4 28.3233 1461.9 25.2574C1461.47 23.3595 1463.07 23.6515 1463.95 23.2135C1464.97 22.4835 1466.43 22.9215 1467.59 22.1915C1469.49 21.0235 1470.95 19.2716 1472.26 17.5197C1475.91 15.6217 1480.58 16.2057 1483.64 12.7019C1484.08 12.2639 1484.96 12.4098 1485.69 12.4098C1489.77 12.4098 1493.71 12.5559 1497.51 10.6579C1499.26 9.78197 1501.45 11.0959 1503.34 10.074C1511.66 8.32204 1519.83 8.61401 1528 9.78196Z" fill="#4565A4"/>
<path d="M1431.99 22.4831C1436.37 20.5851 1440.16 17.5193 1444.83 15.9133C1447.02 15.1834 1449.35 15.0373 1451.54 14.5993C1452.27 14.8913 1453.29 14.7453 1453.73 15.4753C1455.34 17.2272 1456.21 16.9353 1457.38 14.8913C1458.26 13.1394 1459.71 12.7014 1461.47 14.0154C1464.09 15.9133 1466.72 15.4753 1469.34 14.0154C1472.12 12.4094 1474.45 13.2854 1476.49 15.3293C1476.64 15.9133 1476.49 16.7893 1476.06 16.9353C1471.97 17.0813 1469.49 21.8991 1464.97 20.7311C1464.68 20.5851 1464.24 20.8771 1463.95 21.0231C1461.32 22.4831 1458.99 24.235 1455.63 23.505C1454.61 23.213 1453.73 24.089 1453 24.673C1450.96 26.2789 1448.63 27.5928 1446.44 29.1988C1444.1 30.8047 1442.79 30.2208 1441.62 27.1549C1440.89 28.4688 1442.79 29.3448 1442.35 30.6587C1441.91 31.9727 1441.18 33.1406 1440.02 33.5786C1437.83 34.1626 1435.93 35.0386 1434.03 36.0605C1429.07 38.6884 1423.67 38.3965 1418.28 38.1045C1415.79 37.9585 1414.63 36.7905 1414.92 34.3086C1415.07 33.4326 1415.79 32.8487 1416.52 32.5567C1420.61 30.8048 1423.53 27.7389 1426.45 24.527C1426.59 24.527 1426.74 24.527 1427.03 24.527C1427.47 24.235 1428.2 24.527 1428.64 23.943C1429.36 23.651 1429.95 23.359 1430.68 23.067C1431.12 23.067 1431.7 23.0671 1431.99 22.4831Z" fill="#EADCDC"/>
<path d="M1315.55 85.4068C1317.01 83.5088 1318.91 82.3409 1321.24 81.4649C1324.45 80.443 1326.93 77.8151 1329.71 75.7712C1335.11 71.6833 1341.53 69.9313 1347.22 66.4275C1356.85 60.4417 1366.77 55.1859 1376.98 50.2221C1381.94 47.8862 1386.61 44.8203 1392.16 43.9443C1392.89 44.6743 1392.59 45.5503 1392.45 46.2803C1392.3 47.0102 1392.3 47.7402 1392.3 48.3242C1392.45 50.5141 1391.43 51.39 1389.38 51.0981C1388.51 50.9521 1387.49 50.3681 1386.9 51.5361C1385.3 55.0399 1382.09 56.6459 1379.02 58.2518C1378.15 58.8358 1377.13 58.9818 1376.25 59.2738C1374.21 61.0257 1371.73 61.3177 1369.25 62.0476C1363.7 63.6536 1358.6 66.4275 1353.49 69.3474C1348.97 71.9753 1344.44 74.7492 1339.19 76.2091C1336.27 76.9391 1333.5 78.983 1330.87 80.735C1330.14 80.881 1329.56 81.1729 1328.98 81.3189C1325.47 81.4649 1323.14 84.2388 1320.08 85.4068C1318.33 86.2827 1316.87 87.3047 1315.55 85.4068Z" fill="#F3E2DF"/>
<path d="M168.967 49.0544C175.679 44.3825 182.975 40.5867 190.854 37.9588C193.481 37.0828 195.232 35.0389 197.42 33.433C201.214 30.5131 205.591 28.7611 209.677 26.4252C215.222 23.2133 221.204 20.5854 227.333 18.3955C228.062 18.8335 228.938 18.8335 229.521 19.4175C230.397 20.4394 231.126 21.6074 230.689 22.9213C230.251 24.2353 229.229 24.3813 228.062 24.3813C227.333 24.3813 226.457 24.6733 225.582 24.9653C225.144 25.1113 224.56 25.4032 224.122 25.6952C223.247 26.7172 222.517 27.8851 221.204 28.4691C221.204 32.411 219.599 34.0169 215.514 34.1629C214.054 34.1629 212.595 34.4549 211.428 35.3309C206.613 38.5428 201.652 40.8787 196.107 42.3386C192.897 43.0686 189.687 44.0906 186.769 45.6965C186.331 45.9885 185.893 45.9885 185.31 45.9885C185.018 45.9885 184.726 45.9885 184.58 46.1345C182.975 49.3463 179.327 49.2003 176.701 50.5143C174.512 51.3903 170.281 50.5143 168.967 49.0544Z" fill="#CCC6D2"/>
<path d="M24.6593 71.5368C23.9298 71.9748 23.2002 71.9749 22.4707 71.3909C21.0115 69.785 20.4279 71.3909 19.6983 72.2668C17.9473 72.8508 17.2178 72.2668 17.8014 70.3689C18.0933 69.3469 17.9473 68.471 16.78 68.179C15.4668 67.887 15.3209 69.055 14.8832 69.9309C11.9649 76.6467 10.068 77.5226 3.06421 74.4567C4.52334 71.9748 7.29569 71.0989 9.48439 70.0769C14.5913 67.595 18.531 63.7992 23.3461 61.0253C26.1185 59.5653 28.4531 57.3754 30.9336 55.4775C32.6846 54.7475 34.4355 54.4555 36.4783 54.8935C39.2507 55.4775 41.5853 53.1416 44.2117 52.8496C45.8167 52.2656 47.4218 52.7036 49.0268 52.7036C50.3401 53.2875 51.6533 54.3095 50.9237 55.9155C50.3401 57.2294 49.6105 58.6893 47.7136 58.5433C46.5463 58.3974 45.5249 58.6893 45.2331 60.0033C44.6494 62.1932 43.0444 62.4852 41.2934 62.6312C40.8557 62.6312 40.418 62.6312 39.9802 62.7772C39.2507 62.9232 38.8129 63.3612 38.5211 64.0912C37.6456 66.2811 35.1651 67.303 33.56 67.303C29.9122 67.449 27.8694 70.3689 24.6593 71.5368Z" fill="#D7CED6"/>
<path d="M747.951 117.088C745.47 121.029 742.844 124.679 737.445 124.387C736.569 124.387 735.84 124.679 735.256 125.263C733.943 126.431 732.192 127.015 730.733 126.577C724.313 124.825 721.686 130.081 717.747 133.147C717.163 136.067 714.682 134.899 712.931 135.337C712.348 136.943 710.889 137.381 709.43 137.819C707.679 138.403 705.49 138.257 704.177 139.863C703.301 140.885 702.28 141.177 701.112 140.301C700.091 139.279 699.945 138.111 700.675 136.797C701.404 135.483 702.863 135.045 703.739 133.877C710.305 131.395 715.85 126.869 722.416 124.387C725.334 123.219 728.398 122.635 731.171 120.883C732.046 121.175 732.922 121.759 733.797 121.029C736.569 118.402 740.509 118.986 743.719 117.234C745.032 116.358 746.491 115.336 747.951 117.088Z" fill="#CBC6D2"/>
<path d="M1476.2 15.3295C1472.7 15.0375 1469.34 16.2055 1466.13 17.3735C1463.95 18.1035 1461.47 16.7895 1459.28 14.5995C1460.3 19.7094 1456.65 19.1254 1454.02 19.7094C1452.86 20.0013 1451.98 19.2714 1452.42 17.8114C1453 16.4975 1452.42 15.6215 1451.69 14.5995C1460.88 10.9497 1470.37 9.63577 1480.29 10.0738C1484.52 10.3657 1488.75 9.78174 1492.98 9.63574C1493.57 11.5337 1492.4 11.9717 1490.94 11.9717C1489.04 11.9717 1487.29 12.9936 1485.4 12.4096C1484.23 12.1176 1483.06 12.7017 1482.33 13.7236C1480.73 16.0595 1478.54 16.3515 1476.2 15.3295Z" fill="#F1E1DE"/>
<path d="M827.181 44.2363C827.181 44.6742 827.035 44.9662 827.035 45.4042C825.138 46.8641 824.993 49.784 822.512 50.66C817.113 53.8719 813.757 58.9817 809.234 63.0695C808.65 63.6535 808.213 64.3835 807.483 64.6755C803.543 67.1574 799.312 69.2013 797.999 74.1651C797.561 75.6251 796.248 76.647 795.226 77.669C793.621 79.2749 791.433 80.4429 790.703 82.7788C790.411 83.0708 790.265 83.2168 789.828 83.3628C788.368 83.8008 787.055 83.2168 785.888 82.4868C785.158 79.2749 786.034 77.231 788.952 75.7711C790.557 75.0411 792.162 74.3111 792.162 72.2672C792.162 71.9752 792.162 71.6832 792.454 71.6832C796.102 70.2233 796.394 65.8434 799.458 63.7995C809.234 54.8939 819.74 47.1562 830.245 39.2725C831.267 40.4404 831.413 41.4623 829.954 42.3383C828.786 42.7763 827.911 43.5063 827.181 44.2363Z" fill="#D8CFD6"/>
<path d="M981.266 22.3367C984.913 18.8328 989.291 16.2049 993.376 13.139C995.857 11.2411 997.754 8.4672 1000.09 6.13129C1001.84 4.23336 1003.88 2.77343 1006.36 1.89746C1008.41 2.77343 1008.41 3.94136 1006.65 5.10931C1005.49 5.83929 1005.05 7.00726 1005.34 8.32121C1005.92 11.3871 1004.32 13.285 1001.69 14.599C1000.23 15.3289 999.505 16.2049 999.067 18.1029C998.483 21.0228 995.565 22.4827 992.793 23.6506C992.063 23.9426 991.188 23.9426 990.458 24.0886C988.999 24.0886 987.686 24.2346 987.102 25.8406C986.518 27.4465 985.351 28.3225 983.6 28.0305C981.557 27.5925 981.266 25.9865 981.412 24.2346C981.703 23.7966 981.412 23.0667 981.266 22.3367Z" fill="#D9CFD6"/>
<path d="M747.95 117.088C746.053 117.818 744.011 118.402 742.552 120.299C742.26 120.591 741.53 121.029 741.384 120.883C738.32 118.84 735.985 120.299 733.505 122.197C732.629 122.927 731.608 121.613 731.024 120.883C737.445 118.402 743.865 115.628 749.264 111.394C754.516 107.16 760.061 102.926 764.439 97.6703C765.314 96.6484 766.044 95.6264 767.503 95.6264C769.254 96.0644 770.129 94.6044 771.151 93.5825C773.485 91.5385 775.09 88.6186 778.154 87.5967C780.051 89.3486 779.905 90.6626 777.571 91.8306C776.987 92.1225 776.112 92.1225 775.82 92.8525C772.756 99.7142 766.044 102.634 760.645 106.722C760.061 107.16 759.186 107.16 759.04 107.89C758.456 111.248 755.684 112.708 753.349 114.46C751.598 115.19 749.847 116.066 747.95 117.088Z" fill="#DDD2D8"/>
<path d="M778.155 87.5969C776.258 90.6628 773.631 92.9987 771.005 95.6266C769.983 96.7945 768.524 97.0866 767.503 95.3346C769.254 92.9987 771.589 91.2468 773.631 89.2028C781.073 81.6111 788.369 73.8734 795.81 66.1357C796.831 65.1138 797.561 63.9458 799.166 63.7998C797.999 65.8437 796.831 67.8877 796.977 70.3696C796.977 71.0995 796.831 72.2675 796.394 72.2675C793.038 71.5375 794.205 74.4574 793.33 75.7714C793.184 76.0634 793.038 76.6473 792.746 76.6473C788.952 76.6473 788.077 80.2972 785.742 82.1951C786.909 83.6551 786.763 84.969 785.013 85.845C784.283 86.283 783.699 86.575 783.262 87.3049C781.802 89.4948 780.051 89.4948 778.155 87.5969Z" fill="#EADCDC"/>
<path d="M703.739 133.732C703.885 135.338 702.572 136.506 702.134 137.82C701.842 138.55 701.988 140.01 703.009 139.134C705.928 136.652 709.867 137.236 712.931 135.338C712.202 139.28 708.846 139.28 705.636 140.156C707.387 142.346 706.803 143.368 704.031 143.368C701.842 143.368 700.237 144.39 699.507 146.579C697.902 147.163 696.443 148.039 694.838 148.623C692.504 149.499 690.753 148.769 690.753 146.287C690.753 143.952 689.877 141.762 690.315 139.572C693.525 137.09 697.465 135.922 700.967 133.878C701.988 133.148 702.863 133.732 703.739 133.732Z" fill="#ADB0C9"/>
<path d="M1315.55 85.4067C1318.32 85.5527 1320.51 83.6547 1322.7 82.4868C1324.74 81.4648 1326.64 80.7349 1328.83 80.5889C1329.56 81.1728 1329.41 81.9028 1328.83 82.4868C1328.25 82.6328 1327.52 82.6328 1326.93 82.7788C1325.04 82.6328 1324.45 84.6767 1323.14 85.2607C1319.05 86.2827 1315.55 88.4726 1312.49 91.1005C1309.86 93.2904 1307.38 94.7503 1304.17 95.3343C1302.13 95.6263 1300.09 96.0643 1298.33 97.2322C1295.85 97.5242 1293.96 98.8382 1292.06 100.152C1291.62 101.174 1291.18 102.05 1289.87 102.196C1288.41 102.05 1287.25 102.634 1286.08 103.51C1284.47 104.678 1282.87 104.532 1281.99 102.342C1284.33 99.8601 1287.54 99.1302 1290.46 97.6702C1294.39 95.7723 1298.19 93.5824 1301.98 91.3925C1306.36 89.0565 1311.17 87.7426 1315.55 85.4067Z" fill="#E2D6DA"/>
<path d="M990.458 22.3374C993.085 22.0454 996.587 21.4615 996.879 19.2715C997.462 15.6217 1000.09 14.8917 1002.28 13.2858C1003.3 12.4098 1004.47 11.3878 1003.3 9.48989C1001.99 7.73796 1004.17 6.71601 1004.9 5.40206C1005.63 4.3801 1007.53 3.79614 1006.51 2.04421C1007.97 0.87625 1009.43 -0.437728 1011.47 0.14625C1013.22 1.4602 1013.66 2.48219 1011.62 4.23412C1010.01 5.69407 1008.26 7.44599 1008.26 9.9279C1008.26 11.2419 1007.38 11.6798 1006.36 12.1178C1005.2 12.5558 1004.17 13.4318 1003.74 14.7457C1002.28 15.6217 999.213 15.1837 1001.26 18.5416C1001.69 19.2715 1001.26 20.2935 1000.53 20.7315C997.316 22.3374 995.419 25.8413 991.772 26.7173C990.167 27.7392 988.707 26.8633 987.102 26.5713C986.081 23.2134 988.561 23.0674 990.458 22.3374Z" fill="#BFBDCE"/>
<path d="M990.458 22.3369C988.707 23.2129 987.394 24.3808 987.686 26.5707C988.707 29.3446 986.227 28.4687 985.205 28.9067C982.871 33.2865 978.201 33.2865 974.262 34.3084C972.219 34.8924 970.614 33.2865 970.906 30.8046C974.408 28.0307 977.909 25.1108 981.411 22.3369C982.871 22.7749 983.454 23.6509 983.454 25.2568C983.454 26.1328 983.6 27.0087 984.621 27.0087C985.497 27.0087 985.643 26.2787 985.789 25.5488C986.227 22.9209 988.269 22.4829 990.458 22.3369Z" fill="#C9C4D1"/>
<path d="M242.507 23.7972C241.486 23.9432 240.611 24.3812 239.881 24.9651C238.276 26.5711 237.546 24.5272 236.233 24.2352C235.358 23.2132 235.358 22.0453 236.525 21.6073C240.173 20.1473 240.611 17.0815 240.756 13.7236C240.756 13.2856 241.048 12.8476 241.34 12.5556C243.383 10.0737 246.301 9.92772 249.074 9.05176C254.035 10.6577 254.472 12.8476 250.679 16.4975C249.511 17.6654 248.052 18.2494 246.885 19.5634C246.593 20.0014 246.447 20.4393 246.155 20.8773C244.404 21.1693 243.967 23.0672 242.507 23.7972Z" fill="#8A97BD"/>
<path d="M241.194 12.5557C244.113 16.6435 242.216 21.6073 237.546 22.6293C236.963 22.7753 236.525 23.2133 236.233 23.6513C236.233 24.2352 236.087 24.5272 235.65 24.9652C234.482 25.8412 232.294 24.9652 231.856 27.3011C231.418 28.0311 230.543 28.1771 229.959 28.7611H229.813C227.916 31.243 226.019 30.221 224.122 28.7611C223.831 27.1551 225.29 27.0091 226.165 26.5711C227.333 25.9872 228.208 25.1112 229.083 24.3812C229.813 23.7973 230.397 22.9213 230.105 21.8993C229.959 21.1693 230.105 20.1474 230.689 20.0014C233.753 19.5634 233.169 16.9355 233.899 15.0376C235.795 12.4097 238.86 13.4316 241.194 12.5557Z" fill="#AAAEC8"/>
<path d="M827.181 44.2367C828.057 42.6308 830.246 41.6088 829.954 39.2729C830.1 39.2729 830.391 39.1269 830.537 39.1269C830.975 39.1269 831.267 38.8349 831.267 38.3969C838.563 32.4112 844.837 24.9654 853.592 20.8776C854.759 20.4396 855.343 21.0236 855.488 22.0455C855.634 23.2135 854.467 23.6515 853.738 24.3815C850.819 26.5714 847.463 28.1773 845.712 31.5352C845.275 33.4331 843.378 33.7251 842.064 34.3091C839.584 35.623 837.979 38.397 835.061 38.5429C834.185 41.0249 833.747 44.0907 829.662 42.9228C828.932 42.7768 827.911 43.7987 827.181 44.2367Z" fill="#D7CFD7"/>
<path d="M234.044 15.1826C234.482 15.6206 234.92 16.2046 235.504 16.6426C236.379 17.3725 237.838 17.9565 236.963 19.2704C236.233 20.4384 235.066 21.8984 233.753 21.6064C229.959 20.5844 230.834 23.2123 230.688 25.1102C229.229 26.5702 226.895 26.2782 225.29 27.4461C224.852 27.7381 224.122 27.3001 223.685 27.8841C221.496 31.534 220.62 28.6141 219.453 27.1541C220.037 26.2782 221.496 22.6283 221.496 22.1903C222.517 22.1903 223.393 22.7743 224.268 22.9203C224.414 22.9203 224.56 22.9203 224.56 22.9203C226.019 22.7743 228.062 23.6503 228.792 22.3363C229.813 20.7304 227.624 19.5625 227.041 18.1025C229.521 17.2265 231.418 15.4746 234.044 15.1826Z" fill="#BAB9CD"/>
<path d="M41.4394 61.0248C44.2117 61.6088 44.5036 60.1488 43.6281 58.1049C42.6067 55.477 43.774 55.623 45.6709 56.207C49.9024 57.3749 50.1942 57.0829 49.1728 52.5571C53.842 52.5571 58.6571 52.4111 63.3264 52.4111C59.2408 54.893 55.1552 57.2289 50.486 58.1049C49.4646 58.6889 49.1728 60.1488 47.8596 60.2948C47.5677 60.2948 47.4218 60.2948 47.13 60.2948C46.2545 61.0248 45.525 62.0467 44.3577 62.1927C43.9199 62.4847 43.6281 62.7767 43.1904 63.0687C40.8557 63.7987 40.7098 62.7767 41.4394 61.0248Z" fill="#BBBACC"/>
<path d="M1391.43 46.2811C1391.72 45.5511 1391.86 44.8212 1392.16 44.2372C1399.01 40.5873 1405.73 36.7915 1412.58 33.1416C1413.02 33.4336 1413.31 33.8716 1413.46 34.3095C1413.31 35.3315 1413.75 36.0615 1413.9 37.0835C1414.19 38.3974 1413.61 39.8573 1412.29 39.7114C1409.08 39.4194 1406.89 41.3173 1404.71 42.9233C1401.79 45.1132 1397.99 45.6971 1395.51 48.617C1393.47 50.515 1391.72 49.493 1391.43 46.2811Z" fill="#EADCDC"/>
<path d="M869.934 17.5186C866.87 20.2925 862.93 22.0444 859.72 24.3803C856.51 26.7162 853.3 28.0302 849.652 28.9062C848.923 27.5922 850.236 27.0082 850.965 26.4242C853.738 24.2343 855.927 21.4604 858.699 19.4165C862.055 17.2266 866.14 17.9565 869.934 17.5186Z" fill="#A8ACC6"/>
<path d="M690.461 139.425C693.817 141.323 693.233 144.243 692.358 147.455C694.838 145.703 697.319 146.433 699.654 146.433C699.654 146.725 699.654 146.871 699.654 147.163C698.34 147.601 697.757 148.914 696.735 149.644C695.276 150.666 692.796 151.688 691.92 150.666C690.169 148.476 687.251 146.871 687.251 143.367C687.251 142.637 687.543 142.053 687.543 141.323C688.126 140.155 689.44 140.009 690.461 139.425Z" fill="#A1A8C5"/>
<path d="M246.739 19.5629C247.031 18.5409 247.614 17.9569 248.198 17.2269C251.7 13.2851 251.7 13.2851 248.782 9.05125C251.116 8.32127 253.451 7.5913 255.64 6.86133C256.661 9.78122 255.932 12.4091 254.035 14.599C253.305 15.475 252.867 16.205 252.867 17.373C251.7 17.9569 250.387 17.8109 249.365 18.6869C248.636 19.1249 247.76 19.2709 246.739 19.5629Z" fill="#7689B7"/>
<path d="M970.76 30.8052C974.554 34.017 980.098 33.1411 984.768 28.6152C984.913 28.7612 985.059 28.9072 985.059 29.1992C985.059 29.3452 985.059 29.4912 984.913 29.4912C984.913 32.4111 982.287 32.8491 980.536 34.309C977.326 35.039 973.97 35.185 971.198 37.2289C969.447 38.5429 968.133 36.9369 966.82 36.353C966.237 35.331 964.923 34.747 964.923 33.4331C966.966 32.5571 968.863 31.6811 970.76 30.8052Z" fill="#9AA2C1"/>
<path d="M1476.2 15.3291C1478.25 15.1831 1479.85 14.7452 1481.46 13.2852C1483.79 11.2413 1487 11.5333 1489.92 10.9493C1491.09 10.6573 1492.25 10.8033 1492.98 9.63536C1493.71 9.63536 1494.44 9.48939 1495.17 10.0734C1495.76 11.0953 1495.46 12.1173 1494.44 12.1173C1491.52 12.1173 1488.9 13.4312 1485.98 13.1392C1485.25 12.9932 1484.52 12.8472 1484.08 13.4312C1481.31 17.2271 1476.93 17.0811 1472.99 17.9571C1471.97 20.293 1469.93 21.3149 1467.59 22.0449C1467.3 22.1909 1467.01 22.1909 1466.57 22.1909C1464.82 21.6069 1463.51 20.585 1462.92 18.833C1462.78 18.541 1462.78 18.249 1463.07 17.9571C1468.03 21.0229 1471.97 17.0811 1476.2 15.3291Z" fill="#D6CDD5"/>
<path d="M1412.44 34.3089C1412.44 33.871 1412.44 33.433 1412.44 32.995C1417.11 30.2211 1421.78 27.3012 1426.45 24.5273C1424.7 29.7831 1421.34 33.141 1415.94 34.3089C1414.77 35.9149 1413.61 37.0828 1412.44 34.3089Z" fill="#DBD1D8"/>
<path d="M168.967 49.0546C171.74 50.3685 174.512 50.5145 177.138 48.6166C177.868 48.0326 178.744 47.8866 179.765 47.8866C180.494 47.8866 181.078 48.0326 181.078 46.8646C181.078 44.0908 182.245 43.6528 185.018 44.9667C185.747 45.8427 185.893 46.7187 185.018 47.5946C183.559 48.6166 182.245 49.4925 180.786 50.5145C179.327 50.9525 177.868 50.9525 176.555 51.8285H176.701C175.533 52.4124 174.366 52.5584 173.199 51.8285C171.01 49.4925 169.405 51.5365 167.654 52.7044C167.362 52.5584 167.216 52.2664 167.07 51.9745C166.779 50.6605 167.946 50.2225 168.53 49.3466C168.53 49.0546 168.821 49.0546 168.967 49.0546Z" fill="#A8ADC6"/>
<path d="M1281.99 102.197C1283.45 102.927 1284.76 103.219 1285.93 101.759C1286.95 100.445 1288.41 100.737 1289.73 100.883C1288.85 103.219 1287.1 104.532 1284.76 104.97C1283.6 104.532 1282.87 104.532 1281.55 105.262C1278.93 106.43 1277.47 110.226 1273.68 109.204C1272.36 108.912 1271.19 108.766 1270.9 107.16C1273.68 105.116 1276.3 103.073 1279.95 103.219C1280.53 103.219 1281.26 102.489 1281.99 102.197Z" fill="#B8B8CC"/>
<path d="M157.732 55.332C156.419 56.5 155.397 57.9599 153.209 56.9379C152.625 56.6459 151.895 56.6459 151.312 57.2299C146.788 61.1718 146.205 61.1718 142.995 56.2079C147.81 56.3539 152.479 55.916 157.002 53.8721C158.316 53.8721 158.316 54.456 157.732 55.332Z" fill="#657CAF"/>
<path d="M858.699 19.4175C858.261 22.6294 855.488 24.0893 853.3 25.8413C852.132 26.8632 850.673 27.5932 849.652 28.9072C849.652 29.0532 849.652 29.1991 849.506 29.3451C848.485 30.5131 847.026 31.0971 845.42 31.3891C845.129 31.2431 844.837 31.0971 844.691 30.8051C846.296 26.8632 850.382 25.4033 853.154 22.9214C854.175 22.0454 855.051 21.8994 853.592 20.8775C855.197 20.2935 856.656 18.8336 858.699 19.4175Z" fill="#ABAEC7"/>
<path d="M968.133 38.3974C966.382 37.8134 965.215 37.5214 963.172 38.8354C960.838 40.2953 956.46 36.9375 955.439 33.7256C957.336 33.7256 959.233 33.7256 960.984 33.7256C963.026 34.8935 965.653 34.6016 967.55 36.2075C968.425 36.7915 968.717 37.5215 968.133 38.3974Z" fill="#5873AB"/>
<path d="M1003.88 14.7455C1003.88 13.4315 1004.9 12.5556 1005.49 11.3876C1007.38 8.02972 1009.43 4.96385 1011.76 2.04396C1012.05 1.60598 1011.62 0.729973 1011.62 0C1013.07 0 1014.53 8.90862e-06 1015.99 0.146003C1015.26 3.79587 1011.47 5.25582 1010.16 8.3217C1008.84 9.48966 1009.28 11.8256 1007.38 12.5555C1006.36 12.9935 1005.2 12.9935 1004.61 14.0155C1004.32 14.3075 1004.03 14.5995 1003.88 14.7455Z" fill="#B1B3C9"/>
<path d="M1270.76 107.16C1274.84 109.35 1278.2 107.014 1281.12 104.824C1282.58 103.657 1283.45 103.948 1284.76 104.532C1285.2 104.824 1285.93 104.532 1286.22 105.116C1281.99 105.116 1279.07 107.89 1275.72 109.934C1274.99 109.642 1274.7 110.226 1274.26 110.518C1271.05 112.708 1269.01 112.124 1267.4 108.62C1267.84 106.576 1269.88 108.328 1270.76 107.16Z" fill="#798BB7"/>
<path d="M1267.4 108.62C1269.88 110.518 1272.8 110.81 1275.72 109.934C1271.34 114.168 1268.42 114.314 1263.75 110.664C1264.48 109.204 1266.38 109.642 1267.4 108.62Z" fill="#5471AB"/>
<path d="M157.732 55.3315C157.44 54.8935 157.294 54.3096 157.002 53.8716C159.483 52.8496 162.109 52.5576 164.006 50.5137C164.59 52.2656 166.341 51.0977 167.362 51.6817C167.362 51.9736 167.508 52.2656 167.508 52.5576C166.195 54.6015 164.59 56.2075 161.963 56.6455C160.796 55.4775 159.045 56.4995 157.732 55.3315Z" fill="#B3B4CA"/>
<path d="M1485.83 13.2851C1488.17 12.7011 1490.5 11.6792 1493.13 11.6792C1494.15 11.6792 1494.73 10.9492 1495.17 10.0732C1497.94 8.7593 1500.72 9.19725 1503.63 9.63524C1499.84 11.3872 1495.76 12.8471 1491.67 12.9931C1489.77 13.2851 1487.73 15.767 1485.83 13.2851Z" fill="#A3A9C4"/>
<path d="M44.3577 52.7041C41.2935 54.456 38.5212 57.23 34.4356 55.332C33.5601 54.894 32.101 55.332 31.0796 55.332C35.0192 52.5581 39.8344 53.5801 44.3577 52.7041Z" fill="#ECDEDF"/>
<path d="M1174.89 53.8722C1169.49 54.7481 1168.76 54.1641 1165.7 48.3244C1167.01 48.1784 1167.74 48.9083 1168.62 49.7843C1170.51 51.3902 1172.41 52.9962 1174.89 53.8722Z" fill="#4A6BAA"/>
<path d="M967.258 36.499C964.923 36.207 962.588 35.769 960.983 33.7251C962.297 33.7251 963.756 33.5791 965.069 33.5791C966.236 34.0171 967.112 34.6011 967.404 35.769C967.55 35.915 967.695 36.207 967.549 36.353C967.404 36.353 967.404 36.499 967.258 36.499Z" fill="#798AB6"/>
<path d="M167.508 51.6816C166.779 52.2656 166.049 53.4336 165.028 53.1416C163.714 52.7036 164.298 51.3896 164.152 50.5137C165.903 50.8056 166.925 49.1997 168.384 49.0537C168.092 50.0757 167.8 50.8057 167.508 51.6816Z" fill="#CCC6D2"/>
<path d="M1431.99 22.4834C1432.87 23.2134 1433.3 24.2353 1432.43 25.2573C1432.14 25.6953 1431.7 25.9872 1431.26 25.8413C1430.09 25.2573 1430.68 23.9433 1430.39 22.9214C1430.97 22.4834 1431.41 22.4834 1431.99 22.4834Z" fill="#DBD1D8"/>
<path d="M831.267 38.3975C832.289 38.6894 833.164 38.9814 832.434 40.1494C832.143 40.5874 831.851 41.3173 831.267 41.1713C830.246 40.8794 830.829 39.8574 830.538 39.1274C830.829 38.8354 830.975 38.6894 831.267 38.3975Z" fill="#798AB6"/>
<path d="M1428.49 23.7979C1428.64 25.6958 1427.47 24.3818 1426.88 24.3818C1427.47 24.2358 1428.05 23.9438 1428.49 23.7979Z" fill="#DBD1D8"/>
<path d="M1298.04 96.5019C1306.21 94.312 1313.07 89.6402 1319.93 84.9683C1321.1 84.2384 1322.12 84.6763 1323.29 84.6763C1324.02 84.0923 1324.45 83.0704 1325.62 84.0924C1324.75 86.4283 1321.68 86.8663 1320.22 87.4503C1315.26 89.2022 1312.34 93.436 1307.97 95.9179C1304.17 95.042 1301.11 98.1078 1297.31 97.5239C1297.46 97.0859 1297.9 96.9399 1298.04 96.5019Z" fill="#AAAEC7"/>
<path d="M744.449 129.059C743.427 131.687 741.53 133.293 738.904 134.023C735.256 134.753 732.192 133.439 729.565 131.103C729.857 130.373 730.295 129.789 731.17 129.789C732.192 129.351 733.359 128.913 734.526 129.205C737.445 130.227 740.217 130.373 742.989 128.621C743.427 128.183 744.011 128.621 744.449 129.059Z" fill="#4A6BAA"/>
<path d="M1286.22 105.116C1285.79 104.97 1285.2 104.678 1284.76 104.532C1286.81 103.948 1287.83 101.758 1289.58 100.882C1290.31 100.444 1291.04 100.006 1291.62 99.4224C1292.06 99.1304 1292.35 99.2764 1292.5 99.7144C1293.52 102.05 1292.06 103.218 1290.31 103.218C1288.7 103.364 1287.68 104.532 1286.22 105.116Z" fill="#98A1C1"/>
<path d="M1292.64 99.7139C1292.35 99.5679 1292.06 99.5678 1291.77 99.4218C1293.81 98.2539 1295.56 96.6479 1298.04 96.502C1297.75 96.7939 1297.61 97.2319 1297.31 97.5239C1295.85 98.5459 1294.4 99.4219 1292.64 99.7139Z" fill="#B8B8CC"/>
<path d="M719.206 137.234C719.206 134.898 721.686 135.774 722.562 134.606C722.853 134.752 723.291 134.752 723.145 135.336C722.27 136.796 721.248 137.964 719.206 137.234Z" fill="#F0F3F8"/>
<path d="M711.472 140.884C712.931 140.3 714.245 139.716 715.704 139.132C714.536 140.446 713.515 141.906 711.472 140.884Z" fill="#4A6BAA"/>
<path d="M723.145 135.337C722.999 135.045 722.707 134.753 722.562 134.607C723.291 134.023 724.021 133.585 724.75 133.001C724.604 134.023 724.021 134.899 723.145 135.337Z" fill="#4A6BAA"/>
<path d="M186.477 44.8205C188.228 44.0906 188.812 41.7547 191.584 42.0467C193.481 42.1927 190.854 40.2947 192.314 39.1268C193.627 38.9808 194.356 40.7327 195.524 41.3167C195.961 41.6087 195.961 42.0466 195.815 42.4846C195.67 42.6306 195.67 42.6306 195.524 42.7766C194.794 42.6306 193.919 42.4846 193.335 43.2146C192.314 44.9665 190.854 45.2585 189.103 44.6745C188.666 44.8205 188.228 44.8206 187.79 44.9666C187.498 45.2585 186.915 45.2585 186.477 44.8205Z" fill="#A8ADC6"/>
<path d="M235.65 24.5278C235.942 24.2358 236.087 24.0898 236.379 23.7979C237.547 24.2358 238.714 24.6738 239.881 24.9658C236.671 26.2797 233.461 27.4477 230.251 28.7617C230.689 28.3237 231.126 27.7397 231.564 27.3017C231.272 24.0898 234.337 25.5498 235.65 24.5278Z" fill="#4A6BAA"/>
<path d="M224.414 28.0312C226.165 29.0532 227.916 29.6372 229.813 28.7612C229.813 29.1992 229.813 29.6372 229.959 30.0752C227.333 30.5131 225.29 31.9731 222.955 32.9951C222.226 33.433 221.496 33.579 220.767 33.1411C221.35 30.2212 222.809 28.1772 224.414 28.0312Z" fill="#8A97BD"/>
<path d="M189.249 44.6748C190.417 43.6528 192.022 43.6528 193.481 43.2148C192.751 46.7187 192.168 46.8647 189.249 44.6748Z" fill="#4A6BAA"/>
<path d="M222.955 32.8486C223.976 28.7608 227.478 30.5127 229.959 29.9287C227.624 30.9507 225.727 32.9946 222.955 32.8486Z" fill="#4A6BAA"/>
<path d="M186.477 44.8193C186.914 44.8193 187.352 44.8193 187.79 44.8193C187.206 46.1333 187.498 48.1772 185.018 47.5932C185.018 46.7173 185.018 45.8413 185.018 44.9653C185.601 44.9653 186.039 44.8193 186.477 44.8193Z" fill="#4A6BAA"/>
<path d="M217.411 35.0391C215.368 35.7691 213.179 36.4991 211.136 37.0831C210.99 36.9371 210.99 36.791 210.844 36.645C212.304 33.7252 214.2 33.1412 217.265 34.4551C217.411 34.7471 217.411 34.8931 217.411 35.0391Z" fill="#4A6BAA"/>
<path d="M220.913 32.8491C221.642 32.8491 222.372 32.8491 223.101 32.8491C221.642 34.4551 219.745 35.039 217.557 35.039L217.411 34.8931C217.848 33.1411 218.87 32.2651 220.913 32.8491Z" fill="#4A6BAA"/>
<path d="M198.588 43.5061C197.42 44.3821 195.961 46.28 195.669 42.9221C195.669 42.7761 195.669 42.6301 195.669 42.6301C196.691 42.0461 197.712 41.9001 198.442 43.0681C198.442 43.0681 198.442 43.3601 198.588 43.5061Z" fill="#4A6BAA"/>
<path d="M208.364 38.5433C206.613 39.2733 205.445 41.3172 203.403 41.3172C203.257 41.1712 203.257 41.0252 203.111 40.8792C203.403 37.9593 205.3 37.6673 207.634 37.9593C207.926 38.1053 208.218 38.2513 208.364 38.5433Z" fill="#4A6BAA"/>
<path d="M242.508 23.7973C243.383 22.3374 244.113 20.7314 246.156 20.8774C245.134 22.0454 244.259 23.5053 242.508 23.7973Z" fill="#4A6BAA"/>
<path d="M176.701 51.829C177.43 49.2011 179.473 50.515 180.932 50.515C179.619 51.391 178.16 51.829 176.701 51.829Z" fill="#4A6BAA"/>
<path d="M203.403 41.3155C201.798 42.0455 200.193 42.7755 198.588 43.5054L198.442 43.3594C198.88 40.2935 200.047 39.8556 203.403 41.3155Z" fill="#4A6BAA"/>
<path d="M211.136 37.2277C210.552 38.3956 209.531 38.5416 208.364 38.6876L208.218 38.5417C208.364 36.6437 209.385 36.3517 210.99 37.0817L211.136 37.2277Z" fill="#4A6BAA"/>
<path d="M249.511 18.834C250.387 17.6661 251.7 17.374 253.013 17.52C252.138 18.25 250.824 18.688 249.511 18.834Z" fill="#5B76AE"/>
<path d="M173.199 51.6816C174.366 51.6816 175.533 51.6816 176.701 51.6816C175.533 52.5576 174.366 52.7036 173.199 51.6816Z" fill="#4A6BAA"/>
<path d="M253.743 17.5185C253.889 16.2046 254.326 15.3286 255.931 16.0586C255.202 16.4965 254.472 16.9345 253.743 17.5185Z" fill="#4A6BAA"/>
<path d="M41.4393 61.0248C41.5852 62.0468 42.1688 62.7768 43.0443 63.2148C37.2078 66.2806 31.5172 69.2005 25.5347 71.5364C25.2429 71.5364 24.9511 71.5364 24.8052 71.5364C25.5347 69.4925 27.4316 69.2005 28.8907 68.0326C30.204 67.0106 31.9549 66.2806 32.5386 64.3827C35.0191 68.1786 36.3323 64.8207 37.9374 63.7987C38.3751 62.6308 38.521 61.1708 40.1261 61.0248C40.5638 60.8789 41.0015 61.0248 41.4393 61.0248Z" fill="#B2B3C9"/>
<path d="M778.154 87.5976C782.094 88.0356 784.429 86.4296 785.888 82.0498C787.347 82.1958 788.66 82.4878 789.973 82.6338C790.119 82.7798 790.265 83.0717 790.265 83.2177C790.265 83.3637 790.265 83.5097 790.119 83.5097C788.66 84.6777 788.368 87.1596 785.742 86.8676C785.45 86.8676 785.158 86.7216 785.012 86.8676C782.824 90.2255 779.468 91.9774 775.966 93.5834C776.112 96.7952 773.193 97.3792 771.443 98.8392C767.795 101.905 764.293 104.971 759.915 107.307C758.456 108.037 758.164 111.395 756.268 112.855C755.684 113.439 754.808 113.731 754.225 114.169C753.933 114.169 753.641 114.169 753.203 114.023C752.912 112.271 752.474 110.665 755.1 110.665C755.538 110.665 756.268 110.081 756.413 109.643C758.019 104.387 764.293 103.949 766.773 99.2771C767.941 97.2332 772.172 96.9412 773.485 94.1673C775.09 92.1234 778.884 91.2474 778.154 87.5976Z" fill="#AAAEC6"/>
<path d="M744.449 129.059C741.385 131.979 738.32 133.439 734.381 130.373C733.651 129.789 732.192 129.935 731.025 129.789C734.381 128.475 737.299 126.578 741.093 126.14C745.032 125.702 748.534 123.512 749.993 119.278C750.285 118.548 750.723 118.11 751.452 117.964C751.598 118.11 751.744 118.256 751.598 118.402C751.598 118.548 751.452 118.694 751.452 118.694C752.328 122.49 749.264 123.95 747.075 125.848C745.908 126.578 744.886 127.6 744.449 129.059Z" fill="#617AAF"/>
<path d="M754.37 114.314C754.37 113.292 754.516 112.562 755.684 112.271C756.267 112.708 757.289 112.27 757.726 112.854C757.435 114.898 756.267 116.066 754.225 116.358C754.516 115.628 754.808 114.898 754.37 114.314Z" fill="#7688B5"/>
<path d="M712.932 135.337C714.537 134.607 716.142 133.877 717.747 133.147C717.309 136.797 717.163 136.943 712.932 135.337Z" fill="#ADB0C9"/>
<path d="M751.452 118.402C751.452 118.11 751.452 117.964 751.452 117.672C752.328 117.234 753.349 116.65 754.225 116.212C753.349 117.088 754.517 120.446 751.452 118.402Z" fill="#7688B5"/>
<path d="M806.899 63.7994C808.942 60.2956 811.423 57.2297 815.362 55.6237C816.092 55.3317 816.238 54.6018 816.092 53.8718C815.654 50.222 817.405 49.492 820.469 50.6599C820.907 50.8059 821.637 50.5139 822.074 50.3679C822.512 50.8059 822.512 51.3899 822.074 51.8279C819.594 54.1638 816.967 56.4997 815.07 59.4196C816.384 60.4416 816.384 62.0475 815.07 62.3395C812.736 62.9235 810.839 64.3834 808.796 65.2594C807.921 65.5514 807.191 65.4054 806.607 64.6754C806.607 64.3834 806.607 64.0914 806.899 63.7994Z" fill="#A9ACC6"/>
<path d="M757.727 112.853C756.851 113.145 756.122 112.999 755.684 112.269C758.602 107.306 763.855 104.678 767.795 100.882C770.421 98.3998 773.923 96.9399 776.112 93.874C777.279 95.188 777.425 95.9179 775.528 97.0859C770.129 100.298 766.19 105.408 760.499 108.181C759.186 108.619 759.332 111.539 757.727 112.853Z" fill="#A1A7C4"/>
<path d="M806.9 63.7999C806.9 64.0918 806.9 64.2378 806.9 64.5298C806.608 66.4278 805.149 67.7417 804.711 69.6396C804.565 70.5156 803.689 71.0996 802.96 70.9536C801.209 70.6616 800.333 72.1216 799.02 72.7055C798.291 74.1655 797.561 75.4794 796.977 76.9394C796.54 77.3773 796.102 77.5233 795.518 77.6693C794.935 77.6693 794.497 77.5233 794.205 76.9394C797.123 74.8954 798.874 72.2676 798.437 68.4717C798.291 67.8877 798.582 67.0118 799.02 67.0118C802.084 67.1577 803.544 63.3619 806.9 63.7999Z" fill="#C2BFCE"/>
<path d="M799.02 72.8505C799.604 71.6825 800.333 70.6605 801.792 70.5145C802.96 70.3685 804.127 69.7845 803.835 68.6166C803.252 65.8427 805.44 65.5507 806.753 64.5288C809.818 64.6747 812.006 62.1928 814.925 61.6089C815.8 61.4629 815.362 60.2949 815.216 59.4189C817.405 60.8789 816.53 62.0468 814.925 63.0688C814.195 63.5068 813.174 63.5068 812.444 64.2367C810.401 66.1347 807.045 65.8427 805.878 69.3466C805.148 71.9745 801.355 71.6825 799.02 72.8505Z" fill="#8C98BC"/>
<path d="M844.691 30.8057C844.983 30.8057 845.129 30.8057 845.421 30.8057C847.172 31.0977 847.609 31.9736 846.734 33.5796C843.378 34.6015 840.314 36.2075 837.541 38.5434C836.666 39.2734 835.791 38.6894 834.915 38.5434C837.979 35.7695 842.065 34.3095 844.691 30.8057Z" fill="#939DBF"/>
<path d="M967.258 36.4991C967.258 36.2071 967.258 35.9151 967.258 35.6231C970.76 37.521 973.678 34.7471 976.888 34.4551C978.055 34.3091 979.223 33.7252 980.536 34.3091C976.304 35.6231 972.511 38.105 967.987 38.397C967.841 37.813 967.55 37.083 967.258 36.4991Z" fill="#7A8BB7"/>
<path d="M984.913 29.4901C984.913 29.1981 984.768 28.9061 984.768 28.6141C985.497 27.5921 987.248 28.1761 987.54 26.5702C988.853 23.5043 990.312 27.0082 991.771 26.5702C990.166 28.9061 988.707 31.972 984.913 29.4901Z" fill="#7A8BB6"/>
<path d="M822.22 51.9736C822.22 51.5356 822.22 50.9516 822.22 50.5137C824.409 49.3457 823.533 45.4039 827.035 45.5498C826.452 48.3237 825.284 50.6596 822.22 51.9736Z" fill="#909ABD"/>
<path d="M795.664 77.085C796.102 77.085 796.54 77.085 796.977 77.085C795.956 80.2968 794.351 82.7787 790.703 83.5087C790.411 83.6547 790.12 83.6547 789.974 83.3627C789.974 83.0707 789.974 82.9247 789.974 82.6327C791.871 80.8808 792.892 78.1069 795.664 77.085Z" fill="#8C98BC"/>
<path d="M846.734 33.5787C846.734 32.4107 846.15 31.6808 845.42 30.8048C846.588 29.7828 847.755 28.7609 849.506 29.1989C850.236 31.8268 847.171 31.8268 846.734 33.5787Z" fill="#7487B4"/>
<path d="M789.974 83.3633C790.266 83.3633 790.557 83.3633 790.703 83.5093C789.682 85.5532 789.098 88.1811 785.742 87.0131C787.785 86.4292 787.785 83.6553 789.974 83.3633Z" fill="#7386B4"/>
<path d="M1007.24 12.5551C1008.41 11.2412 1007.82 8.90527 1010.01 8.32129C1009.57 10.0732 1009.57 12.1171 1007.24 12.5551Z" fill="#939DBF"/>
<path d="M1004.47 14.1618C1005.05 12.9939 1006.07 12.5559 1007.24 12.7019C1006.36 13.1399 1005.49 13.5779 1004.47 14.1618Z" fill="#939DBF"/>
<path d="M1391.87 58.1049C1394.93 58.8349 1395.51 60.1488 1394.78 63.3607C1394.05 65.9886 1395.08 69.2005 1394.64 72.1204C1394.05 75.6242 1392.59 78.9821 1391.28 82.194C1390.99 82.778 1390.26 83.5079 1389.82 83.5079C1386.76 83.5079 1384.86 85.9898 1382.53 87.0118C1376.84 89.3477 1370.71 91.3916 1364.29 89.0557C1361.95 88.1797 1359.33 87.8878 1356.7 87.4498C1354.37 87.0118 1352.18 86.2818 1350.72 84.2379C1349.84 83.0699 1348.38 82.778 1347.07 82.34C1345.46 81.756 1344.01 80.88 1344.15 78.8361C1344.3 76.9381 1345.76 75.6242 1347.51 75.3322C1350.28 75.0402 1352.91 74.8942 1354.37 71.9744C1354.51 71.6824 1354.95 71.5363 1355.24 71.5363C1360.93 71.5363 1365.6 68.4705 1370.27 65.8426C1370.42 65.6966 1370.71 65.6966 1371 65.6966C1371.73 64.6746 1372.75 63.7987 1373.92 63.3607C1375.38 62.7767 1376.69 62.1927 1377.13 60.4408C1377.42 59.2728 1378.73 58.5429 1379.61 58.9809C1381.8 60.1488 1382.82 58.5428 1384.28 57.6669C1385.88 57.3749 1387.63 57.8129 1389.24 57.0829C1390.26 56.7909 1391.28 57.0829 1391.87 58.1049Z" fill="#4565A4"/>
<path d="M1412.44 34.3084C1413.61 35.1844 1414.77 34.8924 1415.94 34.3084C1416.23 34.7464 1416.52 35.6224 1416.82 35.7684C1420.03 36.2063 1423.38 35.6224 1426.59 36.7903C1427.61 37.0823 1428.05 35.6224 1428.34 34.6004C1428.49 33.5785 1429.22 32.8485 1430.24 33.8705C1431.7 35.3304 1433.6 35.3304 1435.2 33.7245C1435.78 33.1405 1436.08 32.1185 1436.95 32.1185C1438.27 31.9725 1440.16 33.4325 1440.75 31.0966C1441.18 29.3446 1440.75 27.4467 1440.31 25.5487C1440.02 24.5268 1437.54 23.3589 1440.16 22.4829C1442.5 21.6069 1443.37 24.3808 1445.12 25.1108C1445.56 25.2568 1444.69 25.9867 1444.25 26.4247C1443.66 26.8627 1442.79 27.1547 1443.52 28.0307C1444.1 28.7606 1444.83 28.3227 1445.42 27.8847C1446.58 27.0087 1448.04 26.4248 1449.06 25.4028C1451.25 23.5049 1453.73 21.6069 1456.8 22.0449C1460.01 22.4829 1461.9 21.3149 1462.92 18.249C1462.92 18.541 1462.92 18.833 1462.92 18.979C1464.53 22.6289 1464.53 22.6289 1461.03 24.3808C1460.15 24.8188 1459.57 25.4028 1458.69 25.9868C1458.4 26.2787 1458.26 26.4247 1457.96 26.7167C1457.09 27.1547 1455.92 26.4248 1455.19 27.5927C1452.86 31.5346 1448.77 32.4105 1444.83 33.4325C1444.54 33.5785 1444.1 33.2865 1443.81 32.9945C1442.06 31.8265 1441.62 33.8704 1440.6 34.4544C1440.31 34.6004 1440.02 34.7464 1439.72 34.7464C1438.85 34.8924 1437.97 35.1844 1437.54 35.7684C1435.64 38.5423 1432.87 39.1263 1429.8 39.2723C1429.51 39.5643 1429.36 39.7103 1429.07 40.0022C1428.78 40.4402 1428.34 40.5862 1427.76 40.4402C1426.15 42.4841 1424.26 43.6521 1421.49 43.7981C1419.88 43.7981 1418.71 42.7761 1417.25 42.7761C1416.67 42.9221 1416.23 43.5061 1415.65 43.7981C1415.36 43.9441 1415.07 44.0901 1414.77 44.0901C1413.61 43.7981 1412.29 44.0901 1411.13 43.6521C1411.13 43.7981 1411.42 43.9441 1411.42 44.0901C1411.86 45.258 1411.86 46.864 1410.69 47.156C1408.21 47.7399 1406.46 49.4919 1404.27 50.5138C1400.77 51.3898 1396.68 50.6598 1394.2 53.5797C1391.14 57.0836 1386.76 57.8136 1382.96 59.4195C1380.48 60.0035 1378.59 59.1275 1377.71 56.6456C1381.36 55.7696 1383.69 53.2877 1385.74 50.3678C1386.17 49.7838 1386.61 49.0539 1387.05 48.9079C1389.24 48.3239 1390.55 47.4479 1390.99 46.28C1391.72 47.3019 1392.59 48.6159 1394.05 47.5939C1395.51 46.426 1393.18 46.134 1393.32 44.674C1400.47 45.55 1404.71 37.6663 1412.58 38.3963C1411.42 36.7904 1410.1 35.4764 1412.44 34.3084Z" fill="#DFD3D8"/>
<path d="M1330.44 79.8585C1330.58 79.8585 1330.73 79.8585 1330.73 79.7125C1332.92 78.6906 1333.5 75.4787 1337.29 75.9167C1339.63 76.2087 1342.69 74.0188 1344.88 72.7048C1348.24 70.8069 1352.91 70.2229 1354.66 65.9891C1354.8 65.5511 1355.39 65.1131 1355.68 65.1131C1359.62 65.9891 1362.24 62.4852 1365.6 62.0472C1368.08 61.7552 1365.31 59.7113 1366.77 59.1273C1369.1 59.7113 1371.73 61.9012 1373.33 57.5214C1374.06 55.4775 1374.94 58.3974 1375.96 58.1054C1377.57 58.8353 1378.44 60.2953 1377.57 61.7552C1376.4 63.6532 1374.36 64.6751 1372.02 64.9671C1371 65.1131 1369.69 64.9671 1368.66 64.5291C1368.08 64.2371 1367.35 63.9451 1366.77 63.6531C1365.16 65.2591 1364.43 65.6971 1362.54 65.6971C1362.1 65.989 1361.66 66.281 1361.22 66.573C1360.49 67.011 1359.62 67.303 1359.03 67.741C1358.31 69.347 1357.43 70.2229 1355.39 70.6609C1352.03 71.2449 1348.67 72.1208 1345.76 74.1648C1343.57 75.4787 1341.09 76.2087 1338.75 77.0847H1338.9C1337.59 77.6686 1336.56 78.5446 1335.25 79.1286C1334.23 79.7125 1333.35 80.2965 1332.33 80.7345C1331.46 81.3185 1330.44 81.4645 1330.44 79.8585Z" fill="#DAD0D7"/>
<path d="M1383.55 58.6894C1386.61 58.1054 1388.36 54.6015 1392.3 55.0395C1391.86 54.4555 1391.72 54.1635 1391.43 54.0175C1390.55 53.2875 1388.22 53.7255 1388.95 51.9736C1389.68 50.2217 1391.28 51.5356 1392.45 52.2656C1393.47 52.9956 1394.64 52.9956 1394.93 51.6816C1395.66 49.0537 1396.83 48.7617 1399.16 50.0757C1400.91 51.0976 1402.95 49.1997 1404.85 50.3676C1404.56 50.5136 1403.98 50.5137 1403.83 50.6597C1403.39 51.9736 1405.14 54.7475 1401.64 54.0175C1399.89 53.7255 1398.29 55.7694 1396.53 54.0175C1396.1 53.5795 1394.78 53.4336 1394.64 54.6015C1394.64 56.4995 1392.3 56.3534 1392.01 57.9594C1389.53 58.1054 1387.2 59.8573 1384.57 58.8354C1384.13 59.2733 1383.84 59.1273 1383.55 58.6894Z" fill="#C2BFCF"/>
<path d="M1383.55 58.6894C1383.84 58.6894 1384.28 58.8354 1384.57 58.8354C1382.53 62.9233 1382.23 63.0693 1379.32 60.4414C1378.29 64.8212 1374.36 64.6752 1371.15 65.6971C1370.42 65.2592 1369.54 64.8212 1368.81 64.3832C1370.12 64.2372 1371.29 64.2372 1372.6 64.0912C1376.25 63.5073 1377.42 61.3173 1375.96 58.1055C1376.69 57.6675 1377.27 57.0835 1378 56.6455C1379.9 57.2295 1381.51 58.6894 1383.55 58.6894Z" fill="#BAB9CC"/>
<path d="M1415.21 43.3608C1415.65 42.4848 1416.09 41.4629 1416.67 40.5869C1417.69 41.7549 1417.55 42.9228 1416.67 43.9448C1416.23 47.1566 1413.46 47.8866 1411.13 48.7626C1409.37 49.4926 1407.33 48.6166 1406.31 51.2445C1406.02 52.1205 1404.85 51.3905 1404.56 50.3685C1406.16 48.9086 1407.19 46.8647 1409.52 46.1347C1410.83 45.8427 1410.83 44.3828 1410.98 43.2148C1412.44 43.0688 1413.75 41.0249 1415.21 43.3608C1414.63 43.7988 1414.04 43.9448 1413.31 44.0908C1414.04 44.0908 1414.63 43.9448 1415.21 43.3608Z" fill="#C2BFCF"/>
<path d="M1443.96 32.9957C1444.69 32.7037 1445.56 32.5577 1446.29 32.2657C1448.48 31.5357 1450.81 30.8058 1448.19 27.8859C1449.35 27.3019 1449.94 28.0318 1450.52 28.4698C1452.27 29.4918 1453.88 29.1998 1454.32 27.3019C1455.19 23.798 1456.5 25.258 1457.96 26.5719C1455.34 28.7618 1453.44 31.5357 1449.94 32.8497C1447.9 33.5796 1446 34.6016 1443.96 32.9957Z" fill="#AEB0C8"/>
<path d="M1416.52 44.0894C1416.52 42.9215 1416.52 41.7535 1416.52 40.7316C1418.13 41.3156 1419.73 42.1915 1421.34 42.4835C1423.38 42.9215 1425.57 43.2134 1426.15 40.1476C1426.3 39.1256 1427.03 39.4176 1427.76 39.8556C1427.76 40.2936 1427.61 40.7315 1427.18 40.8775C1427.32 42.9215 1426.45 43.9434 1424.4 44.0894C1423.24 44.2354 1421.92 44.2354 1421.34 45.2574C1419.88 47.7393 1419 46.8633 1418.28 44.8194C1417.98 44.0894 1417.25 43.9434 1416.52 44.0894Z" fill="#B5B6CA"/>
<path d="M1429.95 39.1265C1432.43 37.6666 1435.2 36.7906 1436.66 33.8707C1437.39 32.5568 1438.7 33.7247 1439.72 33.5787C1439.72 35.1846 1437.68 35.4767 1437.68 37.0826C1436.22 41.9004 1432.87 40.0025 1429.95 39.1265Z" fill="#B5B6CA"/>
<path d="M1458.69 25.8413C1459.28 25.1113 1459.71 23.9433 1460.44 23.7973C1463.07 23.0674 1463.22 21.1694 1462.92 18.9795C1464.24 19.7095 1465.7 20.2935 1467.01 21.0235C1465.99 23.6514 1463.22 23.6513 1461.32 25.1113C1460.44 25.4033 1459.57 25.6953 1458.69 25.8413Z" fill="#B2B3C9"/>
<path d="M1461.32 25.1108C1463.65 24.3808 1463.95 20.877 1467.01 21.023C1467.74 21.607 1468.91 21.6069 1468.62 22.9209C1466.72 24.3808 1464.09 23.7969 1462.2 25.1108C1461.9 25.1108 1461.61 25.1108 1461.32 25.1108Z" fill="#5E77AD"/>
<path d="M1338.9 77.2319C1341.09 75.7719 1342.84 73.582 1345.9 74.312C1344.3 77.2319 1341.52 76.9399 1338.9 77.2319Z" fill="#BDBBCD"/>
<path d="M1440.31 33.5797C1441.33 32.4117 1442.5 31.9737 1443.81 32.9957C1442.35 33.4337 1442.79 34.7476 1442.35 35.7696C1441.77 37.5215 1440.89 37.3755 1440.31 35.7696C1439.72 35.0396 1440.45 34.3096 1440.31 33.5797Z" fill="#AEB0C8"/>
<path d="M1362.68 65.8437C1363.56 63.9458 1365.45 64.3838 1366.91 63.7998C1366.33 67.1577 1366.33 67.1577 1362.68 65.8437Z" fill="#B5B5CA"/>
<path d="M1330.44 79.8581C1332.33 81.172 1333.65 79.1281 1335.4 79.2741C1333.79 81.318 1331.46 82.048 1328.98 82.486C1328.98 81.902 1328.98 81.172 1328.98 80.5881C1329.41 80.2961 1329.85 80.1501 1330.44 79.8581Z" fill="#BDBBCD"/>
<path d="M1440.31 33.5791C1441.04 34.3091 1440.75 35.039 1440.31 35.769C1439.43 36.207 1438.56 36.645 1437.68 37.229C1437.24 35.331 1438.27 34.4551 1439.72 33.7251C1440.02 33.5791 1440.16 33.5791 1440.31 33.5791Z" fill="#687EB0"/>
<path d="M1427.18 40.8784C1427.32 40.5864 1427.61 40.1484 1427.76 39.8564C1428.2 39.8564 1428.63 39.8565 1429.07 40.0024C1429.66 40.5864 1430.97 41.3164 1430.24 42.1924C1428.93 43.3603 1428.34 41.0244 1427.18 40.8784Z" fill="#8996BC"/>
<path d="M1335.4 79.2754C1335.98 77.5234 1337.44 77.3774 1339.04 77.2314C1338.02 78.5454 1337.29 80.0053 1335.4 79.2754Z" fill="#BDBBCD"/>
<path d="M1325.47 84.0925C1324.74 84.2385 1324.02 84.5305 1323.14 84.6765C1323.72 82.6326 1324.89 81.9026 1326.93 82.7786C1326.5 83.2166 1326.06 83.6545 1325.47 84.0925Z" fill="#BDBBCD"/>
<path d="M1359.03 67.8877C1359.47 67.0117 1360.35 66.7197 1361.22 66.7197C1360.93 67.7417 1360.06 67.8877 1359.03 67.8877Z" fill="#959EBF"/>
<path d="M44.2117 62.3393C45.8167 61.1713 45.5249 59.2734 45.379 57.5215C47.2758 57.9595 46.8381 59.2734 46.984 60.2954C46.5463 61.7553 45.8167 62.4853 44.2117 62.3393Z" fill="#9AA2C1"/>
<path d="M47.7136 60.2954C48.2973 59.1274 48.8809 58.1055 50.3401 58.1055C49.7564 59.1274 49.9023 61.0254 47.7136 60.2954Z" fill="#9AA2C1"/>
<path d="M1468.62 22.9211C1468.03 22.3371 1467.59 21.6072 1467.01 21.0232C1468.76 20.7312 1470.8 21.0232 1471.24 18.3953C1471.39 17.8113 1472.26 18.1033 1472.85 18.2493C1473.43 21.6071 1469.78 21.3152 1468.62 22.9211Z" fill="#B2B3C9"/>
<path d="M210.99 36.9374C209.969 37.2294 208.947 37.5214 208.218 38.3973C205.737 37.8134 205.008 40.2953 203.257 41.1712C201.214 41.0252 199.171 40.7332 198.296 43.2151C197.42 42.9231 196.399 42.6311 195.523 42.3392C195.523 41.9012 195.523 41.6092 195.523 41.1712C196.545 39.8573 197.128 37.6674 199.609 39.2733C199.755 39.2733 199.901 39.2733 199.901 39.2733C200.922 34.7475 205.883 37.9593 208.072 35.1854C209.239 33.5795 211.574 33.1415 213.617 32.7036C219.015 31.8276 219.015 31.8276 219.453 27.0097C221.496 28.1777 223.685 27.1557 225.436 26.4258C227.187 25.5498 228.938 25.4038 230.689 24.9658C229.083 27.0097 226.895 27.7397 224.414 27.7397C222.371 28.7617 222.955 31.6816 220.766 32.5576C219.599 33.2875 218.432 33.8715 217.264 34.6015C214.784 34.4555 212.741 35.1855 210.99 36.9374Z" fill="#B9B9CC"/>
<path d="M224.414 23.0674C222.955 24.8193 222.226 23.6514 221.642 22.3374C222.809 21.6075 223.685 21.7535 224.414 23.0674Z" fill="#B9B9CC"/>
<path d="M39.9801 60.8799C39.2505 61.7558 38.521 62.7778 37.7914 63.6538C37.7914 62.3398 36.3323 62.0478 35.8945 60.8799C37.3537 60.8799 38.6669 60.8799 39.9801 60.8799Z" fill="#BBBACC"/>
<path d="M795.664 77.0855C793.475 78.6914 793.475 82.3412 789.973 82.6332C789.682 79.5673 792.454 78.6914 794.205 76.9395C794.643 77.0854 795.08 77.0855 795.664 77.0855Z" fill="#AAAEC6"/>
<path d="M235.65 24.5269C234.92 26.4249 231.856 24.9649 231.418 27.3008C231.272 24.089 233.607 24.5269 235.65 24.5269Z" fill="#8A97BD"/>
<path d="M1410.98 43.3602C1410.1 43.5062 1409.23 43.7982 1408.35 43.9442C1408.06 42.6302 1408.35 41.3163 1409.67 41.1703C1411.27 40.8783 1409.81 43.0682 1410.98 43.3602Z" fill="#C2BFCF"/>
<path d="M1399.45 53.1412C1399.01 52.7032 1398.72 52.4112 1398.58 51.9732C1398.43 51.3893 1398.87 51.0973 1399.31 51.2433C1399.6 51.3893 1399.89 51.8273 1400.04 52.2652C1400.18 52.5572 1399.74 52.8492 1399.45 53.1412Z" fill="#4565A4"/>
<path d="M1415.21 43.3604C1414.48 44.6743 1413.61 45.1123 1412.15 44.5283C1412.58 42.9224 1414.04 43.5063 1415.21 43.3604Z" fill="#667DB0"/>
</svg>
