<svg width="289" height="93" viewBox="0 0 289 93" fill="none" xmlns="http://www.w3.org/2000/svg">
<path d="M22.1178 31.0345C26.6309 22.3796 30.8468 13.8996 35.8409 4.36176C29.5198 3.4775 24.999 6.33564 22.4803 10.2171C14.924 21.8616 7.54248 33.8033 1.28001 46.2873C-2.33227 53.4123 2.05574 58.8339 9.98586 58.372C23.2406 57.78 36.443 56.4186 49.8202 55.3545C50.5896 55.3022 51.5951 55.3111 51.9537 54.9002C53.5627 53.5541 54.7608 51.8494 56.195 50.206C54.7263 49.0691 53.5027 46.988 52.0251 46.8565C46.8843 46.2785 41.857 46.2338 36.8909 45.9531C34.1718 45.7515 31.6275 45.8472 28.1569 43.687C31.4885 41.528 34.8813 39.1331 38.2128 36.9742C108.97 -4.62973 196.304 5.43281 256.315 61.5665C263.999 68.851 270.729 76.896 278.055 84.5914C280.633 87.276 283.273 89.7246 285.852 92.4092C286.683 92.1209 287.338 91.5352 288.169 91.2469C288.012 88.9386 288.511 86.0448 287.226 84.1997C283.319 77.8951 279.412 71.5906 274.613 65.8105C227.097 8.13158 146.087 -14.651 72.5262 9.59717C58.4663 14.2633 45.2715 21.4215 31.8496 27.5129C28.9991 28.7888 26.5595 30.4233 23.8838 31.9966C23.3504 32.1101 22.7035 31.6903 22.1178 31.0345Z" fill="#BB421B"/>
</svg>
