<svg width="147" height="178" viewBox="0 0 147 178" fill="none" xmlns="http://www.w3.org/2000/svg">
<path d="M0 3.18761C7.4095 -1.65242 14.8191 -0.123991 21.4621 2.16865C30.66 5.48025 39.6025 9.81081 47.7785 14.9056C84.826 39.3605 107.054 74.2596 116.252 117.31C118.552 128.264 119.318 139.727 120.851 152.21C131.071 146.351 136.437 134.887 146.657 128.264C147.934 133.359 145.379 136.671 143.335 139.473C134.904 150.936 126.217 162.399 117.274 173.608C112.931 178.957 109.609 179.467 105.01 174.881C95.3015 165.456 89.425 153.993 87.6365 140.746C87.6365 140.237 88.403 139.473 89.4249 138.199C100.411 141.001 97.8564 155.012 107.31 160.106C111.398 142.53 108.332 125.717 103.733 109.414C98.8785 92.346 92.491 76.0428 82.271 61.5227C72.3065 47.2574 59.787 35.7941 45.99 25.0951C32.4485 14.1414 17.1185 7.26343 0 3.18761Z" fill="#646464"/>
</svg>
