<svg width="250" height="322" viewBox="0 0 250 322" fill="none" xmlns="http://www.w3.org/2000/svg">
<path d="M196.165 297.551C91.5979 222.25 28.6685 123.751 2.99566e-05 1.59972e-05C12.2842 2.58371 13.2083 10.6637 14.6946 16.3605C27.5154 59.3245 49.8554 97.9302 71.5996 136.395C102.85 191.884 147.007 235.322 198.213 272.876C200.315 274.63 202.926 275.56 208.603 278.158C198.052 249.566 173.51 229.625 170.162 201.16C171.862 200.618 173.703 199.48 175.404 198.938C186.751 214.823 198.326 231.077 210.041 246.734C221.757 262.392 233.613 277.454 244.96 293.339C253.208 305.034 250.504 313.831 236.727 316.241C218.954 319.595 200.919 320.058 182.972 321.484C181.044 321.658 178.52 321.692 176.873 320.674C172.896 317.535 170.024 313.712 166.188 309.977C169.415 306.964 172.327 302.62 175.868 300.939C180.742 298.944 186.017 299.245 196.165 297.551Z" fill="#646464"/>
</svg>
