<svg width="440" height="546" viewBox="0 0 440 546" fill="none" xmlns="http://www.w3.org/2000/svg">
<path d="M337.928 492.764C323.521 513.468 292.159 513.873 288.719 545.474C295.575 544.019 300.172 543.476 303.409 541.731C343.299 521.244 383.942 500.453 423.528 479.212C430 475.723 438.572 468.759 439.231 462.801C440.324 451.413 429.385 449.262 420.032 447.785C390.386 442.681 360.436 436.824 330.262 431.495C331.152 449.963 331.152 449.963 379.23 466.014C291.507 499.249 200.949 449.563 186.551 358.612C195.745 357.526 204.715 356.969 213.909 355.883C240.435 352.177 262.943 341.774 280.665 320.606C293.356 305.41 298.729 288.354 290.599 269.307C281.941 250.035 265.109 244.134 245.28 243.823C202.754 242.606 171.095 267.213 162.111 308.934C161.148 314.139 159.128 318.896 156.739 325.99C106.019 308.817 64.6087 280.003 39.1262 234.249C-0.762632 163.663 58.7828 41.3348 108.222 13.0505C114.166 9.33675 121.246 7.3532 131.483 2.34359C114.427 -3.02841 102.38 1.83641 90.8618 6.92564C45.7664 26.45 -3.84645 143.015 0.235918 192.158C3.20366 223.36 14.4535 251.218 34.9628 274.899C65.1584 309.555 101.508 335.596 145.806 348.795C150.259 350.062 154.487 351.857 159.996 353.573C169.255 394.933 183.784 434.164 219.235 462.319C254.079 488.969 295.996 488.68 337.928 492.764ZM183.597 331.782C182.172 288.135 208.466 260.003 245.496 263.876C254.546 264.6 265.195 270.371 270.27 277.516C277.314 287.369 271.319 298.547 262.827 306.793C241.564 328.953 215.198 335.222 183.597 331.782Z" fill="#646464"/>
</svg>
