<svg width="453" height="1030" viewBox="0 0 453 1030" fill="none" xmlns="http://www.w3.org/2000/svg">
<path d="M-6.10352e-05 261.801C4.28729 225.322 6.43097 186.697 10.7184 150.217C66.4542 160.947 122.19 169.53 175.782 175.967C177.926 118.03 177.926 57.9466 175.782 -2.13672C220.799 2.15495 265.817 6.44661 310.834 10.7383C302.259 70.8216 291.541 128.759 280.823 186.697C338.702 190.988 394.438 190.988 452.317 190.988C448.03 227.467 445.886 266.092 441.599 302.572C383.719 291.842 325.84 281.113 267.96 274.676C231.518 523.592 216.512 776.801 220.799 1030.01C175.782 1025.72 130.765 1021.43 85.7473 1017.13C135.052 770.363 165.064 519.301 175.782 266.092C115.759 261.801 57.8794 261.801 -6.10352e-05 261.801Z" fill="#BB421B"/>
</svg>
