<svg width="1728" height="240" viewBox="0 0 1728 240" fill="none" xmlns="http://www.w3.org/2000/svg">
<path d="M1775.35 16.5051C1762.89 12.356 1748.86 12.7017 1736.01 14.7763C1727.83 11.6645 1719.27 17.1966 1711.09 14.7763C1702.52 4.74927 1694.34 11.6645 1685.77 14.7763C1677.2 5.09503 1669.02 -1.4744 1660.46 14.7763C1652.28 17.8881 1642.54 21.3458 1634.36 14.4306C1628.13 5.09506 1625.01 24.4576 1618.78 11.3187C1612.55 10.2814 1605.93 12.0102 1599.7 11.3187C1589.18 13.739 1578.67 10.9729 1568.15 11.3187C1562.7 10.2814 1557.25 10.2814 1551.8 11.6645C1544.78 9.93569 1541.67 18.9255 1535.44 10.973C1529.99 12.356 1526.48 7.86114 1519.86 5.78658C1515.19 10.973 1510.9 10.973 1506.23 7.51538C1498.83 6.13234 1491.43 6.82386 1484.03 10.973C1478.19 6.13234 1475.46 23.7661 1471.57 16.8509C1470.4 14.7763 1468.84 15.4678 1466.89 19.9627C1466.5 15.4678 1465.72 14.4306 1465.33 19.617C1461.83 20.6543 1458.32 24.4576 1454.82 24.8034C1447.42 28.9525 1438.85 29.644 1430.28 28.9525C1421.71 28.9525 1413.15 21.3457 1404.97 28.6067C1399.51 26.8779 1388.22 33.4474 1383.55 28.9525C1380.82 27.9152 1380.04 27.5694 1376.54 34.1389C1374.98 34.4846 1370.3 29.2982 1369.14 34.1389C1360.96 30.3355 1353.17 46.2404 1345.38 35.5219C1334.86 37.2507 1325.91 54.193 1315 44.8574C1305.65 49.0066 1295.92 50.0438 1286.57 44.5117C1280.34 46.2405 1274.11 46.2405 1267.49 44.5117C1263.2 35.8677 1258.92 38.6338 1254.63 44.8574C1253.08 51.0811 1253.08 52.4641 1251.52 48.6608C1247.62 47.9692 1240.22 51.0811 1235.16 47.9693C1221.92 46.2405 1209.46 43.1286 1196.21 39.671C1186.87 38.6338 1179.86 39.671 1171.29 37.5965C1164.28 37.5965 1156.49 37.2507 1148.7 35.5219C1140.91 37.5964 1132.73 26.1864 1125.72 36.2135C1118.32 31.0271 1112.09 44.5117 1104.69 37.9422C1097.29 38.288 1090.67 34.1389 1083.66 36.2135C1078.6 31.3728 1073.53 25.1491 1068.08 31.7186C1062.24 28.261 1060.29 37.2507 1054.45 32.7559C1051.72 31.3728 1048.61 39.671 1045.49 32.7559C1038.87 34.8304 1032.64 36.5592 1026.02 31.0271C1022.9 29.2983 1019.4 29.644 1016.28 31.0271C1009.66 34.8304 1011.61 27.5695 1007.32 29.2983C994.86 22.3831 988.629 29.2982 976.555 32.4101C964.482 32.4101 950.072 32.4101 937.609 32.7559C933.325 32.4101 928.262 29.9898 923.978 32.4101C921.251 32.4101 918.136 26.1864 915.409 28.9525C908.399 23.0746 904.115 24.1119 896.715 24.1119C892.042 24.4576 887.757 26.8779 883.473 23.0746C879.968 20.6543 878.8 16.8509 874.905 20.6543C868.674 18.2339 862.053 17.8882 855.821 20.6543C850.369 23.0746 844.527 20.3085 839.074 20.6543C832.064 26.1864 828.169 17.5424 820.38 15.1221C817.264 14.0848 812.98 12.0102 809.864 15.1221C804.022 12.0102 800.907 18.5797 794.286 18.9255C786.886 19.617 780.655 18.2339 774.813 21C771.697 22.7288 769.75 19.2712 765.076 27.5695C762.739 31.0271 758.066 27.5694 756.118 27.2237C744.434 36.2134 732.361 27.9152 721.066 29.2983C721.456 35.5219 721.066 36.9049 720.677 32.0643C711.719 33.7931 702.762 26.5322 693.804 32.4101C691.078 35.1762 686.793 35.1761 684.067 32.0643C680.173 32.4101 676.667 39.671 672.383 36.2135C668.489 42.7829 666.931 37.9422 663.426 40.3626C650.573 43.1286 638.5 37.9422 626.426 35.8677C620.584 31.7186 615.521 42.0913 609.679 34.1389C605.395 28.6067 601.89 28.9525 597.606 28.6067C592.154 33.1016 586.312 31.027 581.248 27.9152C575.017 28.6067 569.175 27.2237 562.944 18.5797C550.87 14.7763 535.681 11.3187 522.439 7.51538C513.871 3.0205 505.303 -2.16592 495.956 0.945914C491.672 1.98319 486.608 12.7018 482.324 5.09507C474.924 6.82387 471.809 9.24417 463.241 11.6645C458.178 10.973 453.504 9.93569 448.83 15.1221C436.757 20.6542 423.905 15.4678 411.442 16.8509C401.705 12.0102 387.295 11.3187 378.727 17.5424C367.822 17.5424 359.253 28.6067 346.791 30.6813C340.559 29.2982 333.159 30.6813 326.928 30.3355C322.254 39.3252 318.36 36.5592 313.297 32.0643C302.002 31.027 290.318 36.2134 279.024 32.0643C277.855 33.1016 272.013 29.2982 270.845 31.7186C268.898 37.5965 268.119 32.7558 266.171 35.1762C260.329 35.8677 250.593 36.9049 243.972 35.8677C229.951 36.2134 215.151 43.1286 201.52 44.5117C194.12 40.3625 189.447 49.3523 181.657 47.6235C170.752 45.5489 161.405 46.5862 150.89 44.5117C141.932 37.9422 134.143 38.6338 125.574 45.549C118.564 44.1659 110.385 49.6981 103.375 45.549C96.3646 46.2405 88.5753 42.4371 81.5649 43.8202C77.6703 47.2778 73.3862 44.5116 69.4915 42.4371C64.039 44.5116 62.0917 44.1659 57.0286 47.9693C52.7445 45.5489 43.0079 41.3998 38.7238 47.9693C31.3239 52.8099 24.703 43.1286 16.9137 44.1659C9.12444 38.288 7.17711 47.2777 1.72459 51.4269C-3.33845 60.0709 -11.5172 60.4166 -17.3592 57.6505C-22.4222 55.576 -37.2219 59.7251 -43.0639 57.9963C-49.2953 47.2777 -52.411 44.1659 -55.5268 44.1659C-55.5268 44.5116 -57.8635 70.7894 -60.5898 87.0401C-63.3161 123.691 -67.2107 142.016 -69.937 166.565C-72.6632 184.89 -75 211.514 -75 209.439C-69.158 209.093 -62.5371 214.625 -55.1373 216.009C-52.8005 214.625 -52.8005 230.185 -50.0742 212.551C-48.1269 216.7 -42.6744 219.812 -40.7271 212.897C-33.7167 203.561 -25.1485 208.402 -16.9697 213.242C-8.79095 219.466 -0.61219 222.232 5.22979 208.402C7.17711 207.019 6.78764 202.87 9.12444 204.598C11.8507 207.019 18.4716 208.056 21.9768 203.215C26.2609 210.822 29.3766 192.843 34.0502 200.795C46.5131 195.954 58.197 198.375 69.4915 191.805C81.1754 192.151 92.8594 188.002 105.322 188.348C113.891 184.544 122.069 192.151 130.638 192.497C135.701 191.46 141.153 190.077 146.216 192.497C154.784 197.337 159.847 192.843 167.247 199.412C173.089 198.721 179.71 192.497 185.163 202.87C192.173 207.71 195.289 211.514 202.299 215.317C207.362 219.812 211.646 213.934 216.32 217.046C224.109 218.429 227.614 222.578 235.793 227.073C242.025 234.68 249.035 224.652 255.656 227.419C259.161 225.69 262.666 230.185 266.171 227.764C268.898 228.456 271.624 224.998 274.35 230.53C282.918 232.605 293.823 232.259 302.392 230.876C316.412 232.259 330.433 232.605 344.064 230.876C352.243 231.568 361.98 224.998 369.38 224.653C373.664 224.307 375.611 214.971 380.285 219.466C393.137 220.503 410.663 217.737 423.126 220.503C432.083 224.998 439.873 220.849 449.22 222.232C455.451 223.269 459.346 216.7 464.409 223.961C468.693 226.036 471.809 238.137 476.482 231.568C485.051 249.893 496.345 232.951 505.303 230.876C513.871 235.371 522.439 229.493 531.007 230.876C536.07 238.829 542.302 230.876 546.976 230.185C549.312 226.381 550.481 232.605 553.596 226.381C556.712 209.785 559.438 230.53 562.554 225.69C565.67 222.232 568.396 225.344 571.122 226.036C583.975 231.222 596.438 221.886 609.29 227.764C620.974 219.812 632.268 227.764 643.952 227.764C647.068 217.737 654.857 236.063 657.973 227.764C661.868 237.446 659.92 226.727 663.036 224.653C666.152 219.12 664.205 225.344 669.657 222.578C671.215 217.737 672.773 213.242 674.72 222.578C681.73 220.849 690.299 223.961 698.477 220.158C706.656 215.663 714.835 214.625 721.066 213.242C724.572 211.514 724.961 212.897 728.856 208.748C732.361 205.29 740.15 212.205 743.266 208.402C749.497 195.954 756.897 209.439 763.129 208.056C770.139 208.402 774.813 209.093 781.823 208.748C790.781 212.551 798.959 213.242 808.696 211.514C814.148 212.897 819.601 209.439 825.443 208.056C831.285 214.625 837.516 214.625 843.748 204.944C851.148 207.71 858.937 204.253 866.337 204.944C872.568 202.178 883.084 200.449 888.926 205.29C890.873 216.008 892.041 206.327 893.599 208.056C895.936 205.981 898.662 208.056 901.389 209.093C905.283 214.625 910.346 218.083 913.852 213.934C916.578 213.934 918.136 215.663 920.472 217.392C923.978 217.046 926.704 218.775 930.599 221.541C932.546 226.381 934.104 233.297 935.662 224.653C940.335 229.147 945.788 224.307 950.461 225.344C957.472 226.727 964.093 220.158 971.103 226.727C980.061 229.839 989.408 229.147 998.755 227.764C1008.1 228.456 1017.45 229.493 1026.41 227.073C1035.36 230.876 1044.32 224.998 1052.89 227.073C1061.85 234.68 1070.81 226.381 1079.37 227.073C1084.83 220.849 1090.67 227.764 1096.12 227.073C1104.3 214.971 1107.42 224.307 1114.04 221.886C1117.15 225.344 1123.77 210.131 1126.11 215.663C1128.06 211.514 1127.67 214.625 1129.62 208.748C1131.17 199.066 1133.12 206.327 1134.29 204.598C1135.07 193.534 1135.46 203.561 1136.63 199.412C1139.74 196.3 1144.41 208.402 1149.09 195.609C1155.32 201.832 1159.99 198.375 1167 192.151C1170.9 185.927 1174.79 189.039 1178.3 192.497C1186.48 193.88 1193.88 187.31 1201.67 184.544C1207.12 176.246 1205.95 179.358 1209.84 180.741C1211.79 176.592 1215.69 174.517 1218.02 180.049C1231.27 181.433 1242.95 176.246 1255.41 171.751C1260.09 167.256 1263.98 170.714 1268.65 170.368C1270.6 179.358 1275.28 174.863 1276.83 171.751C1281.51 172.443 1283.84 173.48 1288.13 179.012C1299.81 193.88 1313.44 183.853 1321.62 197.683C1325.52 199.758 1329.41 212.551 1334.08 209.785C1339.93 219.812 1348.49 225.69 1355.5 214.971C1362.9 224.998 1369.14 210.131 1376.15 220.158C1382.77 215.317 1390.17 226.381 1396.79 222.232C1405.36 224.307 1410.03 220.158 1417.04 226.036C1427.56 236.408 1438.85 234.334 1451.7 234.334C1463.39 239.52 1470.79 232.605 1480.91 228.11C1485.59 221.886 1489.48 223.615 1493.76 221.541C1503.5 218.429 1515.96 222.924 1527.65 214.971C1538.55 221.195 1548.68 220.158 1559.58 213.242C1567.37 209.785 1575.55 206.673 1583.34 213.242C1597.75 217.392 1610.21 218.775 1624.24 219.812C1630.08 217.046 1638.65 216.008 1644.49 219.812C1653.45 214.971 1657.73 209.785 1665.91 208.056C1677.2 197.337 1690.06 204.253 1702.91 203.561C1715.76 202.178 1729 205.29 1741.08 204.253C1753.93 203.907 1766.78 207.71 1779.63 204.253C1790.93 202.524 1796.38 203.215 1803 193.88C1803 190.768 1799.88 177.283 1795.99 147.894C1792.1 121.962 1787.03 83.2367 1783.14 62.4912C1778.46 40.3625 1775.35 22.7288 1775.35 16.5051Z" fill="#141414"/>
</svg>
