<svg width="1728" height="240" viewBox="0 0 1728 240" fill="none" xmlns="http://www.w3.org/2000/svg">
<path d="M1805.35 16.5051C1792.89 12.356 1778.86 12.7017 1766.01 14.7763C1757.83 11.6645 1749.27 17.1966 1741.09 14.7763C1732.52 4.74927 1724.34 11.6645 1715.77 14.7763C1707.2 5.09503 1699.02 -1.4744 1690.46 14.7763C1682.28 17.8881 1672.54 21.3458 1664.36 14.4306C1658.13 5.09506 1655.01 24.4576 1648.78 11.3187C1642.55 10.2814 1635.93 12.0102 1629.7 11.3187C1619.18 13.739 1608.67 10.9729 1598.15 11.3187C1592.7 10.2814 1587.25 10.2814 1581.8 11.6645C1574.78 9.93569 1571.67 18.9255 1565.44 10.973C1559.99 12.356 1556.48 7.86114 1549.86 5.78658C1545.19 10.973 1540.9 10.973 1536.23 7.51538C1528.83 6.13234 1521.43 6.82386 1514.03 10.973C1508.19 6.13234 1505.46 23.7661 1501.57 16.8509C1500.4 14.7763 1498.84 15.4678 1496.89 19.9627C1496.5 15.4678 1495.72 14.4306 1495.33 19.617C1491.83 20.6543 1488.32 24.4576 1484.82 24.8034C1477.42 28.9525 1468.85 29.644 1460.28 28.9525C1451.71 28.9525 1443.15 21.3457 1434.97 28.6067C1429.51 26.8779 1418.22 33.4474 1413.55 28.9525C1410.82 27.9152 1410.04 27.5694 1406.54 34.1389C1404.98 34.4846 1400.3 29.2982 1399.14 34.1389C1390.96 30.3355 1383.17 46.2404 1375.38 35.5219C1364.86 37.2507 1355.91 54.193 1345 44.8574C1335.65 49.0066 1325.92 50.0438 1316.57 44.5117C1310.34 46.2405 1304.11 46.2405 1297.49 44.5117C1293.2 35.8677 1288.92 38.6338 1284.63 44.8574C1283.08 51.0811 1283.08 52.4641 1281.52 48.6608C1277.62 47.9692 1270.22 51.0811 1265.16 47.9693C1251.92 46.2405 1239.46 43.1286 1226.21 39.671C1216.87 38.6338 1209.86 39.671 1201.29 37.5965C1194.28 37.5965 1186.49 37.2507 1178.7 35.5219C1170.91 37.5964 1162.73 26.1864 1155.72 36.2135C1148.32 31.0271 1142.09 44.5117 1134.69 37.9422C1127.29 38.288 1120.67 34.1389 1113.66 36.2135C1108.6 31.3728 1103.53 25.1491 1098.08 31.7186C1092.24 28.261 1090.29 37.2507 1084.45 32.7559C1081.72 31.3728 1078.61 39.671 1075.49 32.7559C1068.87 34.8304 1062.64 36.5592 1056.02 31.0271C1052.9 29.2983 1049.4 29.644 1046.28 31.0271C1039.66 34.8304 1041.61 27.5695 1037.32 29.2983C1024.86 22.3831 1018.63 29.2982 1006.56 32.4101C994.482 32.4101 980.072 32.4101 967.609 32.7559C963.325 32.4101 958.262 29.9898 953.978 32.4101C951.251 32.4101 948.136 26.1864 945.409 28.9525C938.399 23.0746 934.115 24.1119 926.715 24.1119C922.042 24.4576 917.757 26.8779 913.473 23.0746C909.968 20.6543 908.8 16.8509 904.905 20.6543C898.674 18.2339 892.053 17.8882 885.821 20.6543C880.369 23.0746 874.527 20.3085 869.074 20.6543C862.064 26.1864 858.169 17.5424 850.38 15.1221C847.264 14.0848 842.98 12.0102 839.864 15.1221C834.022 12.0102 830.907 18.5797 824.286 18.9255C816.886 19.617 810.655 18.2339 804.813 21C801.697 22.7288 799.75 19.2712 795.076 27.5695C792.739 31.0271 788.066 27.5694 786.118 27.2237C774.434 36.2134 762.361 27.9152 751.066 29.2983C751.456 35.5219 751.066 36.9049 750.677 32.0643C741.719 33.7931 732.762 26.5322 723.804 32.4101C721.078 35.1762 716.793 35.1761 714.067 32.0643C710.173 32.4101 706.667 39.671 702.383 36.2135C698.489 42.7829 696.931 37.9422 693.426 40.3626C680.573 43.1286 668.5 37.9422 656.426 35.8677C650.584 31.7186 645.521 42.0913 639.679 34.1389C635.395 28.6067 631.89 28.9525 627.606 28.6067C622.154 33.1016 616.312 31.027 611.248 27.9152C605.017 28.6067 599.175 27.2237 592.944 18.5797C580.87 14.7763 565.681 11.3187 552.439 7.51538C543.871 3.0205 535.303 -2.16592 525.956 0.945914C521.672 1.98319 516.608 12.7018 512.324 5.09507C504.924 6.82387 501.809 9.24417 493.241 11.6645C488.178 10.973 483.504 9.93569 478.83 15.1221C466.757 20.6542 453.905 15.4678 441.442 16.8509C431.705 12.0102 417.295 11.3187 408.727 17.5424C397.822 17.5424 389.253 28.6067 376.791 30.6813C370.559 29.2982 363.159 30.6813 356.928 30.3355C352.254 39.3252 348.36 36.5592 343.297 32.0643C332.002 31.027 320.318 36.2134 309.024 32.0643C307.855 33.1016 302.013 29.2982 300.845 31.7186C298.898 37.5965 298.119 32.7558 296.171 35.1762C290.329 35.8677 280.593 36.9049 273.972 35.8677C259.951 36.2134 245.151 43.1286 231.52 44.5117C224.12 40.3625 219.447 49.3523 211.657 47.6235C200.752 45.5489 191.405 46.5862 180.89 44.5117C171.932 37.9422 164.143 38.6338 155.574 45.549C148.564 44.1659 140.385 49.6981 133.375 45.549C126.365 46.2405 118.575 42.4371 111.565 43.8202C107.67 47.2778 103.386 44.5116 99.4915 42.4371C94.039 44.5116 92.0917 44.1659 87.0286 47.9693C82.7445 45.5489 73.0079 41.3998 68.7238 47.9693C61.3239 52.8099 54.703 43.1286 46.9137 44.1659C39.1244 38.288 37.1771 47.2777 31.7246 51.4269C26.6616 60.0709 18.4828 60.4166 12.6408 57.6505C7.57777 55.576 -7.2219 59.7251 -13.0639 57.9963C-19.2953 47.2777 -22.411 44.1659 -25.5268 44.1659C-25.5268 44.5116 -27.8635 70.7894 -30.5898 87.0401C-33.3161 123.691 -37.2107 142.016 -39.937 166.565C-42.6632 184.89 -45 211.514 -45 209.439C-39.158 209.093 -32.5371 214.625 -25.1373 216.009C-22.8005 214.625 -22.8005 230.185 -20.0742 212.551C-18.1269 216.7 -12.6744 219.812 -10.7271 212.897C-3.71672 203.561 4.85152 208.402 13.0303 213.242C21.209 219.466 29.3878 222.232 35.2298 208.402C37.1771 207.019 36.7876 202.87 39.1244 204.598C41.8507 207.019 48.4716 208.056 51.9768 203.215C56.2609 210.822 59.3766 192.843 64.0502 200.795C76.5131 195.954 88.197 198.375 99.4915 191.805C111.175 192.151 122.859 188.002 135.322 188.348C143.891 184.544 152.069 192.151 160.638 192.497C165.701 191.46 171.153 190.077 176.216 192.497C184.784 197.337 189.847 192.843 197.247 199.412C203.089 198.721 209.71 192.497 215.163 202.87C222.173 207.71 225.289 211.514 232.299 215.317C237.362 219.812 241.646 213.934 246.32 217.046C254.109 218.429 257.614 222.578 265.793 227.073C272.025 234.68 279.035 224.652 285.656 227.419C289.161 225.69 292.666 230.185 296.171 227.764C298.898 228.456 301.624 224.998 304.35 230.53C312.918 232.605 323.823 232.259 332.392 230.876C346.412 232.259 360.433 232.605 374.064 230.876C382.243 231.568 391.98 224.998 399.38 224.653C403.664 224.307 405.611 214.971 410.285 219.466C423.137 220.503 440.663 217.737 453.126 220.503C462.083 224.998 469.873 220.849 479.22 222.232C485.451 223.269 489.346 216.7 494.409 223.961C498.693 226.036 501.809 238.137 506.482 231.568C515.051 249.893 526.345 232.951 535.303 230.876C543.871 235.371 552.439 229.493 561.007 230.876C566.07 238.829 572.302 230.876 576.976 230.185C579.312 226.381 580.481 232.605 583.596 226.381C586.712 209.785 589.438 230.53 592.554 225.69C595.67 222.232 598.396 225.344 601.122 226.036C613.975 231.222 626.438 221.886 639.29 227.764C650.974 219.812 662.268 227.764 673.952 227.764C677.068 217.737 684.857 236.063 687.973 227.764C691.868 237.446 689.92 226.727 693.036 224.653C696.152 219.12 694.205 225.344 699.657 222.578C701.215 217.737 702.773 213.242 704.72 222.578C711.73 220.849 720.299 223.961 728.477 220.158C736.656 215.663 744.835 214.625 751.066 213.242C754.572 211.514 754.961 212.897 758.856 208.748C762.361 205.29 770.15 212.205 773.266 208.402C779.497 195.954 786.897 209.439 793.129 208.056C800.139 208.402 804.813 209.093 811.823 208.748C820.781 212.551 828.959 213.242 838.696 211.514C844.148 212.897 849.601 209.439 855.443 208.056C861.285 214.625 867.516 214.625 873.748 204.944C881.148 207.71 888.937 204.253 896.337 204.944C902.568 202.178 913.084 200.449 918.926 205.29C920.873 216.008 922.041 206.327 923.599 208.056C925.936 205.981 928.662 208.056 931.389 209.093C935.283 214.625 940.346 218.083 943.852 213.934C946.578 213.934 948.136 215.663 950.472 217.392C953.978 217.046 956.704 218.775 960.599 221.541C962.546 226.381 964.104 233.297 965.662 224.653C970.335 229.147 975.788 224.307 980.461 225.344C987.472 226.727 994.093 220.158 1001.1 226.727C1010.06 229.839 1019.41 229.147 1028.75 227.764C1038.1 228.456 1047.45 229.493 1056.41 227.073C1065.36 230.876 1074.32 224.998 1082.89 227.073C1091.85 234.68 1100.81 226.381 1109.37 227.073C1114.83 220.849 1120.67 227.764 1126.12 227.073C1134.3 214.971 1137.42 224.307 1144.04 221.886C1147.15 225.344 1153.77 210.131 1156.11 215.663C1158.06 211.514 1157.67 214.625 1159.62 208.748C1161.17 199.066 1163.12 206.327 1164.29 204.598C1165.07 193.534 1165.46 203.561 1166.63 199.412C1169.74 196.3 1174.41 208.402 1179.09 195.609C1185.32 201.832 1189.99 198.375 1197 192.151C1200.9 185.927 1204.79 189.039 1208.3 192.497C1216.48 193.88 1223.88 187.31 1231.67 184.544C1237.12 176.246 1235.95 179.358 1239.84 180.741C1241.79 176.592 1245.69 174.517 1248.02 180.049C1261.27 181.433 1272.95 176.246 1285.41 171.751C1290.09 167.256 1293.98 170.714 1298.65 170.368C1300.6 179.358 1305.28 174.863 1306.83 171.751C1311.51 172.443 1313.84 173.48 1318.13 179.012C1329.81 193.88 1343.44 183.853 1351.62 197.683C1355.52 199.758 1359.41 212.551 1364.08 209.785C1369.93 219.812 1378.49 225.69 1385.5 214.971C1392.9 224.998 1399.14 210.131 1406.15 220.158C1412.77 215.317 1420.17 226.381 1426.79 222.232C1435.36 224.307 1440.03 220.158 1447.04 226.036C1457.56 236.408 1468.85 234.334 1481.7 234.334C1493.39 239.52 1500.79 232.605 1510.91 228.11C1515.59 221.886 1519.48 223.615 1523.76 221.541C1533.5 218.429 1545.96 222.924 1557.65 214.971C1568.55 221.195 1578.68 220.158 1589.58 213.242C1597.37 209.785 1605.55 206.673 1613.34 213.242C1627.75 217.392 1640.21 218.775 1654.24 219.812C1660.08 217.046 1668.65 216.008 1674.49 219.812C1683.45 214.971 1687.73 209.785 1695.91 208.056C1707.2 197.337 1720.06 204.253 1732.91 203.561C1745.76 202.178 1759 205.29 1771.08 204.253C1783.93 203.907 1796.78 207.71 1809.63 204.253C1820.93 202.524 1826.38 203.215 1833 193.88C1833 190.768 1829.88 177.283 1825.99 147.894C1822.1 121.962 1817.03 83.2367 1813.14 62.4912C1808.46 40.3625 1805.35 22.7288 1805.35 16.5051Z" fill="#101010"/>
</svg>
